<svg width="60" height="60" viewBox="0 0 60 60" fill="none" xmlns="http://www.w3.org/2000/svg">
<g clip-path="url(#clip0)">
<rect width="60" height="60" fill="white"/>
<g opacity="0.3">
<path fill-rule="evenodd" clip-rule="evenodd" d="M24.4161 6.80667C36.5045 3.5676 49.5828 13.1775 52.8218 25.2656C56.0608 37.354 48.8869 49.7795 36.7986 53.0186C24.7102 56.2577 12.5974 48.4513 9.35829 36.363C6.11922 24.2746 12.3278 10.0457 24.4161 6.80667" fill="#F47820"/>
<path fill-rule="evenodd" clip-rule="evenodd" d="M26.0878 12.5629C26.2658 12.8295 26.4448 12.8184 26.6196 12.8271C26.4326 12.5774 26.2626 12.4894 26.0878 12.5629" fill="black"/>
<path fill-rule="evenodd" clip-rule="evenodd" d="M26.6241 12.8325L26.6259 12.8282C26.6234 12.8286 26.6218 12.8274 26.6198 12.827L26.6241 12.8325Z" fill="black"/>
<path fill-rule="evenodd" clip-rule="evenodd" d="M22.3502 0.0950239C22.268 0.125064 22.1743 0.159812 22.0793 0.194881C22.174 0.175612 22.2683 0.149053 22.3502 0.0950239" fill="black"/>
<path fill-rule="evenodd" clip-rule="evenodd" d="M39.6583 16.6541L39.976 16.2621C41.0707 16.9285 40.0091 16.9203 41.0284 17.4644C41.2261 17.3799 41.4126 17.4266 41.5991 17.5271C41.7849 17.6283 41.9697 17.7844 42.1275 17.9669C42.4626 18.3118 42.7247 18.7081 43.0017 18.709C42.9642 18.736 43.3432 19.16 43.1593 19.2869C43.3556 19.2155 43.4738 19.3052 43.5825 19.4339C43.683 19.5706 43.7714 19.7467 43.9264 19.8479C44.0928 19.876 43.9497 19.7028 43.9713 19.5531L44.2977 19.82L44.6085 20.1046C44.717 20.4365 44.5855 20.6295 44.3364 20.3855C44.6407 20.8222 45.2304 21.6836 45.7782 22.8528C46.339 24.013 46.842 25.4835 47.1048 26.9998C47.3784 28.5148 47.4018 30.0601 47.2859 31.3395C47.1682 32.6218 46.9241 33.6381 46.828 34.1945C47.0029 34.0932 47.083 33.8565 47.1879 33.6289C47.2953 33.4012 47.3908 33.1732 47.6448 33.0831C47.7828 33.7457 47.3531 33.9456 47.5528 34.2782C47.2048 34.3079 47.0558 34.6107 46.9173 34.946C46.7533 35.2721 46.5909 35.6316 46.1841 35.7104L46.4695 36.0124L46.1399 36.1976C45.9585 36.8373 45.8473 37.2017 45.767 37.4085C45.6925 37.6187 45.6687 37.6829 45.6361 37.7307C45.5672 37.8234 45.4823 37.8718 44.8097 38.8011C44.6414 39.0889 44.4948 39.3365 44.3808 39.575C44.2736 39.8196 44.1655 40.0254 44.0741 40.2247C44.0261 40.3234 43.9802 40.4176 43.9359 40.5087C43.8849 40.5946 43.8312 40.6746 43.775 40.7502C43.6599 40.8993 43.5379 41.0355 43.3676 41.1302C43.4525 41.0607 43.8222 40.9984 43.6468 41.3275C43.3708 41.1234 43.1172 42.1618 42.7474 42.0103C42.6875 42.0749 42.5874 42.1671 42.48 42.2719C42.3674 42.3702 42.2441 42.477 42.1489 42.5831C41.9601 42.796 41.8648 42.9945 42.1565 43.0623C41.855 42.9935 40.9668 43.4912 41.3561 42.9819C41.071 43.1693 40.7433 43.2651 40.5904 43.4883L41.0312 43.3661C40.7921 43.5328 40.5685 43.6633 40.3488 43.7542C40.1314 43.8485 39.9402 43.9397 39.7496 44.0069C39.5624 44.08 39.393 44.1587 39.2379 44.2643C39.0775 44.3604 38.9303 44.4809 38.7923 44.6529L39.2703 44.6486C38.6268 44.9624 38.0566 45.1985 37.6517 44.8548C37.6517 44.8548 37.815 44.7704 37.9701 44.671L38.2828 44.4823C37.1998 44.8915 36.5375 45.1039 35.6127 45.5306L35.9611 45.4685C35.8178 45.5548 35.5935 45.6685 35.297 45.764C35.1486 45.8133 34.9848 45.8677 34.8083 45.9266C34.628 45.9721 34.4345 46.0208 34.2306 46.0725C33.4102 46.263 32.3936 46.4076 31.3616 46.4537C29.2941 46.5749 27.2048 46.2083 26.5153 46.2596L26.9745 46.7746C26.9745 46.7746 26.6853 46.7602 26.3957 46.7451C26.25 46.739 26.1031 46.7316 25.9954 46.7174C25.8866 46.7061 25.8139 46.6985 25.8139 46.6985C25.8766 46.724 26.1009 46.5047 26.3112 46.2925C26.5242 46.0749 26.7226 45.8676 26.7555 45.9378C26.2068 45.7681 25.0748 45.4082 23.7497 44.724C23.5845 44.638 23.4153 44.5496 23.2422 44.4593C23.0691 44.3691 22.9008 44.2601 22.724 44.1594C22.3677 43.9634 22.0208 43.7184 21.6561 43.4856C20.9474 42.9858 20.2199 42.4362 19.5458 41.8171C18.1917 40.5878 17.0053 39.1598 16.1929 37.8823C15.3669 36.6102 14.8843 35.5198 14.7064 35.0025C14.5363 34.1194 15.1548 34.6358 15.2043 34.6175C14.6875 33.7093 14.6679 34.3522 14.3872 33.5045C14.3613 33.2546 14.6638 33.4576 14.7568 33.565C14.5795 33.2184 14.576 32.8437 14.4171 32.8665C14.4452 33.3661 13.9786 33.3147 13.7811 33.6096C13.7811 33.6096 13.6805 33.3306 13.6063 33.0454C13.5248 32.7624 13.4436 32.4795 13.4436 32.4795L13.7233 32.4502C13.6865 32.3261 13.4706 32.2212 13.2315 31.9972C12.9854 31.776 12.7527 31.4243 12.6994 30.8407C12.4451 28.9071 12.2488 26.8141 12.6214 24.9693C12.7879 25.0257 12.806 25.4193 12.8762 25.8161C12.8942 25.5691 12.9237 25.1955 13.0668 24.9898C12.8921 25.1858 12.8709 24.9899 12.8715 24.7804C12.8798 24.5739 12.922 24.3606 12.825 24.5194C12.7274 24.1576 12.7068 23.7726 12.7707 23.3985C12.8119 23.0169 12.943 22.6497 13.0646 22.2866C13.1197 22.1025 13.2089 21.9331 13.2744 21.7583C13.3478 21.5865 13.4008 21.4098 13.4724 21.246L13.5219 21.1224L13.5451 21.0606L13.5561 21.0297L13.5583 21.0184C13.5625 20.9883 13.5645 20.9575 13.5636 20.9262C13.5615 20.8635 13.5478 20.7972 13.5176 20.7261C13.2551 20.5842 10.9884 19.2579 8.81671 17.7982C6.62998 16.3502 4.50636 14.7557 4.19222 14.5804C4.31018 14.3904 4.4279 14.202 4.51207 14.1722C4.33831 14.137 4.0559 14.486 4.03005 14.7385L4.35023 14.9567C4.2196 15.4875 4.08907 14.9588 3.86719 15.4312C3.57244 15.3147 3.73988 14.8535 3.91836 14.4606C3.70266 14.7815 3.31571 15.0207 3.55001 15.3157C3.26855 15.5818 3.22115 15.1033 2.90889 15.445C2.88293 15.6091 2.89623 15.818 2.87712 16.0161C2.87221 16.0655 2.86537 16.1145 2.85516 16.162C2.8079 16.2898 2.7541 16.4245 2.69823 16.5523C2.57997 16.8073 2.47479 17.0645 2.32929 17.2967L2.28466 17.258C2.12663 17.5485 1.99323 17.8292 1.87855 18.101C1.77287 18.3758 1.69094 18.6436 1.61898 18.9028C1.54798 19.1623 1.48882 19.4142 1.43883 19.6614C1.39787 19.9109 1.36433 20.1551 1.33217 20.3968C1.26926 20.8779 1.20734 21.3517 1.14192 21.8514C1.10428 22.0989 1.05827 22.3516 0.997839 22.6132C0.941981 22.8749 0.884001 23.1465 0.800883 23.4319L0.73284 23.1652C0.412594 23.9711 0.48946 25.6253 0.280629 27.107C0.356995 26.6795 0.593625 26.3224 0.608671 27.2105C0.520178 28.0552 0.531445 28.7725 0.582601 29.42C0.613651 30.0739 0.676895 30.6589 0.631261 31.2849C0.631106 31.2852 0.737378 31.57 0.866235 31.8442C0.991322 32.1187 1.11614 32.3931 1.11614 32.3931C1.3469 33.8117 1.89804 36.26 3.0681 38.9883C4.21485 41.7253 6.00087 44.7133 8.22402 47.346C10.4451 49.981 13.1103 52.2338 15.619 53.8168C18.1247 55.4174 20.4254 56.3487 21.7505 56.8351L21.5248 56.8036C23.5549 57.5436 26.2069 58.2805 29.216 58.5727C32.2175 58.8719 35.5654 58.7385 38.8144 57.9776C42.0617 57.2343 45.2026 55.9072 47.7904 54.1984C50.3932 52.5119 52.4454 50.5079 53.8313 48.7332C54.1126 48.5165 54.4137 48.2678 54.6856 47.9722C54.9607 47.6788 55.2353 47.3608 55.5015 47.0336C55.7548 46.6979 56.0022 46.3548 56.2411 46.0223C56.4812 45.6908 56.6866 45.355 56.899 45.0558C56.3656 45.682 56.3312 45.3274 56.668 44.8011C57.7783 42.9171 57.7084 42.8037 57.6883 42.704C57.6725 42.6519 57.6533 42.5964 57.7486 42.3042C57.7956 42.1576 57.8735 41.9534 57.9886 41.6585C58.095 41.3594 58.2399 40.9701 58.4341 40.4602C58.8202 39.2649 59.5096 37.2267 59.9184 34.6824C60.131 33.413 60.259 32.0217 60.3017 30.5766C60.3461 29.1302 60.2555 27.6307 60.0706 26.1486C59.7102 23.1785 58.8299 20.3042 57.8146 18.0025C56.8141 15.6894 55.6863 13.9534 55.0677 13.0104C54.162 12.176 53.2878 11.1525 52.3306 10.2045C51.8681 9.71621 51.3632 9.27288 50.8795 8.84041C50.371 8.43687 49.8835 8.03835 49.3675 7.7494L49.6204 7.80945C49.0935 7.46121 48.0167 6.6186 46.5289 5.73243C45.0498 4.83441 43.1768 3.89302 41.2236 3.17424C39.2729 2.44616 37.2497 1.93726 35.5383 1.65922C33.8266 1.38352 32.4327 1.29554 31.7248 1.31292L32.101 1.39441C30.8661 1.46491 30.3422 1.43958 29.8733 1.3253C29.4056 1.22498 28.9973 1.07628 28.0123 1.05578C28.1569 1.29646 27.7043 1.52964 27.1273 1.71784C26.5494 1.90835 25.8456 2.09102 25.4539 2.1592L25.4675 2.04569C25.1729 2.11622 24.7877 2.22466 24.3485 2.35529C23.9089 2.48421 23.4189 2.66861 22.9068 2.84237C22.4005 3.03593 21.871 3.23795 21.3524 3.43661C20.8395 3.65533 20.3323 3.8373 19.8726 4.0288L19.8551 3.74226C19.1165 4.16012 18.0143 4.6248 16.9851 5.13984C16.7277 5.26804 16.4705 5.38555 16.2275 5.51239C15.9853 5.64177 15.7524 5.76658 15.5346 5.88285C15.0959 6.10936 14.7326 6.3379 14.476 6.50199C13.2598 7.17723 11.6996 8.09287 10.2124 9.36396C9.84905 9.69057 9.46981 10.0119 9.12016 10.3726C8.77549 10.7382 8.41502 11.094 8.1002 11.4923C7.7878 11.892 7.46012 12.2779 7.19333 12.7046C7.05597 12.9146 6.92257 13.1258 6.79347 13.337L6.69753 13.4958L6.65026 13.5752L6.63685 13.6065C6.6209 13.6452 6.60684 13.6851 6.59493 13.7262C6.59493 13.7262 6.31794 13.7997 6.04085 13.8729C5.76099 13.9526 5.48044 14.0323 5.48044 14.0323L5.48039 14.1812C5.48039 14.1812 5.94012 14.5627 6.67986 15.114C7.41872 15.6663 8.44054 16.3833 9.5486 17.08C11.7612 18.4806 14.3183 19.7969 15.4149 19.9473L15.6396 20.105L15.7048 19.9314C15.8213 19.8723 15.8123 19.7887 15.8328 19.7178C15.8982 19.5797 15.9264 19.5209 16.026 19.617C16.026 19.617 15.9921 19.6608 15.9408 19.7261C15.928 19.7427 15.914 19.76 15.8994 19.7792L15.8817 19.798C15.8694 19.8106 15.8577 19.8253 15.8467 19.84C15.8015 19.8991 15.7557 19.9579 15.7557 19.9579C15.9356 19.8151 15.9777 20.0267 16.067 20.1785C16.1399 20.1142 16.1952 20.0692 16.3236 20.0423C16.3162 19.9632 16.2796 19.9654 16.2306 19.9937C16.1966 20.0023 16.1698 20.0079 16.1353 20.0074C16.0926 19.9816 16.1852 19.7071 16.2502 19.5083C16.2883 19.4025 16.3302 19.296 16.3901 19.2028C16.4547 19.1126 16.5305 19.0321 16.6218 18.9695C16.8401 18.7196 16.9296 18.7824 17.0296 18.8362C17.1277 18.8882 17.2389 18.9338 17.5039 18.6689C18.9159 17.2806 20.6917 16.2323 22.6723 15.4914C24.6546 14.7507 26.8361 14.3151 29.1065 14.1515C29.2164 14.2637 29.0923 14.2579 28.9661 14.3214C30.3214 14.1154 31.5475 14.2088 32.7984 14.2339C33.1273 14.4023 33.1954 14.5808 33.2787 14.7063C33.2385 14.6358 33.6354 14.6634 34.2607 14.7376C34.8758 14.8431 35.7213 14.9979 36.5291 15.2664C37.3403 15.5234 38.1358 15.8349 38.7016 16.1257C38.8443 16.1966 38.9785 16.2576 39.094 16.3186C39.2064 16.3831 39.3051 16.4398 39.388 16.4872C39.5526 16.5823 39.6506 16.6414 39.6583 16.6541" fill="#F47820"/>
</g>
</g>
<defs>
<clipPath id="clip0">
<rect width="60" height="60" fill="white"/>
</clipPath>
</defs>
</svg>
