<svg width="20" height="20" viewBox="0 0 20 20" fill="none" xmlns="http://www.w3.org/2000/svg">
<path d="M0 1.43267C0 0.641333 0.661501 0 1.47798 0H18.522C19.3378 0 20 0.641333 20 1.43267V18.5673C20 19.3587 19.3385 20 18.522 20H1.47798C0.661501 20 0 19.3587 0 18.5673V1.43267Z" fill="#F47820"/>
<path fill-rule="evenodd" clip-rule="evenodd" d="M6.06266 16.742V7.71069H3.04162V16.742H6.06266V16.742ZM4.55192 6.47809C5.60522 6.47809 6.26136 5.78476 6.26136 4.91809C6.24123 4.03142 5.60522 3.35742 4.57205 3.35742C3.53887 3.35742 2.86328 4.03142 2.86328 4.91742C2.86328 5.78409 3.51874 6.47742 4.53246 6.47742H4.55259L4.55192 6.47809ZM7.73403 16.7421H10.7551V11.6988C10.7551 11.4288 10.7745 11.1588 10.8544 10.9661C11.0724 10.4268 11.5695 9.86878 12.4041 9.86878C13.4977 9.86878 13.9344 10.6968 13.9344 11.9108V16.7421H16.9548V11.5641C16.9548 8.79011 15.4654 7.49878 13.4775 7.49878C11.8473 7.49878 11.1321 8.40411 10.7349 9.02078H10.7551V7.71078H7.73403C7.77428 8.55811 7.73403 16.7421 7.73403 16.7421V16.7421Z" fill="white"/>
</svg>
