<svg width="20" height="20" viewBox="0 0 20 20" fill="none" xmlns="http://www.w3.org/2000/svg">
<path d="M18.896 0H1.104C0.494278 0 0 0.494278 0 1.104V18.896C0 19.5057 0.494278 20 1.104 20H10.684V12.2653H8.086V9.23867H10.6833V7.012C10.6833 4.42867 12.2613 3.022 14.5653 3.022C15.6693 3.022 16.618 3.104 16.8947 3.13933V5.83867H15.3053C14.052 5.83867 13.8087 6.43467 13.8087 7.30933V9.238H16.806L16.4153 12.2653H13.8087V20H18.896C19.5057 20 20 19.5057 20 18.896V1.104C20 0.494278 19.5057 0 18.896 0Z" fill="#F47820"/>
</svg>
