<svg width="20" height="20" viewBox="0 0 20 20" fill="none" xmlns="http://www.w3.org/2000/svg">
<path d="M6.27243 18C13.7995 18 17.9157 11.8453 17.9157 6.50771C17.9157 6.33278 17.9119 6.15891 17.9043 5.98504C18.7051 5.41327 19.3963 4.70532 19.9454 3.89438C19.1986 4.22103 18.4064 4.43515 17.5951 4.52958C18.4498 4.0248 19.0895 3.23084 19.3951 2.29544C18.5917 2.76599 17.7128 3.09769 16.7962 3.27624C15.6473 2.06743 13.8666 1.67374 12.3047 2.28324C10.7429 2.89273 9.71683 4.38172 9.71676 6.03891C9.71676 6.35571 9.75297 6.66398 9.8227 6.95944C6.42162 6.79091 3.40649 5.18344 1.38811 2.73918C1.02457 3.35567 0.833375 4.05632 0.834054 4.76958C0.832656 6.12034 1.51617 7.38226 2.65514 8.13171C2.00522 8.1122 1.36956 7.93899 0.801622 7.62664L0.801081 7.67838C0.801081 9.63464 2.21189 11.2677 4.08378 11.6378C3.48116 11.7997 2.84901 11.8234 2.23568 11.7072C2.77128 13.3525 4.30775 14.4799 6.05892 14.5125C4.60948 15.6355 2.81915 16.2446 0.976216 16.2416C0.646486 16.2416 0.320541 16.2229 0 16.1856C1.871 17.3722 4.04877 18.0021 6.27297 18" fill="#F47820"/>
</svg>
