<svg width="20" height="21" viewBox="0 0 20 21" fill="none" xmlns="http://www.w3.org/2000/svg">
<path fill-rule="evenodd" clip-rule="evenodd" d="M18.5172 6.09366C17.6298 4.52459 16.426 3.28236 14.9056 2.36665C13.3849 1.45094 11.7248 0.993164 9.92419 0.993164C8.12371 0.993164 6.46312 1.4511 4.94274 2.36665C3.4222 3.28236 2.2184 4.52459 1.33101 6.09366C0.443616 7.66272 0 9.37614 0 11.2339C0 13.4653 0.630928 15.4721 1.8931 17.2544C3.15512 19.0367 4.78541 20.2701 6.78398 20.9545C7.01665 20.9991 7.1889 20.9678 7.30087 20.8614C7.41285 20.7547 7.46883 20.6213 7.46883 20.4614C7.46883 20.4347 7.46661 20.1948 7.46233 19.7414C7.45789 19.2879 7.45583 18.8923 7.45583 18.5549L7.1586 18.6079C6.96907 18.6437 6.73006 18.659 6.4414 18.6545C6.15289 18.6504 5.85345 18.6192 5.54338 18.5612C5.23315 18.5036 4.94465 18.3704 4.67756 18.1616C4.41063 17.9526 4.22109 17.6791 4.10912 17.3414L3.97986 17.0346C3.89374 16.8303 3.75813 16.6035 3.57288 16.3547C3.38763 16.1058 3.20032 15.9369 3.01079 15.848L2.92038 15.7814C2.86011 15.7369 2.80412 15.6833 2.75242 15.6212C2.70071 15.559 2.66201 15.4968 2.63616 15.4344C2.61031 15.3722 2.63172 15.321 2.70071 15.2809C2.76971 15.2408 2.89453 15.2212 3.0755 15.2212L3.33386 15.2611C3.50611 15.2966 3.71927 15.4031 3.97351 15.5811C4.2276 15.7588 4.43648 15.9899 4.60016 16.2742C4.79841 16.6388 5.03727 16.9166 5.31737 17.1077C5.5973 17.2989 5.87946 17.3943 6.16368 17.3943C6.4479 17.3943 6.69342 17.3721 6.90024 17.3277C7.1069 17.2833 7.30071 17.2166 7.48168 17.1277C7.55924 16.532 7.77034 16.0742 8.11483 15.7542C7.62379 15.7009 7.18239 15.6207 6.79033 15.5141C6.39841 15.4074 5.9935 15.2341 5.57573 14.9938C5.15781 14.7539 4.8111 14.456 4.53545 14.1005C4.25979 13.7449 4.03362 13.2781 3.8571 12.7004C3.68057 12.1225 3.59223 11.4558 3.59223 10.7002C3.59223 9.62442 3.93259 8.70888 4.61316 7.95323C4.29437 7.14439 4.3245 6.23768 4.70357 5.2331C4.95337 5.15307 5.32387 5.21313 5.81491 5.41313C6.30595 5.61313 6.6655 5.78449 6.89389 5.92655C7.12228 6.06861 7.30531 6.18891 7.44314 6.28662C8.24441 6.05552 9.07137 5.93997 9.92419 5.93997C10.777 5.93997 11.6041 6.05552 12.4056 6.28662L12.8966 5.96665C13.2324 5.75323 13.6289 5.55765 14.0852 5.37991C14.5418 5.20217 14.8909 5.15323 15.1321 5.23326C15.5197 6.23784 15.5542 7.14456 15.2354 7.95339C15.9159 8.70904 16.2563 9.62475 16.2563 10.7004C16.2563 11.456 16.1678 12.1248 15.9914 12.7071C15.8147 13.2896 15.5867 13.756 15.3067 14.1072C15.0266 14.4585 14.6777 14.754 14.26 14.994C13.842 15.2341 13.4371 15.4074 13.0452 15.5141C12.6531 15.6208 12.2117 15.701 11.7207 15.7544C12.1686 16.1544 12.3925 16.7855 12.3925 17.6478V20.4611C12.3925 20.621 12.4465 20.7544 12.5542 20.8609C12.6619 20.9675 12.8319 20.9987 13.0646 20.9542C15.0633 20.2698 16.6936 19.0364 17.9556 17.2539C19.2176 15.4717 19.8487 13.465 19.8487 11.2334C19.8482 9.37598 19.4043 7.66272 18.5172 6.09366Z" fill="white"/>
</svg>
