<svg width="77" height="77" fill="none" xmlns="http://www.w3.org/2000/svg"><path d="M66.31 36.762h-5.215V22.857c0-3.824-3.128-6.952-6.952-6.952H40.238V10.69c0-4.798-3.893-8.691-8.69-8.691s-8.69 3.893-8.69 8.69v5.215H8.951c-3.823 0-6.917 3.128-6.917 6.952v13.21h5.18c5.179 0 9.385 4.206 9.385 9.385 0 5.18-4.206 9.386-9.386 9.386H2v13.21C2 71.87 5.129 75 8.952 75h13.21v-5.214c0-5.18 4.206-9.386 9.386-9.386 5.18 0 9.385 4.206 9.385 9.386V75h13.21c3.824 0 6.952-3.129 6.952-6.952V54.143h5.215c4.797 0 8.69-3.894 8.69-8.69a8.694 8.694 0 00-8.69-8.691z" fill="#fff" fill-opacity=".54" stroke="#EB850E" stroke-width="3"/><path fill-rule="evenodd" clip-rule="evenodd" d="M42.834 38.956a4.77 4.77 0 004.775-4.79 4.77 4.77 0 00-4.775-4.791c-2.65 0-4.79 2.14-4.79 4.79 0 2.651 2.14 4.791 4.79 4.791zm-9.58-1.597h-3.195v-3.193c0-.879-.718-1.597-1.597-1.597-.878 0-1.596.718-1.596 1.597v3.193h-3.194c-.878 0-1.597.719-1.597 1.597s.719 1.597 1.597 1.597h3.194v3.194c0 .878.718 1.597 1.596 1.597.879 0 1.597-.719 1.597-1.597v-3.194h3.194c.878 0 1.597-.718 1.597-1.597 0-.878-.719-1.597-1.597-1.597zm0 9.582c0-3.194 6.387-4.791 9.58-4.791 3.194 0 9.582 1.597 9.582 4.79v1.598c0 .878-.719 1.596-1.597 1.596H34.85a1.602 1.602 0 01-1.597-1.596V46.94z" fill="#EB850E"/></svg>