<svg width="77" height="77" fill="none" xmlns="http://www.w3.org/2000/svg"><mask id="prefix__a" maskUnits="userSpaceOnUse" x="18" y="13" width="45" height="46" fill="#000"><path fill="#fff" d="M18 13h45v46H18z"/><path fill-rule="evenodd" clip-rule="evenodd" d="M37.658 17.032l-7.995 13.067c-.881 1.419.15 3.267 1.827 3.267h15.969c1.676 0 2.708-1.848 1.827-3.267l-7.974-13.067a2.133 2.133 0 00-3.654 0zM51.4 38.092a8.6 8.6 0 100 17.199 8.6 8.6 0 000-17.2zM35.485 55.09H23.069A2.075 2.075 0 0121 53.021V40.607c0-1.138.931-2.069 2.07-2.069h12.415c1.138 0 2.07.931 2.07 2.07v12.415c0 1.138-.932 2.069-2.07 2.069z"/></mask><path fill-rule="evenodd" clip-rule="evenodd" d="M37.658 17.032l-7.995 13.067c-.881 1.419.15 3.267 1.827 3.267h15.969c1.676 0 2.708-1.848 1.827-3.267l-7.974-13.067a2.133 2.133 0 00-3.654 0zM51.4 38.092a8.6 8.6 0 100 17.199 8.6 8.6 0 000-17.2zM35.485 55.09H23.069A2.075 2.075 0 0121 53.021V40.607c0-1.138.931-2.069 2.07-2.069h12.415c1.138 0 2.07.931 2.07 2.07v12.415c0 1.138-.932 2.069-2.07 2.069z" fill="#fff" fill-opacity=".54"/><path d="M29.663 30.1l2.548 1.582.006-.008.005-.01-2.559-1.565zm7.995-13.068l2.56 1.565.002-.004-2.562-1.561zm11.628 13.067l-2.561 1.563.006.01.006.01 2.549-1.583zm-7.974-13.067l-2.562 1.56.001.002 2.56-1.562zm2.64 33.959l2.599-1.5-2.599 1.5zm14.896 0l-2.598-1.5 2.598 1.5zm0-8.6l-2.598 1.5 2.598-1.5zM32.222 31.665l7.995-13.068-5.118-3.131-7.995 13.067 5.118 3.132zm-.732-1.3c.659 0 1.09.722.721 1.317l-5.096-3.166c-2.132 3.432.363 7.85 4.375 7.85v-6zm15.969 0h-15.97v6h15.97v-6zm-.722 1.317a.855.855 0 01.722-1.316v6c4.011 0 6.507-4.418 4.375-7.85l-5.097 3.166zm-7.986-13.088l7.974 13.068 5.121-3.126-7.973-13.067-5.122 3.125zm1.469-.001a.867.867 0 01-1.47 0l5.124-3.123c-2.008-3.293-6.77-3.293-8.778 0l5.124 3.123zm6.33 25.298a5.6 5.6 0 014.85-2.8v-6a11.6 11.6 0 00-10.046 5.8l5.197 3zm0 5.6a5.6 5.6 0 010-5.6l-5.196-3a11.6 11.6 0 000 11.6l5.197-3zm4.85 2.8a5.6 5.6 0 01-4.85-2.8l-5.196 3a11.6 11.6 0 0010.046 5.8v-6zm4.85-2.8a5.6 5.6 0 01-4.85 2.8v6a11.6 11.6 0 0010.046-5.8l-5.196-3zm0-5.6a5.6 5.6 0 010 5.6l5.196 3a11.6 11.6 0 000-11.6l-5.196 3zm-4.85-2.8a5.6 5.6 0 014.85 2.8l5.196-3a11.6 11.6 0 00-10.046-5.8v6zm-28.33 17h12.415v-6H23.069v6zM18 53.021a5.075 5.075 0 005.07 5.07v-6c.518 0 .93.412.93.93h-6zm0-12.415v12.416h6V40.606h-6zm5.07-5.069a5.075 5.075 0 00-5.07 5.07h6c0 .518-.412.93-.93.93v-6zm12.415 0H23.069v6h12.416v-6zm5.07 5.07a5.075 5.075 0 00-5.07-5.07v6a.925.925 0 01-.93-.93h6zm0 12.415V40.606h-6v12.416h6zm-5.07 5.069a5.075 5.075 0 005.07-5.07h-6c0-.518.411-.93.93-.93v6z" fill="#EB850E" mask="url(#prefix__a)"/><path fill-rule="evenodd" clip-rule="evenodd" d="M5.207 5.207A10.95 10.95 0 0112.95 2H23.9a3.65 3.65 0 010 7.3H12.95a3.65 3.65 0 00-3.65 3.65V23.9a3.65 3.65 0 01-7.3 0V12.95a10.95 10.95 0 013.207-7.743zm44.243.443A3.65 3.65 0 0153.1 2h10.95A10.95 10.95 0 0175 12.95V23.9a3.65 3.65 0 01-7.3 0V12.95a3.65 3.65 0 00-3.65-3.65H53.1a3.65 3.65 0 01-3.65-3.65zm-43.8 43.8A3.65 3.65 0 019.3 53.1v10.95a3.65 3.65 0 003.65 3.65H23.9a3.65 3.65 0 010 7.3H12.95A10.95 10.95 0 012 64.05V53.1a3.65 3.65 0 013.65-3.65zm65.7 0A3.65 3.65 0 0175 53.1v10.95A10.95 10.95 0 0164.05 75H53.1a3.65 3.65 0 010-7.3h10.95a3.65 3.65 0 003.65-3.65V53.1a3.65 3.65 0 013.65-3.65z" fill="#EB850E" stroke="#fff" stroke-width="3" stroke-linecap="round" stroke-linejoin="round"/></svg>