<svg width="95" height="95" fill="none" xmlns="http://www.w3.org/2000/svg"><mask id="prefix__a" fill="#fff"><path fill-rule="evenodd" clip-rule="evenodd" d="M43.094 19.869a6.217 6.217 0 01-8.716 0c-2.426-2.377-2.426-6.338 0-8.765l9.607-9.656a4.931 4.931 0 016.982 0l9.656 9.656a6.187 6.187 0 010 8.765 6.217 6.217 0 01-8.715 0L47.5 15.511l-4.407 4.358zM75.13 43.093a6.217 6.217 0 010-8.716c2.377-2.426 6.338-2.426 8.765-.049l9.656 9.656a4.931 4.931 0 010 6.982l-9.656 9.656a6.187 6.187 0 01-8.765 0 6.217 6.217 0 010-8.715L79.49 47.5l-4.358-4.407zm-73.683.94l9.656-9.655c2.427-2.427 6.388-2.427 8.765 0a6.217 6.217 0 010 8.715L15.512 47.5l4.357 4.457a6.217 6.217 0 010 8.715 6.186 6.186 0 01-8.765 0l-9.656-9.656a4.931 4.931 0 010-6.982zM47.501 79.49l-4.407-4.358a6.217 6.217 0 00-8.716 0 6.187 6.187 0 000 8.765l9.656 9.656a4.931 4.931 0 006.982 0l9.656-9.656a6.187 6.187 0 000-8.765 6.217 6.217 0 00-8.715 0l-4.456 4.358z"/></mask><path fill-rule="evenodd" clip-rule="evenodd" d="M43.094 19.869a6.217 6.217 0 01-8.716 0c-2.426-2.377-2.426-6.338 0-8.765l9.607-9.656a4.931 4.931 0 016.982 0l9.656 9.656a6.187 6.187 0 010 8.765 6.217 6.217 0 01-8.715 0L47.5 15.511l-4.407 4.358zM75.13 43.093a6.217 6.217 0 010-8.716c2.377-2.426 6.338-2.426 8.765-.049l9.656 9.656a4.931 4.931 0 010 6.982l-9.656 9.656a6.187 6.187 0 01-8.765 0 6.217 6.217 0 010-8.715L79.49 47.5l-4.358-4.407zm-73.683.94l9.656-9.655c2.427-2.427 6.388-2.427 8.765 0a6.217 6.217 0 010 8.715L15.512 47.5l4.357 4.457a6.217 6.217 0 010 8.715 6.186 6.186 0 01-8.765 0l-9.656-9.656a4.931 4.931 0 010-6.982zM47.501 79.49l-4.407-4.358a6.217 6.217 0 00-8.716 0 6.187 6.187 0 000 8.765l9.656 9.656a4.931 4.931 0 006.982 0l9.656-9.656a6.187 6.187 0 000-8.765 6.217 6.217 0 00-8.715 0l-4.456 4.358z" fill="#EB850E"/><path d="M34.378 19.869l2.8-2.857-2.8 2.857zm8.716 0l2.799 2.857.006-.006.007-.007-2.812-2.844zm-8.716-8.765l2.829 2.829.007-.008-2.836-2.82zm9.607-9.656l-2.832-2.825-.004.004 2.836 2.821zm6.982 0l-2.832 2.826.004.003 2.828-2.829zm9.656 9.656l-2.828 2.829 2.828-2.829zm0 8.765l2.799 2.857.015-.014.014-.015-2.828-2.828zm-8.715 0l-2.813 2.844.007.007.007.006 2.799-2.857zM47.5 15.511l2.812-2.844-2.812-2.78-2.813 2.78 2.813 2.844zm27.63 18.866l-2.857-2.799 2.857 2.8zm0 8.716l-2.857 2.799.006.006.007.007 2.844-2.812zm8.765-8.765l2.828-2.829-.014-.014-.015-.014-2.8 2.857zm9.656 9.656l-2.829 2.828 2.829-2.828zm0 6.982l-2.829-2.828 2.829 2.828zm-9.656 9.656l2.828 2.828-2.828-2.828zm-8.765 0l-2.857 2.8.014.014.015.014 2.828-2.828zm0-8.715l-2.844-2.813-.007.007-.006.007 2.857 2.799zM79.49 47.5l2.844 2.812 2.78-2.812-2.78-2.813-2.844 2.813zM11.104 34.378l2.829 2.828-2.829-2.828zm-9.656 9.656l2.829 2.828-2.829-2.828zm18.421-9.656l-2.857 2.799 2.857-2.8zm0 8.715l2.844 2.812.007-.006.007-.007-2.858-2.8zM15.512 47.5l-2.845-2.812-2.765 2.796 2.75 2.812 2.86-2.796zm4.357 4.457l-2.86 2.796.003.003 2.857-2.8zm0 8.715l2.829 2.828.014-.014.015-.015-2.858-2.8zm-8.765 0l2.829-2.829-2.829 2.829zm-9.656-9.656l2.829-2.829-2.829 2.829zM43.094 75.13l2.812-2.844-.007-.007-.006-.006-2.8 2.857zM47.5 79.49l-2.813 2.844 2.797 2.765 2.812-2.75-2.796-2.86zM34.378 75.13l-2.799-2.857-.014.014-.015.015 2.828 2.828zm0 8.765l2.829-2.829-2.829 2.829zm9.656 9.656l2.829-2.829-2.829 2.829zm6.982 0l-2.828-2.829 2.828 2.829zm9.656-9.656l-2.828-2.829 2.828 2.829zm0-8.765l2.829-2.828-.015-.015-.014-.014-2.8 2.857zm-8.715 0l2.797 2.86.002-.002-2.799-2.858zM31.58 22.726a10.217 10.217 0 0014.314 0l-5.599-5.714a2.217 2.217 0 01-3.116 0l-5.599 5.714zm-.029-14.45c-3.972 3.972-4.015 10.49.03 14.45l5.598-5.714c-.81-.793-.852-2.199.029-3.08L31.55 8.277zm9.6-9.649l-9.607 9.656 5.671 5.643 9.607-9.657-5.672-5.642zM47.475-4a8.931 8.931 0 00-6.323 2.623l5.663 5.65a.931.931 0 01.66-.273v-8zm6.322 2.623A8.931 8.931 0 0047.476-4v8c.247 0 .485.098.66.274l5.662-5.65zm9.653 9.653L53.795-1.38l-5.657 5.657 9.657 9.656 5.656-5.657zm0 14.421a10.187 10.187 0 000-14.421l-5.657 5.657a2.187 2.187 0 010 3.108l5.657 5.656zm-14.342.03a10.217 10.217 0 0014.313 0l-5.598-5.715a2.217 2.217 0 01-3.117 0l-5.598 5.714zm-4.42-4.371l4.406 4.357 5.625-5.688-4.407-4.358-5.625 5.689zm1.217 4.357l4.407-4.357-5.625-5.689-4.407 4.358 5.625 5.688zm26.368 8.865a10.217 10.217 0 000 14.314l5.715-5.599a2.217 2.217 0 010-3.116l-5.715-5.599zm14.42-.107c-3.969-3.89-10.464-3.932-14.42.107l5.715 5.599c.797-.814 2.225-.856 3.108.008l5.598-5.715zm9.686 9.685L86.724 31.5l-5.657 5.656 9.656 9.656 5.657-5.656zm0 12.638a8.931 8.931 0 000-12.638l-5.657 5.656c.37.37.37.956 0 1.326l5.657 5.656zm-9.656 9.656l9.656-9.656-5.657-5.656-9.656 9.656 5.657 5.656zm-14.421 0a10.187 10.187 0 0014.421 0l-5.657-5.657a2.187 2.187 0 01-3.107 0l-5.657 5.657zm-.03-14.342a10.217 10.217 0 000 14.313l5.716-5.598a2.217 2.217 0 010-3.117l-5.715-5.598zm4.371-4.42l-4.357 4.406 5.688 5.625 4.358-4.407-5.689-5.625zm-4.357 1.217l4.357 4.407 5.689-5.625-4.358-4.407-5.688 5.625zM8.276 31.549l-9.656 9.656 5.657 5.657 9.656-9.656-5.657-5.657zm14.45.03c-3.96-4.044-10.478-4.002-14.45-.03l5.657 5.657c.88-.88 2.286-.838 3.079-.03l5.715-5.597zm0 14.313a10.217 10.217 0 000-14.313l-5.714 5.598a2.217 2.217 0 010 3.117l5.715 5.598zm-4.37 4.42l4.357-4.407-5.688-5.624-4.358 4.407 5.689 5.624zm4.373-1.152l-4.357-4.456-5.72 5.592 4.357 4.457 5.72-5.593zm-.002 14.31a10.217 10.217 0 000-14.313l-5.715 5.599a2.217 2.217 0 010 3.117l5.715 5.598zm-14.451.03a10.187 10.187 0 0014.422 0l-5.657-5.657a2.187 2.187 0 01-3.108 0L8.276 63.5zm-9.656-9.656L8.276 63.5l5.657-5.657-9.656-9.656-5.657 5.657zm0-12.639a8.931 8.931 0 000 12.64l5.657-5.658a.931.931 0 010-1.325l-5.657-5.657zm41.661 36.77l4.407 4.358 5.625-5.689-4.407-4.357-5.625 5.688zm-3.103.014a2.217 2.217 0 013.116 0l5.599-5.715a10.217 10.217 0 00-14.314 0l5.599 5.715zm.029 3.078a2.187 2.187 0 010-3.107l-5.657-5.657a10.186 10.186 0 000 14.421l5.657-5.657zm9.656 9.656l-9.656-9.656-5.657 5.657 9.656 9.656 5.657-5.657zm1.325 0a.931.931 0 01-1.325 0l-5.657 5.657a8.931 8.931 0 0012.639 0l-5.657-5.657zm9.656-9.656l-9.656 9.656 5.657 5.657 9.656-9.656-5.657-5.657zm0-3.107a2.187 2.187 0 010 3.107l5.657 5.657a10.186 10.186 0 000-14.421l-5.657 5.657zm-3.088.029a2.217 2.217 0 013.117 0l5.599-5.715a10.217 10.217 0 00-14.314 0l5.598 5.715zm-4.459 4.36l4.457-4.358-5.593-5.72-4.457 4.358 5.593 5.72z" fill="#fff" mask="url(#prefix__a)"/><path fill-rule="evenodd" clip-rule="evenodd" d="M47.5 32.645c-8.2 0-14.856 6.655-14.856 14.855s6.655 14.855 14.855 14.855S62.355 55.7 62.355 47.5 55.7 32.645 47.499 32.645zM46.013 59.28c-5.868-.728-10.399-5.719-10.399-11.78 0-.921.119-1.797.312-2.66l7.116 7.117v1.485a2.98 2.98 0 002.97 2.971v2.867zm7.427-5.838c1.337 0 2.437.862 2.823 2.065a11.82 11.82 0 003.12-8.007c0-4.977-3.075-9.24-7.428-11.008v.61a2.98 2.98 0 01-2.971 2.97h-2.971v2.971a1.49 1.49 0 01-1.486 1.486h-2.97V47.5h8.913a1.49 1.49 0 011.485 1.486v4.456h1.485z" fill="#EB850E"/></svg>