<svg width="83" height="83" viewBox="0 0 83 83" fill="none" xmlns="http://www.w3.org/2000/svg">
<mask id="path-1-inside-1" fill="white">
<path fill-rule="evenodd" clip-rule="evenodd" d="M12.1551 70.8449C8.66827 67.3581 7.66794 62.0394 8.76144 55.0608C3.05356 50.8993 0 46.4311 0 41.5C0 36.5689 3.05356 32.1007 8.76144 27.9392C7.66794 20.9606 8.66827 15.6419 12.1551 12.1551C15.6419 8.66827 20.9606 7.66794 27.9392 8.76144C32.1007 3.05356 36.5689 0 41.5 0C46.4311 0 50.8993 3.05356 55.0608 8.76144C62.0394 7.66794 67.3581 8.66827 70.8449 12.1551C74.3317 15.6419 75.3321 20.9606 74.2386 27.9392C79.9464 32.1007 83 36.5689 83 41.5C83 46.4311 79.9464 50.8993 74.2386 55.0608C75.3321 62.0394 74.3317 67.3581 70.8449 70.8449C67.3581 74.3317 62.0394 75.3321 55.0608 74.2386C50.8993 79.9464 46.4311 83 41.5 83C36.5689 83 32.1007 79.9464 27.9392 74.2386C20.9606 75.3321 15.6419 74.3317 12.1551 70.8449ZM28.871 66.3923C30.4024 66.0643 31.9773 66.7167 32.8282 68.0315C36.1511 73.1655 39.1141 75.4545 41.4998 75.4545C43.8856 75.4545 46.8486 73.1655 50.1715 68.0315C51.0224 66.7167 52.5973 66.0643 54.1287 66.3923C60.1086 67.673 63.8224 67.1964 65.5093 65.5094C67.1963 63.8224 67.6729 60.1087 66.3922 54.1288C66.0643 52.5973 66.7166 51.0225 68.0314 50.1715C73.1654 46.8487 75.4544 43.8857 75.4544 41.4999C75.4544 39.1142 73.1654 36.1512 68.0314 32.8283C66.7166 31.9773 66.0643 30.4025 66.3922 28.871C67.6729 22.8911 67.1963 19.1774 65.5093 17.4904C63.8224 15.8034 60.1086 15.3269 54.1287 16.6075C52.5973 16.9355 51.0224 16.2832 50.1715 14.9684C46.8486 9.83436 43.8856 7.54537 41.4998 7.54537C39.1141 7.54537 36.1511 9.83436 32.8282 14.9684C31.9773 16.2832 30.4024 16.9355 28.871 16.6075C22.891 15.3269 19.1773 15.8034 17.4904 17.4904C15.8034 19.1774 15.3268 22.8911 16.6075 28.871C16.9354 30.4025 16.2831 31.9773 14.9683 32.8283C9.83429 36.1512 7.5453 39.1142 7.5453 41.4999C7.5453 43.8857 9.83429 46.8487 14.9683 50.1715C16.2831 51.0225 16.9354 52.5973 16.6075 54.1288C15.3268 60.1087 15.8034 63.8224 17.4904 65.5094C19.1773 67.1964 22.891 67.673 28.871 66.3923ZM53.9236 27.5145L37.7277 43.7104L29.0772 35.0599L23.7418 40.3954L37.7277 54.3813L59.2591 32.8499L53.9236 27.5145Z"/>
</mask>
<path fill-rule="evenodd" clip-rule="evenodd" d="M12.1551 70.8449C8.66827 67.3581 7.66794 62.0394 8.76144 55.0608C3.05356 50.8993 0 46.4311 0 41.5C0 36.5689 3.05356 32.1007 8.76144 27.9392C7.66794 20.9606 8.66827 15.6419 12.1551 12.1551C15.6419 8.66827 20.9606 7.66794 27.9392 8.76144C32.1007 3.05356 36.5689 0 41.5 0C46.4311 0 50.8993 3.05356 55.0608 8.76144C62.0394 7.66794 67.3581 8.66827 70.8449 12.1551C74.3317 15.6419 75.3321 20.9606 74.2386 27.9392C79.9464 32.1007 83 36.5689 83 41.5C83 46.4311 79.9464 50.8993 74.2386 55.0608C75.3321 62.0394 74.3317 67.3581 70.8449 70.8449C67.3581 74.3317 62.0394 75.3321 55.0608 74.2386C50.8993 79.9464 46.4311 83 41.5 83C36.5689 83 32.1007 79.9464 27.9392 74.2386C20.9606 75.3321 15.6419 74.3317 12.1551 70.8449ZM28.871 66.3923C30.4024 66.0643 31.9773 66.7167 32.8282 68.0315C36.1511 73.1655 39.1141 75.4545 41.4998 75.4545C43.8856 75.4545 46.8486 73.1655 50.1715 68.0315C51.0224 66.7167 52.5973 66.0643 54.1287 66.3923C60.1086 67.673 63.8224 67.1964 65.5093 65.5094C67.1963 63.8224 67.6729 60.1087 66.3922 54.1288C66.0643 52.5973 66.7166 51.0225 68.0314 50.1715C73.1654 46.8487 75.4544 43.8857 75.4544 41.4999C75.4544 39.1142 73.1654 36.1512 68.0314 32.8283C66.7166 31.9773 66.0643 30.4025 66.3922 28.871C67.6729 22.8911 67.1963 19.1774 65.5093 17.4904C63.8224 15.8034 60.1086 15.3269 54.1287 16.6075C52.5973 16.9355 51.0224 16.2832 50.1715 14.9684C46.8486 9.83436 43.8856 7.54537 41.4998 7.54537C39.1141 7.54537 36.1511 9.83436 32.8282 14.9684C31.9773 16.2832 30.4024 16.9355 28.871 16.6075C22.891 15.3269 19.1773 15.8034 17.4904 17.4904C15.8034 19.1774 15.3268 22.8911 16.6075 28.871C16.9354 30.4025 16.2831 31.9773 14.9683 32.8283C9.83429 36.1512 7.5453 39.1142 7.5453 41.4999C7.5453 43.8857 9.83429 46.8487 14.9683 50.1715C16.2831 51.0225 16.9354 52.5973 16.6075 54.1288C15.3268 60.1087 15.8034 63.8224 17.4904 65.5094C19.1773 67.1964 22.891 67.673 28.871 66.3923ZM53.9236 27.5145L37.7277 43.7104L29.0772 35.0599L23.7418 40.3954L37.7277 54.3813L59.2591 32.8499L53.9236 27.5145Z" fill="#EB850E"/>
<path d="M8.76144 55.0608L10.2434 55.293L10.3851 54.3882L9.64512 53.8487L8.76144 55.0608ZM8.76144 27.9392L9.64512 29.1513L10.3851 28.6118L10.2434 27.707L8.76144 27.9392ZM27.9392 8.76144L27.707 10.2434L28.6118 10.3851L29.1513 9.64512L27.9392 8.76144ZM55.0608 8.76144L53.8487 9.64512L54.3882 10.3851L55.293 10.2434L55.0608 8.76144ZM74.2386 27.9392L72.7566 27.707L72.6149 28.6118L73.3549 29.1513L74.2386 27.9392ZM74.2386 55.0608L73.3549 53.8487L72.6149 54.3882L72.7566 55.293L74.2386 55.0608ZM55.0608 74.2386L55.293 72.7566L54.3882 72.6149L53.8487 73.3549L55.0608 74.2386ZM27.9392 74.2386L29.1513 73.3549L28.6118 72.6149L27.707 72.7566L27.9392 74.2386ZM32.8282 68.0315L34.0875 67.2164L32.8282 68.0315ZM28.871 66.3923L29.1851 67.8591L28.871 66.3923ZM50.1715 68.0315L48.9122 67.2164L50.1715 68.0315ZM54.1287 66.3923L53.8146 67.8591H53.8146L54.1287 66.3923ZM65.5093 65.5094L66.57 66.5701L65.5093 65.5094ZM66.3922 54.1288L67.859 53.8147V53.8147L66.3922 54.1288ZM68.0314 50.1715L67.2164 48.9123L68.0314 50.1715ZM68.0314 32.8283L67.2164 34.0876L68.0314 32.8283ZM66.3922 28.871L67.859 29.1851L66.3922 28.871ZM65.5093 17.4904L66.57 16.4298V16.4298L65.5093 17.4904ZM54.1287 16.6075L54.4429 18.0743L54.1287 16.6075ZM50.1715 14.9684L48.9122 15.7834V15.7834L50.1715 14.9684ZM32.8282 14.9684L34.0875 15.7834V15.7834L32.8282 14.9684ZM28.871 16.6075L28.5568 18.0743H28.5568L28.871 16.6075ZM16.6075 28.871L18.0742 28.5569V28.5569L16.6075 28.871ZM14.9683 32.8283L15.7833 34.0876L14.9683 32.8283ZM14.9683 50.1715L15.7833 48.9123H15.7833L14.9683 50.1715ZM16.6075 54.1288L18.0742 54.4429L16.6075 54.1288ZM17.4904 65.5094L16.4297 66.5701H16.4297L17.4904 65.5094ZM37.7277 43.7104L36.667 44.771L37.7277 45.8317L38.7884 44.771L37.7277 43.7104ZM53.9236 27.5145L54.9843 26.4538L53.9236 25.3931L52.863 26.4538L53.9236 27.5145ZM29.0772 35.0599L30.1379 33.9993L29.0772 32.9386L28.0166 33.9993L29.0772 35.0599ZM23.7418 40.3954L22.6811 39.3347L21.6205 40.3954L22.6811 41.456L23.7418 40.3954ZM37.7277 54.3813L36.667 55.4419L37.7277 56.5026L38.7884 55.4419L37.7277 54.3813ZM59.2591 32.8499L60.3197 33.9106L61.3804 32.8499L60.3197 31.7892L59.2591 32.8499ZM7.27952 54.8286C6.15396 62.0118 7.11376 67.9249 11.0944 71.9056L13.2157 69.7843C10.2228 66.7913 9.18192 62.067 10.2434 55.293L7.27952 54.8286ZM-1.5 41.5C-1.5 47.1295 2.00252 51.9894 7.87776 56.2728L9.64512 53.8487C4.10459 49.8093 1.5 45.7327 1.5 41.5H-1.5ZM7.87776 26.7272C2.00252 31.0106 -1.5 35.8705 -1.5 41.5H1.5C1.5 37.2673 4.10459 33.1907 9.64512 29.1513L7.87776 26.7272ZM11.0944 11.0944C7.11376 15.0751 6.15396 20.9882 7.27952 28.1714L10.2434 27.707C9.18192 20.933 10.2228 16.2087 13.2157 13.2157L11.0944 11.0944ZM28.1714 7.27952C20.9882 6.15396 15.0751 7.11376 11.0944 11.0944L13.2157 13.2157C16.2087 10.2228 20.933 9.18192 27.707 10.2434L28.1714 7.27952ZM41.5 -1.5C35.8705 -1.5 31.0106 2.00252 26.7272 7.87776L29.1513 9.64512C33.1907 4.10459 37.2673 1.5 41.5 1.5V-1.5ZM56.2728 7.87776C51.9894 2.00252 47.1295 -1.5 41.5 -1.5V1.5C45.7327 1.5 49.8093 4.10459 53.8487 9.64512L56.2728 7.87776ZM71.9056 11.0944C67.9249 7.11376 62.0118 6.15396 54.8286 7.27952L55.293 10.2434C62.067 9.18192 66.7913 10.2228 69.7843 13.2157L71.9056 11.0944ZM75.7205 28.1714C76.846 20.9882 75.8862 15.0751 71.9056 11.0944L69.7843 13.2157C72.7772 16.2087 73.8181 20.933 72.7566 27.707L75.7205 28.1714ZM84.5 41.5C84.5 35.8705 80.9975 31.0106 75.1222 26.7272L73.3549 29.1513C78.8954 33.1907 81.5 37.2673 81.5 41.5H84.5ZM75.1222 56.2728C80.9975 51.9894 84.5 47.1295 84.5 41.5H81.5C81.5 45.7327 78.8954 49.8093 73.3549 53.8487L75.1222 56.2728ZM71.9056 71.9056C75.8862 67.9249 76.846 62.0118 75.7205 54.8286L72.7566 55.293C73.8181 62.067 72.7772 66.7913 69.7843 69.7843L71.9056 71.9056ZM54.8286 75.7205C62.0118 76.846 67.9249 75.8862 71.9056 71.9056L69.7843 69.7843C66.7913 72.7772 62.067 73.8181 55.293 72.7566L54.8286 75.7205ZM41.5 84.5C47.1295 84.5 51.9894 80.9975 56.2728 75.1222L53.8487 73.3549C49.8093 78.8954 45.7327 81.5 41.5 81.5V84.5ZM26.7272 75.1222C31.0106 80.9975 35.8705 84.5 41.5 84.5V81.5C37.2673 81.5 33.1907 78.8954 29.1513 73.3549L26.7272 75.1222ZM11.0944 71.9056C15.0751 75.8862 20.9882 76.846 28.1714 75.7205L27.707 72.7566C20.933 73.8181 16.2087 72.7772 13.2157 69.7843L11.0944 71.9056ZM34.0875 67.2164C32.8982 65.3789 30.6972 64.4672 28.5568 64.9256L29.1851 67.8591C30.1076 67.6615 31.0563 68.0544 31.569 68.8465L34.0875 67.2164ZM41.4998 73.9545C40.7917 73.9545 39.7854 73.6091 38.4767 72.5167C37.1787 71.4331 35.7019 69.7107 34.0875 67.2164L31.569 68.8465C33.2775 71.4862 34.9436 73.4753 36.5542 74.8197C38.1542 76.1553 39.8223 76.9545 41.4998 76.9545V73.9545ZM48.9122 67.2164C47.2978 69.7107 45.821 71.4331 44.523 72.5167C43.2143 73.6091 42.208 73.9545 41.4998 73.9545V76.9545C43.1774 76.9545 44.8455 76.1553 46.4455 74.8197C48.0561 73.4753 49.7222 71.4862 51.4307 68.8465L48.9122 67.2164ZM54.4429 64.9256C52.3025 64.4672 50.1015 65.3789 48.9122 67.2164L51.4307 68.8465C51.9434 68.0544 52.8921 67.6615 53.8146 67.8591L54.4429 64.9256ZM64.4487 64.4487C63.9479 64.9495 62.9922 65.4168 61.2943 65.5698C59.6103 65.7214 57.3481 65.5478 54.4429 64.9256L53.8146 67.8591C56.8893 68.5175 59.4739 68.7459 61.5634 68.5577C63.6392 68.3707 65.3838 67.7563 66.57 66.5701L64.4487 64.4487ZM64.9255 54.4429C65.5477 57.3482 65.7214 59.6104 65.5697 61.2944C65.4168 62.9922 64.9494 63.948 64.4487 64.4487L66.57 66.5701C67.7562 65.3838 68.3707 63.6392 68.5576 61.5635C68.7458 59.474 68.5175 56.8894 67.859 53.8147L64.9255 54.4429ZM67.2164 48.9123C65.3788 50.1016 64.4671 52.3026 64.9255 54.4429L67.859 53.8147C67.6614 52.8921 68.0544 51.9434 68.8464 51.4308L67.2164 48.9123ZM73.9544 41.4999C73.9544 42.2081 73.609 43.2144 72.5166 44.5231C71.4331 45.8211 69.7106 47.2979 67.2164 48.9123L68.8464 51.4308C71.4862 49.7223 73.4752 48.0561 74.8197 46.4455C76.1552 44.8456 76.9544 43.1775 76.9544 41.4999H73.9544ZM67.2164 34.0876C69.7106 35.7019 71.4331 37.1787 72.5166 38.4768C73.609 39.7855 73.9544 40.7918 73.9544 41.4999H76.9544C76.9544 39.8223 76.1552 38.1543 74.8197 36.5543C73.4752 34.9437 71.4862 33.2776 68.8464 31.569L67.2164 34.0876ZM64.9255 28.5569C64.4671 30.6973 65.3788 32.8982 67.2164 34.0876L68.8464 31.569C68.0544 31.0564 67.6614 30.1077 67.859 29.1851L64.9255 28.5569ZM64.4487 18.5511C64.9494 19.0518 65.4168 20.0076 65.5697 21.7054C65.7214 23.3895 65.5477 25.6517 64.9255 28.5569L67.859 29.1851C68.5175 26.1105 68.7458 23.5259 68.5576 21.4363C68.3707 19.3606 67.7562 17.616 66.57 16.4298L64.4487 18.5511ZM54.4429 18.0743C57.3481 17.4521 59.6103 17.2784 61.2943 17.4301C62.9922 17.583 63.9479 18.0503 64.4487 18.5511L66.57 16.4298C65.3838 15.2435 63.6392 14.6291 61.5634 14.4422C59.4739 14.254 56.8893 14.4823 53.8146 15.1408L54.4429 18.0743ZM48.9122 15.7834C50.1015 17.621 52.3025 18.5326 54.4429 18.0743L53.8146 15.1408C52.8921 15.3384 51.9434 14.9454 51.4307 14.1533L48.9122 15.7834ZM41.4998 9.04537C42.208 9.04537 43.2143 9.39072 44.523 10.4831C45.821 11.5667 47.2978 13.2891 48.9122 15.7834L51.4307 14.1533C49.7222 11.5136 48.0561 9.52454 46.4455 8.18009C44.8455 6.84452 43.1774 6.04537 41.4998 6.04537V9.04537ZM34.0875 15.7834C35.7019 13.2891 37.1787 11.5667 38.4767 10.4831C39.7854 9.39072 40.7917 9.04537 41.4998 9.04537V6.04537C39.8223 6.04537 38.1542 6.84452 36.5542 8.18009C34.9436 9.52454 33.2775 11.5136 31.569 14.1533L34.0875 15.7834ZM28.5568 18.0743C30.6972 18.5326 32.8982 17.621 34.0875 15.7834L31.569 14.1533C31.0563 14.9454 30.1076 15.3384 29.1851 15.1408L28.5568 18.0743ZM18.551 18.5511C19.0518 18.0503 20.0075 17.583 21.7054 17.4301C23.3894 17.2784 25.6516 17.4521 28.5568 18.0743L29.1851 15.1408C26.1104 14.4823 23.5258 14.254 21.4363 14.4422C19.3605 14.6291 17.6159 15.2435 16.4297 16.4298L18.551 18.5511ZM18.0742 28.5569C17.452 25.6517 17.2783 23.3895 17.43 21.7054C17.5829 20.0076 18.0503 19.0518 18.551 18.5511L16.4297 16.4298C15.2435 17.616 14.629 19.3606 14.4421 21.4363C14.2539 23.5259 14.4822 26.1105 15.1407 29.1851L18.0742 28.5569ZM15.7833 34.0876C17.6209 32.8982 18.5326 30.6973 18.0742 28.5569L15.1407 29.1851C15.3383 30.1077 14.9453 31.0564 14.1533 31.569L15.7833 34.0876ZM9.0453 41.4999C9.0453 40.7918 9.39065 39.7855 10.4831 38.4768C11.5666 37.1787 13.289 35.7019 15.7833 34.0876L14.1533 31.569C11.5135 33.2776 9.52447 34.9437 8.18002 36.5543C6.84445 38.1543 6.0453 39.8223 6.0453 41.4999H9.0453ZM15.7833 48.9123C13.289 47.2979 11.5666 45.8211 10.4831 44.5231C9.39065 43.2144 9.0453 42.2081 9.0453 41.4999H6.0453C6.0453 43.1775 6.84445 44.8456 8.18002 46.4455C9.52447 48.0561 11.5135 49.7223 14.1533 51.4308L15.7833 48.9123ZM18.0742 54.4429C18.5326 52.3026 17.6209 50.1016 15.7833 48.9123L14.1533 51.4308C14.9453 51.9434 15.3383 52.8921 15.1407 53.8147L18.0742 54.4429ZM18.551 64.4487C18.0503 63.948 17.5829 62.9922 17.43 61.2944C17.2783 59.6104 17.452 57.3482 18.0742 54.4429L15.1407 53.8147C14.4822 56.8894 14.2539 59.474 14.4421 61.5635C14.629 63.6392 15.2435 65.3838 16.4297 66.5701L18.551 64.4487ZM28.5568 64.9256C25.6516 65.5478 23.3894 65.7214 21.7054 65.5698C20.0075 65.4168 19.0518 64.9495 18.551 64.4487L16.4297 66.5701C17.6159 67.7563 19.3605 68.3707 21.4363 68.5577C23.5258 68.7459 26.1104 68.5175 29.1851 67.8591L28.5568 64.9256ZM38.7884 44.771L54.9843 28.5751L52.863 26.4538L36.667 42.6497L38.7884 44.771ZM28.0166 36.1206L36.667 44.771L38.7884 42.6497L30.1379 33.9993L28.0166 36.1206ZM24.8025 41.456L30.1379 36.1206L28.0166 33.9993L22.6811 39.3347L24.8025 41.456ZM38.7884 53.3206L24.8025 39.3347L22.6811 41.456L36.667 55.4419L38.7884 53.3206ZM58.1984 31.7892L36.667 53.3206L38.7884 55.4419L60.3197 33.9106L58.1984 31.7892ZM52.863 28.5751L58.1984 33.9106L60.3197 31.7892L54.9843 26.4538L52.863 28.5751Z" fill="white" mask="url(#path-1-inside-1)"/>
</svg>
