<svg width="83" height="83" fill="none" xmlns="http://www.w3.org/2000/svg"><mask id="prefix__a" fill="#fff"><path fill-rule="evenodd" clip-rule="evenodd" d="M12.155 70.845c-3.487-3.487-4.487-8.806-3.394-15.784C3.054 50.899 0 46.43 0 41.5c0-4.931 3.054-9.4 8.761-13.56-1.093-6.98-.093-12.298 3.394-15.785s8.806-4.487 15.784-3.394C32.101 3.054 36.57 0 41.5 0c4.931 0 9.4 3.054 13.56 8.761 6.98-1.093 12.298-.093 15.785 3.394s4.487 8.806 3.394 15.784C79.946 32.101 83 36.57 83 41.5c0 4.931-3.054 9.4-8.761 13.56 1.093 6.98.093 12.298-3.394 15.785s-8.806 4.487-15.784 3.394C50.899 79.946 46.43 83 41.5 83c-4.931 0-9.4-3.054-13.56-8.761-6.98 1.093-12.298.093-15.785-3.394zm16.716-4.453a3.773 3.773 0 013.957 1.64c3.323 5.133 6.286 7.422 8.672 7.422 2.386 0 5.349-2.288 8.672-7.422a3.773 3.773 0 013.957-1.64c5.98 1.281 9.693.804 11.38-.883 1.687-1.687 2.164-5.4.883-11.38a3.773 3.773 0 011.64-3.957c5.133-3.323 7.422-6.286 7.422-8.672 0-2.386-2.289-5.349-7.423-8.672a3.773 3.773 0 01-1.639-3.957c1.28-5.98.804-9.694-.883-11.38-1.687-1.688-5.4-2.164-11.38-.883a3.773 3.773 0 01-3.957-1.64c-3.323-5.134-6.286-7.423-8.672-7.423-2.386 0-5.349 2.29-8.672 7.423a3.773 3.773 0 01-3.957 1.64c-5.98-1.281-9.694-.805-11.38.882-1.688 1.687-2.164 5.401-.883 11.381a3.773 3.773 0 01-1.64 3.957c-5.134 3.323-7.423 6.286-7.423 8.672 0 2.386 2.29 5.349 7.423 8.672a3.773 3.773 0 011.64 3.957c-1.281 5.98-.805 9.693.882 11.38 1.687 1.687 5.401 2.164 11.381.883zm25.053-38.877L37.728 43.71l-8.65-8.65-5.336 5.335 13.986 13.986L59.259 32.85l-5.335-5.335z"/></mask><path fill-rule="evenodd" clip-rule="evenodd" d="M12.155 70.845c-3.487-3.487-4.487-8.806-3.394-15.784C3.054 50.899 0 46.43 0 41.5c0-4.931 3.054-9.4 8.761-13.56-1.093-6.98-.093-12.298 3.394-15.785s8.806-4.487 15.784-3.394C32.101 3.054 36.57 0 41.5 0c4.931 0 9.4 3.054 13.56 8.761 6.98-1.093 12.298-.093 15.785 3.394s4.487 8.806 3.394 15.784C79.946 32.101 83 36.57 83 41.5c0 4.931-3.054 9.4-8.761 13.56 1.093 6.98.093 12.298-3.394 15.785s-8.806 4.487-15.784 3.394C50.899 79.946 46.43 83 41.5 83c-4.931 0-9.4-3.054-13.56-8.761-6.98 1.093-12.298.093-15.785-3.394zm16.716-4.453a3.773 3.773 0 013.957 1.64c3.323 5.133 6.286 7.422 8.672 7.422 2.386 0 5.349-2.288 8.672-7.422a3.773 3.773 0 013.957-1.64c5.98 1.281 9.693.804 11.38-.883 1.687-1.687 2.164-5.4.883-11.38a3.773 3.773 0 011.64-3.957c5.133-3.323 7.422-6.286 7.422-8.672 0-2.386-2.289-5.349-7.423-8.672a3.773 3.773 0 01-1.639-3.957c1.28-5.98.804-9.694-.883-11.38-1.687-1.688-5.4-2.164-11.38-.883a3.773 3.773 0 01-3.957-1.64c-3.323-5.134-6.286-7.423-8.672-7.423-2.386 0-5.349 2.29-8.672 7.423a3.773 3.773 0 01-3.957 1.64c-5.98-1.281-9.694-.805-11.38.882-1.688 1.687-2.164 5.401-.883 11.381a3.773 3.773 0 01-1.64 3.957c-5.134 3.323-7.423 6.286-7.423 8.672 0 2.386 2.29 5.349 7.423 8.672a3.773 3.773 0 011.64 3.957c-1.281 5.98-.805 9.693.882 11.38 1.687 1.687 5.401 2.164 11.381.883zm25.053-38.877L37.728 43.71l-8.65-8.65-5.336 5.335 13.986 13.986L59.259 32.85l-5.335-5.335z" fill="#EB850E"/><path d="M8.761 55.06l1.482.233.142-.905-.74-.54-.884 1.213zm0-27.12l.884 1.211.74-.54-.142-.904-1.482.232zM27.94 8.76l-.232 1.482.905.142.54-.74-1.213-.884zm27.122 0l-1.212.884.54.74.904-.142-.232-1.482zM74.239 27.94l-1.482-.232-.142.905.74.54.884-1.213zm0 27.122l-.884-1.212-.74.54.142.904 1.482-.232zM55.06 74.239l.232-1.482-.905-.142-.54.74 1.213.884zm-27.122 0l1.212-.884-.54-.74-.904.142.232 1.482zm4.89-6.208l1.258-.815-1.259.816zm-3.958-1.639l.314 1.467-.314-1.467zm21.3 1.64l-1.259-.816 1.26.816zm3.958-1.64l-.314 1.467.314-1.467zm11.38-.883l1.061 1.061-1.06-1.06zm.883-11.38l1.467-.314-1.467.314zm1.64-3.957l-.816-1.26.815 1.26zm0-17.344l-.816 1.26.815-1.26zm-1.64-3.957l1.467.314-1.467-.314zm-.883-11.38l1.061-1.061-1.06 1.06zm-11.38-.883l.314 1.466-.314-1.466zm-3.957-1.64l-1.26.815 1.26-.815zm-17.344 0l1.26.815-1.26-.815zm-3.957 1.64l-.314 1.466.314-1.466zM16.608 28.87l1.466-.314-1.466.314zm-1.64 3.957l.815 1.26-.815-1.26zm0 17.343l.815-1.259-.815 1.26zm1.64 3.958l1.466.314-1.466-.314zm.882 11.38l-1.06 1.061 1.06-1.06zM37.728 43.71l-1.061 1.061 1.06 1.06 1.061-1.06-1.06-1.06zm16.196-16.195l1.06-1.061-1.06-1.06-1.061 1.06 1.06 1.06zM29.077 35.06l1.06-1.06-1.06-1.061-1.06 1.06 1.06 1.06zm-5.335 5.335l-1.06-1.06-1.061 1.06 1.06 1.061 1.06-1.06zm13.986 13.986l-1.061 1.06 1.06 1.062 1.061-1.061-1.06-1.06zM59.259 32.85l1.06 1.06 1.061-1.06-1.06-1.06-1.06 1.06zM7.28 54.829c-1.125 7.183-.165 13.096 3.815 17.077l2.122-2.122c-2.993-2.993-4.034-7.717-2.973-14.491l-2.963-.464zM-1.5 41.5c0 5.63 3.503 10.49 9.378 14.773l1.767-2.424C4.105 49.809 1.5 45.733 1.5 41.5h-3zm9.378-14.773C2.003 31.011-1.5 35.87-1.5 41.5h3c0-4.233 2.605-8.31 8.145-12.349l-1.767-2.424zm3.216-15.633c-3.98 3.981-4.94 9.894-3.814 17.077l2.963-.464c-1.061-6.774-.02-11.498 2.973-14.491l-2.122-2.122zM28.171 7.28c-7.183-1.126-13.096-.166-17.077 3.814l2.122 2.122c2.993-2.993 7.717-4.034 14.491-2.973l.464-2.963zM41.5-1.5c-5.63 0-10.49 3.503-14.773 9.378l2.424 1.767C33.191 4.105 37.267 1.5 41.5 1.5v-3zm14.773 9.378C51.989 2.003 47.129-1.5 41.5-1.5v3c4.233 0 8.31 2.605 12.349 8.145l2.424-1.767zm15.633 3.216c-3.981-3.98-9.894-4.94-17.077-3.814l.464 2.963c6.774-1.061 11.498-.02 14.491 2.973l2.122-2.122zm3.814 17.077c1.126-7.183.166-13.096-3.814-17.077l-2.122 2.122c2.993 2.993 4.034 7.717 2.973 14.491l2.963.464zM84.5 41.5c0-5.63-3.502-10.49-9.378-14.773l-1.767 2.424c5.54 4.04 8.145 8.116 8.145 12.349h3zm-9.378 14.773C80.998 51.989 84.5 47.129 84.5 41.5h-3c0 4.233-2.605 8.31-8.145 12.349l1.767 2.424zm-3.216 15.633c3.98-3.981 4.94-9.894 3.814-17.077l-2.963.464c1.061 6.774.02 11.498-2.973 14.491l2.122 2.122zM54.829 75.72c7.183 1.126 13.096.166 17.077-3.814l-2.122-2.122c-2.993 2.993-7.717 4.034-14.491 2.973l-.464 2.963zM41.5 84.5c5.63 0 10.49-3.502 14.773-9.378l-2.424-1.767c-4.04 5.54-8.116 8.145-12.349 8.145v3zm-14.773-9.378C31.011 80.998 35.87 84.5 41.5 84.5v-3c-4.233 0-8.31-2.605-12.349-8.145l-2.424 1.767zm-15.633-3.216c3.981 3.98 9.894 4.94 17.077 3.814l-.464-2.963c-6.774 1.061-11.498.02-14.491-2.973l-2.122 2.122zm22.993-4.69a5.273 5.273 0 00-5.53-2.29l.628 2.933a2.273 2.273 0 012.384.988l2.518-1.63zm7.413 6.739c-.708 0-1.715-.346-3.023-1.438-1.298-1.084-2.775-2.806-4.39-5.3l-2.518 1.63c1.709 2.64 3.375 4.628 4.985 5.973 1.6 1.335 3.268 2.135 4.946 2.135v-3zm7.412-6.739c-1.614 2.495-3.091 4.217-4.389 5.3-1.309 1.093-2.315 1.438-3.023 1.438v3c1.677 0 3.346-.799 4.946-2.134 1.61-1.345 3.276-3.334 4.985-5.973l-2.519-1.63zm5.53-2.29a5.273 5.273 0 00-5.53 2.29l2.519 1.63a2.273 2.273 0 012.384-.987l.628-2.933zm10.007-.477c-.501.5-1.457.968-3.155 1.12-1.684.152-3.946-.021-6.851-.643l-.628 2.933c3.074.659 5.659.887 7.748.699 2.076-.187 3.82-.802 5.007-1.988l-2.121-2.121zm.477-10.006c.622 2.905.795 5.167.644 6.851-.153 1.698-.62 2.654-1.121 3.155l2.121 2.121c1.186-1.186 1.8-2.93 1.988-5.006.188-2.09-.04-4.675-.699-7.75l-2.933.629zm2.29-5.53a5.273 5.273 0 00-2.29 5.53l2.933-.628a2.273 2.273 0 01.987-2.384l-1.63-2.519zm6.738-7.413c0 .708-.345 1.714-1.437 3.023-1.084 1.298-2.806 2.775-5.3 4.39l1.63 2.518c2.64-1.709 4.628-3.375 5.973-4.985 1.335-1.6 2.134-3.268 2.134-4.946h-3zm-6.738-7.412c2.495 1.614 4.217 3.09 5.3 4.389 1.093 1.309 1.438 2.315 1.438 3.023h3c0-1.678-.799-3.346-2.134-4.946-1.345-1.61-3.334-3.276-5.974-4.985l-1.63 2.519zm-2.29-5.531a5.273 5.273 0 002.29 5.53l1.63-2.518a2.273 2.273 0 01-.987-2.384l-2.933-.628zm-.477-10.006c.5.5.968 1.457 1.12 3.154.152 1.685-.021 3.947-.644 6.852l2.934.628c.659-3.075.887-5.66.699-7.749-.187-2.075-.802-3.82-1.988-5.006l-2.121 2.121zm-10.006-.477c2.905-.622 5.167-.796 6.851-.644 1.698.153 2.654.62 3.155 1.121l2.121-2.121c-1.186-1.187-2.93-1.8-5.007-1.988-2.09-.188-4.674.04-7.748.699l.628 2.933zm-5.53-2.29a5.273 5.273 0 005.53 2.29l-.628-2.933a2.273 2.273 0 01-2.384-.988l-2.519 1.63zM41.5 9.044c.708 0 1.714.346 3.023 1.438 1.298 1.084 2.775 2.806 4.39 5.3l2.518-1.63c-1.709-2.64-3.375-4.628-4.985-5.973-1.6-1.335-3.269-2.135-4.946-2.135v3zm-7.413 6.738c1.615-2.494 3.092-4.216 4.39-5.3 1.308-1.092 2.315-1.438 3.023-1.438v-3c-1.678 0-3.346.8-4.946 2.135-1.61 1.345-3.276 3.334-4.985 5.973l2.518 1.63zm-5.53 2.291a5.273 5.273 0 005.53-2.29l-2.518-1.63a2.273 2.273 0 01-2.384.987l-.628 2.933zm-10.006.477c.5-.5 1.457-.968 3.154-1.12 1.684-.153 3.947.021 6.852.643l.628-2.933c-3.075-.659-5.66-.887-7.749-.699-2.076.187-3.82.801-5.006 1.988l2.121 2.121zm-.477 10.006c-.622-2.905-.796-5.167-.644-6.852.153-1.697.62-2.653 1.121-3.154L16.43 16.43c-1.187 1.186-1.801 2.93-1.988 5.006-.188 2.09.04 4.674.699 7.75l2.933-.63zm-2.29 5.53a5.273 5.273 0 002.29-5.53l-2.933.628a2.273 2.273 0 01-.988 2.384l1.63 2.519zM9.044 41.5c0-.708.346-1.715 1.438-3.023 1.084-1.298 2.806-2.775 5.3-4.39l-1.63-2.518c-2.64 1.709-4.629 3.375-5.973 4.985-1.336 1.6-2.135 3.268-2.135 4.946h3zm6.738 7.412c-2.494-1.614-4.216-3.09-5.3-4.389-1.092-1.309-1.438-2.315-1.438-3.023h-3c0 1.678.8 3.346 2.135 4.946 1.344 1.61 3.334 3.276 5.973 4.985l1.63-2.519zm2.291 5.53a5.273 5.273 0 00-2.29-5.53l-1.63 2.519a2.273 2.273 0 01.987 2.384l2.933.628zm.477 10.007c-.5-.501-.968-1.457-1.121-3.155-.152-1.684.022-3.946.644-6.851l-2.933-.628c-.659 3.074-.887 5.659-.699 7.748.187 2.076.801 3.82 1.988 5.007l2.121-2.121zm10.006.477c-2.905.622-5.168.795-6.852.644-1.697-.153-2.653-.62-3.154-1.121L16.43 66.57c1.186 1.186 2.93 1.8 5.006 1.988 2.09.188 4.674-.04 7.75-.699l-.63-2.933zM38.788 44.77l16.196-16.196-2.121-2.121L36.667 42.65l2.121 2.121zm-10.771-8.65l8.65 8.65 2.121-2.121-8.65-8.65-2.121 2.12zm-3.215 5.335l5.336-5.335-2.121-2.122-5.336 5.336 2.121 2.121zm13.986 11.865L24.803 39.335l-2.122 2.121 13.986 13.986 2.121-2.121zm19.41-21.532L36.667 53.321l2.121 2.12 21.532-21.53-2.122-2.122zm-5.335-3.214l5.335 5.336 2.122-2.122-5.336-5.335-2.121 2.121z" fill="#fff" mask="url(#prefix__a)"/></svg>