<svg width="82" height="86" fill="none" xmlns="http://www.w3.org/2000/svg"><path d="M7.66 10.501l-1.332-2.95a.843.843 0 00-1.535 0L3.461 10.5.493 11.833a.843.843 0 000 1.535L3.444 14.7l1.332 2.968a.843.843 0 001.535 0l1.332-2.951 2.968-1.332a.843.843 0 000-1.535L7.66 10.501zM15.569 2.593L14.557.367c-.22-.49-.927-.49-1.164 0l-1.011 2.226-2.226 1.011c-.49.22-.49.928 0 1.164l2.226 1.012 1.011 2.226c.22.489.928.489 1.164 0l1.012-2.226 2.226-1.012c.489-.22.489-.928 0-1.164l-2.226-1.011z" fill="#EB850E"/><path fill-rule="evenodd" clip-rule="evenodd" d="M22.841 8.432c4.706 0 8.709 3.007 10.193 7.204H64.27c8.953 0 16.211 7.259 16.211 16.212S73.223 48.059 64.27 48.059H24.642a9.006 9.006 0 100 18.013H35.76L31.1 61.413l5.095-5.095 13.355 13.355-13.355 13.355-5.095-5.095 4.658-4.657H24.642c-8.953 0-16.21-7.259-16.21-16.212s7.257-16.211 16.21-16.211H64.27a9.006 9.006 0 000-18.012H33.034c-1.484 4.197-5.487 7.205-10.193 7.205-5.969 0-10.807-4.84-10.807-10.808 0-5.969 4.838-10.807 10.807-10.807z" fill="#EB850E"/><path d="M33.034 15.636v1.5h-1.061l-.354-1 1.415-.5zm2.725 50.436l1.06-1.061 2.561 2.56H35.76v-1.5zM31.1 61.413l-1.06 1.06-1.061-1.06 1.06-1.06 1.061 1.06zm5.095-5.095l-1.06-1.06 1.06-1.061 1.06 1.06-1.06 1.061zm13.355 13.355l1.06-1.06 1.061 1.06-1.06 1.06-1.061-1.06zM36.196 83.029l1.06 1.06-1.06 1.061-1.06-1.06 1.06-1.061zm-5.095-5.095l-1.06 1.06-1.061-1.06 1.06-1.06 1.061 1.06zm4.658-4.657v-1.5h3.621l-2.56 2.56-1.061-1.06zM33.034 22.84l-1.415-.5.354-1h1.06v1.5zm-1.415-6.705a9.312 9.312 0 00-8.778-6.204v-3c5.361 0 9.918 3.426 11.607 8.205l-2.829 1zm32.65 1H33.035v-3H64.27v3zm14.712 14.712c0-8.125-6.586-14.711-14.711-14.711v-3c9.782 0 17.711 7.93 17.711 17.71h-3zM64.27 46.559c8.125 0 14.711-6.587 14.711-14.711h3c0 9.781-7.93 17.711-17.711 17.711v-3zm-39.628 0H64.27v3H24.642v-3zM14.136 57.065c0-5.802 4.704-10.506 10.506-10.506v3a7.506 7.506 0 00-7.506 7.506h-3zm10.506 10.507c-5.802 0-10.506-4.704-10.506-10.507h3a7.506 7.506 0 007.506 7.507v3zm11.117 0H24.642v-3H35.76v3zm-3.597-7.219l4.658 4.658-2.122 2.121-4.657-4.658 2.12-2.12zm5.095-2.973l-5.095 5.094-2.121-2.12 5.094-5.096 2.122 2.122zM48.49 70.735L35.135 57.38l2.122-2.122 13.355 13.355-2.122 2.122zM35.135 81.968L48.49 68.613l2.121 2.122L37.258 84.09l-2.122-2.122zm-2.973-5.095l5.095 5.095-2.122 2.121-5.094-5.094 2.12-2.122zm4.658-2.536l-4.658 4.658-2.121-2.122 4.657-4.657 2.122 2.121zm-12.178-2.56H35.76v3H24.642v-3zM9.932 57.064c0 8.125 6.586 14.712 14.71 14.712v3c-9.781 0-17.71-7.93-17.71-17.712h3zm14.71-14.711c-8.124 0-14.71 6.586-14.71 14.711h-3c0-9.781 7.929-17.711 17.71-17.711v3zm39.628 0H24.642v-3H64.27v3zm10.506-10.506c0 5.802-4.704 10.506-10.506 10.506v-3a7.506 7.506 0 007.506-7.506h3zM64.27 21.342c5.802 0 10.506 4.703 10.506 10.506h-3a7.506 7.506 0 00-7.506-7.506v-3zm-31.236 0H64.27v3H33.034v-3zM22.84 28.547c4.05 0 7.5-2.588 8.778-6.205l2.829 1c-1.689 4.777-6.246 8.205-11.607 8.205v-3zm-9.307-9.308a9.308 9.308 0 009.307 9.308v3c-6.797 0-12.307-5.51-12.307-12.308h3zm9.307-9.307a9.308 9.308 0 00-9.307 9.307h-3c0-6.797 5.51-12.307 12.307-12.307v3z" fill="#fff"/><path fill-rule="evenodd" clip-rule="evenodd" d="M64.43 80.028v-1.28a8.36 8.36 0 005.71-3.56c3.242-.447 5.04-3.255 5.04-7.104V64.5c0-1.32-1.07-2.389-2.39-2.389h-1.513a2.388 2.388 0 00-2.07-1.194H57.263c-.885 0-1.657.48-2.07 1.194H53.68a2.389 2.389 0 00-2.389 2.39v3.583c0 3.85 1.798 6.657 5.04 7.104a8.36 8.36 0 005.71 3.56v1.28h-1.194a2.389 2.389 0 00-2.389 2.389h9.556c0-1.32-1.07-2.39-2.39-2.39H64.43zM53.68 64.5h1.194v5.972c0 .547.052 1.082.153 1.6-.881-.794-1.348-2.16-1.348-3.988V64.5zm17.916 0v5.972c0 .547-.052 1.082-.153 1.6.881-.794 1.347-2.16 1.347-3.988V64.5h-1.194zm-14.333 5.972v-7.167h11.944v7.167a5.972 5.972 0 11-11.944 0z" fill="#EB850E"/><ellipse cx="21.922" cy="19.392" rx="10.118" ry="10.961" fill="#fff"/><path fill-rule="evenodd" clip-rule="evenodd" d="M33.726 17.706c0 6.05-4.91 10.96-10.961 10.96-6.05 0-10.96-4.91-10.96-10.96 0-6.05 4.91-10.96 10.96-10.96 6.05 0 10.96 4.91 10.96 10.96zm-14.25 2.466a1.37 1.37 0 100-2.74 1.37 1.37 0 000 2.74zm5.207-1.37a1.37 1.37 0 112.741.001 1.37 1.37 0 01-2.741 0zm4.11-5.48c-3.179 0-5.963-1.71-7.497-4.253a9.148 9.148 0 011.469-.132c3.178 0 5.962 1.71 7.497 4.253a9.15 9.15 0 01-1.469.131zm-14.337 1.611a8.819 8.819 0 004.012-4.867 8.82 8.82 0 00-4.012 4.867zm16.716.318c.23.778.361 1.6.361 2.455 0 4.833-3.935 8.768-8.768 8.768-4.834 0-8.769-3.935-8.769-8.768l.002-.056c.003-.035.005-.069-.002-.098a10.978 10.978 0 006.292-6.083c2.016 2.466 5.074 4.045 8.505 4.045.822 0 1.611-.1 2.379-.263z" fill="#EB850E"/></svg>