<svg width="78" height="84" fill="none" xmlns="http://www.w3.org/2000/svg"><path fill-rule="evenodd" clip-rule="evenodd" d="M27.25 3H8.5A5.5 5.5 0 003 8.5v18.75a5.5 5.5 0 005.5 5.5h18.75a5.5 5.5 0 005.5-5.5V8.5a5.5 5.5 0 00-5.5-5.5zm0-2H8.5A7.5 7.5 0 001 8.5v18.75a7.5 7.5 0 007.5 7.5h18.75a7.5 7.5 0 007.5-7.5V8.5a7.5 7.5 0 00-7.5-7.5zM8.5 44.25h18.75a5.5 5.5 0 015.5 5.5V68.5a5.5 5.5 0 01-5.5 5.5H8.5A5.5 5.5 0 013 68.5V49.75a5.5 5.5 0 015.5-5.5zm0-2h18.75a7.5 7.5 0 017.5 7.5V68.5a7.5 7.5 0 01-7.5 7.5H8.5A7.5 7.5 0 011 68.5V49.75a7.5 7.5 0 017.5-7.5zM68.5 3H49.75a5.5 5.5 0 00-5.5 5.5v18.75a5.5 5.5 0 005.5 5.5H68.5a5.5 5.5 0 005.5-5.5V8.5A5.5 5.5 0 0068.5 3zm0-2H49.75a7.5 7.5 0 00-7.5 7.5v18.75a7.5 7.5 0 007.5 7.5H68.5a7.5 7.5 0 007.5-7.5V8.5A7.5 7.5 0 0068.5 1z" fill="#EB850E"/><path d="M8.5 3.5h18.75v-1H8.5v1zm-5 5a5 5 0 015-5v-1a6 6 0 00-6 6h1zm0 18.75V8.5h-1v18.75h1zm5 5a5 5 0 01-5-5h-1a6 6 0 006 6v-1zm18.75 0H8.5v1h18.75v-1zm5-5a5 5 0 01-5 5v1a6 6 0 006-6h-1zm0-18.75v18.75h1V8.5h-1zm-5-5a5 5 0 015 5h1a6 6 0 00-6-6v1zM8.5 1.5h18.75v-1H8.5v1zm-7 7a7 7 0 017-7v-1a8 8 0 00-8 8h1zm0 18.75V8.5h-1v18.75h1zm7 7a7 7 0 01-7-7h-1a8 8 0 008 8v-1zm18.75 0H8.5v1h18.75v-1zm7-7a7 7 0 01-7 7v1a8 8 0 008-8h-1zm0-18.75v18.75h1V8.5h-1zm-7-7a7 7 0 017 7h1a8 8 0 00-8-8v1zm0 42.25H8.5v1h18.75v-1zm6 6a6 6 0 00-6-6v1a5 5 0 015 5h1zm0 18.75V49.75h-1V68.5h1zm-6 6a6 6 0 006-6h-1a5 5 0 01-5 5v1zm-18.75 0h18.75v-1H8.5v1zm-6-6a6 6 0 006 6v-1a5 5 0 01-5-5h-1zm0-18.75V68.5h1V49.75h-1zm6-6a6 6 0 00-6 6h1a5 5 0 015-5v-1zm18.75-2H8.5v1h18.75v-1zm8 8a8 8 0 00-8-8v1a7 7 0 017 7h1zm0 18.75V49.75h-1V68.5h1zm-8 8a8 8 0 008-8h-1a7 7 0 01-7 7v1zm-18.75 0h18.75v-1H8.5v1zm-8-8a8 8 0 008 8v-1a7 7 0 01-7-7h-1zm0-18.75V68.5h1V49.75h-1zm8-8a8 8 0 00-8 8h1a7 7 0 017-7v-1zM49.75 3.5H68.5v-1H49.75v1zm-5 5a5 5 0 015-5v-1a6 6 0 00-6 6h1zm0 18.75V8.5h-1v18.75h1zm5 5a5 5 0 01-5-5h-1a6 6 0 006 6v-1zm18.75 0H49.75v1H68.5v-1zm5-5a5 5 0 01-5 5v1a6 6 0 006-6h-1zm0-18.75v18.75h1V8.5h-1zm-5-5a5 5 0 015 5h1a6 6 0 00-6-6v1zm-18.75-2H68.5v-1H49.75v1zm-7 7a7 7 0 017-7v-1a8 8 0 00-8 8h1zm0 18.75V8.5h-1v18.75h1zm7 7a7 7 0 01-7-7h-1a8 8 0 008 8v-1zm18.75 0H49.75v1H68.5v-1zm7-7a7 7 0 01-7 7v1a8 8 0 008-8h-1zm0-18.75v18.75h1V8.5h-1zm-7-7a7 7 0 017 7h1a8 8 0 00-8-8v1z" fill="#EB850E"/><path d="M59.477 65.172l-4.123-4.025a5.868 5.868 0 00-8.152 0 5.664 5.664 0 000 8.096l9.032 8.92a4.654 4.654 0 006.532 0l9.032-8.92a5.664 5.664 0 000-8.096 5.868 5.868 0 00-8.152 0l-4.17 4.025z" fill="#EB850E" stroke="#fff" stroke-width="8"/><path fill-rule="evenodd" clip-rule="evenodd" d="M42.5 56.676V45.382c0-1.56 1.343-2.823 3-2.823h27c1.657 0 3 1.264 3 2.823v11.294c0 1.56-1.343 2.824-3 2.824h-27c-1.657 0-3-1.264-3-2.824zm30-11.294h-3v4.236h-3v-4.236h-3v7.06h-3v-7.06h-3v4.236h-3v-4.236h-3v7.06h-3v-7.06h-3v11.294h27V45.382z" fill="#EB850E"/></svg>