<svg width="588" height="366" fill="none" xmlns="http://www.w3.org/2000/svg"><path fill="#F9F9F9" d="M0 0h588v366H0z"/><path d="M407.261 188.852c9.212 0 16.68-7.467 16.68-16.679s-7.468-16.68-16.68-16.68c-9.211 0-16.679 7.468-16.679 16.68s7.468 16.679 16.679 16.679z" fill="#EB850E"/><path d="M413.039 152.343a18.075 18.075 0 00-4.554 0 17.753 17.753 0 00-14.65 12.356 17.51 17.51 0 00-.769 4.559 17.729 17.729 0 0017.696 18.359 17.469 17.469 0 003.722-.395 17.714 17.714 0 0013.972-18.048 17.712 17.712 0 00-15.417-16.831zm3.266 33.852h-.002a17.024 17.024 0 01-4.415.878c-.372.025-.749.038-1.126.038a17.225 17.225 0 01-17.19-17.853 17.23 17.23 0 015.264-11.736 17.23 17.23 0 0111.926-4.817 17.202 17.202 0 0114.761 26.039 17.204 17.204 0 01-9.218 7.451z" fill="#3F3D56"/><path d="M411.174 153.434h-.824v3.707h.824v-3.707zm-11.651 4.61l-.358.359 2.511 2.512.359-.359-2.512-2.512zm-4.822 11.452v.412h3.706v-.412h-3.706zm4.463 11.513l.359.359 2.512-2.512-.359-.359-2.512 2.512zm20.454-20.453l.359.359 2.511-2.512-.358-.359-2.512 2.512zm3.911 8.94v.412h3.707v-.412h-3.707zm-3.552 9.002l-.359.358 2.512 2.512.359-.359-2.512-2.511zm-8.803 3.765h-.824v3.706h.824v-3.706zm.33-13.756a1.239 1.239 0 00-1.483 0 1.235 1.235 0 101.483 0zm-.742 1.73a.745.745 0 01-.741-.741.74.74 0 11.741.741zm2.471-22.569h-4.53v4.531h4.53v-4.531z" fill="#3F3D56"/><path d="M410.762 148.492c3.412 0 6.178-1.014 6.178-2.265 0-1.251-2.766-2.265-6.178-2.265s-6.178 1.014-6.178 2.265c0 1.251 2.766 2.265 6.178 2.265zm.824 11.531h-1.648v8.649h1.648v-8.649z" fill="#3F3D56"/><path d="M408.935 228.389c-.623-.005-1.253-.01-1.872-.029l.02-.622a60.102 60.102 0 003.721-.002l.021.622c-.631.02-1.266.031-1.89.031zm-5.625-.263a59.933 59.933 0 01-3.73-.472l.098-.615a59.44 59.44 0 003.691.468l-.059.619zm11.267-.007l-.059-.619a57.945 57.945 0 003.69-.472l.099.614a58.387 58.387 0 01-3.73.477zm-18.69-1.175a58.73 58.73 0 01-3.639-.947l.177-.596c1.185.349 2.396.663 3.6.935l-.138.608zm26.112-.016l-.139-.606a58.52 58.52 0 003.6-.941l.177.597a58.845 58.845 0 01-3.638.95zm-33.322-2.108a58.92 58.92 0 01-3.492-1.408l.253-.569c1.13.499 2.293.967 3.454 1.393l-.215.584zm40.529-.025l-.215-.584a58.516 58.516 0 003.442-1.391l.253.568a57.513 57.513 0 01-3.48 1.407zm-47.413-3.011a59.041 59.041 0 01-3.28-1.842l.324-.533a58.128 58.128 0 003.244 1.823l-.288.552zm54.276-.023l-.289-.552a57.909 57.909 0 003.237-1.821l.325.532a59.2 59.2 0 01-3.273 1.841zm-60.71-3.867a59.745 59.745 0 01-3.015-2.243l.389-.487a58.347 58.347 0 002.983 2.22l-.357.51zm67.131-.022l-.358-.51a57.674 57.674 0 002.979-2.22l.39.487a59.348 59.348 0 01-3.011 2.243zm-73.011-4.652a59.401 59.401 0 01-2.703-2.607l.448-.433a58.69 58.69 0 002.675 2.579l-.42.461zm78.884-.022l-.42-.461a57.554 57.554 0 002.673-2.58l.449.433a59.325 59.325 0 01-2.702 2.608zm-84.118-5.357c-.81-.947-1.6-1.932-2.348-2.927l.5-.373c.74.985 1.521 1.959 2.323 2.896l-.475.404zm89.35-.026l-.475-.404a58.808 58.808 0 002.323-2.899l.5.373a59.957 59.957 0 01-2.348 2.93zm-93.854-5.971a58.907 58.907 0 01-1.953-3.2l.543-.306a58.274 58.274 0 001.933 3.165l-.523.341zm98.358-.034l-.523-.34a58.076 58.076 0 001.933-3.172l.544.306a58.7 58.7 0 01-1.954 3.206zm-102.055-6.484a58.315 58.315 0 01-1.525-3.421l.578-.234a57.724 57.724 0 001.509 3.384l-.562.271zm105.753-.048l-.562-.271a57.798 57.798 0 001.51-3.394l.578.233a57.763 57.763 0 01-1.526 3.432zm-108.581-6.889a58.09 58.09 0 01-1.073-3.594l.604-.158c.313 1.19.67 2.386 1.061 3.555l-.592.197zm111.408-.066l-.593-.196a57.583 57.583 0 001.057-3.556l.604.157a57.944 57.944 0 01-1.068 3.595zm-113.318-7.182a57.799 57.799 0 01-.6-3.7l.619-.08c.158 1.222.358 2.453.593 3.661l-.612.119zm115.219-.068l-.613-.118c.235-1.208.433-2.44.589-3.662l.62.079a58.406 58.406 0 01-.596 3.701zm-116.18-7.363a59.96 59.96 0 01-.123-3.747h.624c.002 1.233.043 2.48.122 3.707l-.623.04zm117.133-.069l-.624-.04a58.63 58.63 0 00.118-3.706l-.001-.137h.625v.134c0 1.249-.04 2.509-.118 3.749zm-116.519-7.385l-.623-.039a59.65 59.65 0 01.352-3.731l.62.077a58.443 58.443 0 00-.349 3.693zm115.887-.205a58.312 58.312 0 00-.362-3.69l.619-.081c.161 1.233.284 2.487.366 3.731l-.623.04zm-114.954-7.15l-.613-.117c.236-1.222.515-2.452.829-3.656l.604.156a57.61 57.61 0 00-.82 3.617zm113.994-.2a57.863 57.863 0 00-.833-3.615l.604-.158a58.92 58.92 0 01.842 3.653l-.613.12zm-112.121-6.974l-.593-.195a57.928 57.928 0 011.297-3.526l.579.234a57.32 57.32 0 00-1.283 3.487zm110.224-.194a57.354 57.354 0 00-1.294-3.478l.578-.234a57.628 57.628 0 011.308 3.514l-.592.198zm-107.435-6.69l-.563-.27a59.074 59.074 0 011.74-3.328l.544.305a57.828 57.828 0 00-1.721 3.293zm104.628-.17a57.608 57.608 0 00-1.728-3.28l.543-.307a57.898 57.898 0 011.747 3.316l-.562.271zm-100.977-6.297l-.523-.34a59.278 59.278 0 012.152-3.077l.501.372a57.642 57.642 0 00-2.13 3.045zm97.312-.147a58.767 58.767 0 00-2.136-3.035l.499-.373a58.37 58.37 0 012.159 3.067l-.522.341zm-92.863-5.8l-.475-.403a58.698 58.698 0 012.526-2.777l.449.432c-.859.885-1.7 1.81-2.5 2.748zm88.4-.128a58.485 58.485 0 00-2.507-2.74l.447-.434a58.775 58.775 0 012.535 2.77l-.475.404zm-83.23-5.204l-.42-.46a58.953 58.953 0 012.859-2.434l.39.486a58.27 58.27 0 00-2.829 2.408zm78.045-.113a58.598 58.598 0 00-2.838-2.401l.389-.487a59.368 59.368 0 012.868 2.427l-.419.461zm-72.239-4.519l-.358-.509a58.27 58.27 0 013.146-2.051l.325.532a58.644 58.644 0 00-3.113 2.028zm66.416-.099a58.958 58.958 0 00-3.123-2.022l.323-.532a58.56 58.56 0 013.156 2.044l-.356.51zm-60.068-3.755l-.29-.551a58.724 58.724 0 013.381-1.632l.254.569a57.786 57.786 0 00-3.345 1.614zm53.698-.085a57.41 57.41 0 00-3.358-1.607l.252-.57a58.658 58.658 0 013.394 1.625l-.288.552zm-46.912-2.925l-.217-.584a58.685 58.685 0 013.568-1.186l.178.596a58.104 58.104 0 00-3.529 1.174zm40.098-.071a58.118 58.118 0 00-3.534-1.161l.176-.597a58.45 58.45 0 013.572 1.174l-.214.584zm-32.971-2.047l-.139-.607a59.233 59.233 0 013.691-.719l.1.615c-1.222.197-2.45.437-3.652.711zm25.836-.045a57.854 57.854 0 00-3.655-.699l.098-.614c1.234.195 2.477.432 3.694.706l-.137.607zm-18.494-1.142l-.061-.62c1.24-.12 2.502-.201 3.753-.243l.02.622a58.734 58.734 0 00-3.712.241zm11.148-.02a58.924 58.924 0 00-3.714-.227l.019-.622c1.249.037 2.512.114 3.753.23l-.058.619z" fill="#39374E"/><path d="M406.85 127.488c8.074 0 14.62-6.545 14.62-14.62 0-8.074-6.546-14.62-14.62-14.62-8.075 0-14.621 6.546-14.621 14.62 0 8.075 6.546 14.62 14.621 14.62zm56.422 39.949c8.074 0 14.62-6.546 14.62-14.621 0-8.074-6.546-14.62-14.62-14.62-8.075 0-14.621 6.546-14.621 14.62 0 8.075 6.546 14.621 14.621 14.621zm-17.709 60.952c8.074 0 14.62-6.546 14.62-14.621 0-8.074-6.546-14.62-14.62-14.62-8.075 0-14.621 6.546-14.621 14.62 0 8.075 6.546 14.621 14.621 14.621zm-70.425 2.471c8.074 0 14.62-6.546 14.62-14.621 0-8.074-6.546-14.62-14.62-14.62-8.075 0-14.62 6.546-14.62 14.62 0 8.075 6.545 14.621 14.62 14.621zm-21.003-63.423c8.074 0 14.62-6.546 14.62-14.621 0-8.074-6.546-14.62-14.62-14.62-8.075 0-14.62 6.546-14.62 14.62 0 8.075 6.545 14.621 14.62 14.621z" fill="#EB850E"/><path d="M413.088 111.721h-5.078c-.461 0-.904-.181-1.231-.504a1.715 1.715 0 01-.51-1.217v-5.019a.129.129 0 00-.011-.055.16.16 0 00-.031-.047.167.167 0 00-.047-.031.155.155 0 00-.056-.011h-3.336c-.616 0-1.206.242-1.642.672a2.284 2.284 0 00-.68 1.623v11.473c0 .608.245 1.192.68 1.622.436.43 1.026.672 1.642.672h8.124c.616 0 1.206-.242 1.641-.672.436-.43.68-1.014.68-1.622v-6.741a.144.144 0 00-.145-.143zm-3.337 5.736h-5.803a.581.581 0 01-.58-.573.581.581 0 01.58-.574h5.803c.154 0 .302.06.411.168a.571.571 0 01-.411.979zm0-2.868h-5.803a.581.581 0 01-.58-.574.581.581 0 01.58-.573h5.803c.154 0 .302.06.411.168a.567.567 0 010 .811.584.584 0 01-.411.168z" fill="#fff"/><path d="M412.801 110.48l-5.21-5.21a.066.066 0 00-.037-.019.064.064 0 00-.041.004.066.066 0 00-.033.026.072.072 0 00-.012.04v4.703a.577.577 0 00.579.579h4.703a.072.072 0 00.04-.012.071.071 0 00.026-.033.064.064 0 00.004-.041.066.066 0 00-.019-.037zm35.026 100.199a.829.829 0 00-.807.664.823.823 0 10.807-.664z" fill="#fff"/><path d="M452.282 207.899v-.002a.582.582 0 00-.445-.436c-.877-.207-2.256.013-3.784.606a12.226 12.226 0 00-3.959 2.429 9.113 9.113 0 00-.869.964 3.968 3.968 0 00-1.723.268c-1.699.724-2.184 2.577-2.313 3.338a.684.684 0 00.189.605.753.753 0 00.611.222h.003l1.893-.2.007.064a.969.969 0 00.291.591l.923.895c.164.159.379.259.61.282l.063.007-.206 1.83v.004a.704.704 0 00.382.7.77.77 0 00.464.076c.79-.123 2.702-.587 3.448-2.242.22-.526.316-1.095.278-1.662.353-.257.687-.539.998-.842a11.672 11.672 0 002.51-3.805c.609-1.464.838-2.81.629-3.692zm-3.149 4.984a1.775 1.775 0 01-1.884.364 1.72 1.72 0 01-.776-.616 1.632 1.632 0 01-.001-1.861 1.71 1.71 0 01.775-.618 1.776 1.776 0 011.884.363l.002.001c.324.309.508.73.511 1.171.004.44-.174.864-.493 1.178l-.018.018z" fill="#fff"/><path d="M442.891 217.494a.462.462 0 00-.319.078c-.185.126-.371.251-.559.373a.428.428 0 01-.532-.05.436.436 0 01-.076-.529l.352-.608a.46.46 0 00-.181-.678.46.46 0 00-.258-.043 1.771 1.771 0 00-1.032.505c-.106.107-.428.429-.602 1.658-.049.353-.08.709-.093 1.065a.46.46 0 00.451.475h.024c.357-.013.712-.044 1.066-.093 1.23-.173 1.552-.496 1.658-.602.28-.278.457-.643.504-1.035a.465.465 0 00-.403-.516zm-72.53 6.776h-1.153a.889.889 0 01-.612-.241.806.806 0 01-.253-.583v-4.942c0-.218.091-.428.253-.582a.884.884 0 01.612-.241h1.153c.229 0 .449.086.611.241a.8.8 0 01.254.582v4.942a.803.803 0 01-.254.583.888.888 0 01-.611.241zm7.413 0h-1.153a.908.908 0 01-.612-.231.757.757 0 01-.253-.558v-7.894c0-.209.091-.41.253-.558a.908.908 0 01.612-.231h1.153c.229 0 .449.083.611.231a.754.754 0 01.254.558v7.894c0 .209-.091.41-.254.558a.908.908 0 01-.611.231zm3.707 0h-1.153a.908.908 0 01-.612-.231.76.76 0 01-.253-.56v-11.597c0-.21.091-.411.253-.559a.91.91 0 01.612-.232h1.153c.229 0 .449.084.611.232a.755.755 0 01.254.559v11.597c0 .21-.091.411-.254.56a.908.908 0 01-.611.231zm-7.414 0h-1.153a.897.897 0 01-.611-.235.774.774 0 01-.254-.568v-14.455c0-.213.091-.418.254-.568a.898.898 0 01.611-.236h1.153c.23 0 .45.085.612.236.162.15.253.355.253.568v14.455a.74.74 0 01-.066.307.799.799 0 01-.187.261.856.856 0 01-.281.174.93.93 0 01-.331.061zm89.966-71.877l-.747-.749a.914.914 0 00-1.291-.003l-5.193 4.807a.97.97 0 00-.325.661.919.919 0 00.263.687l1.116 1.132.002.002a.926.926 0 00.649.27h.034a.952.952 0 00.663-.321l4.826-5.185a.92.92 0 00.006-1.298l-.003-.003zm6.268-1.524l-.009-.009-1.013-.952a.652.652 0 00-.452-.176.672.672 0 00-.378.116l.002-.034a.982.982 0 00-.153-.708 7.263 7.263 0 00-.733-.807l-.003-.002a8.059 8.059 0 00-2.564-1.571 4.321 4.321 0 00-1.569-.293 3.09 3.09 0 00-1.914.637 3.4 3.4 0 00-.419.455.435.435 0 00.007.537.485.485 0 00.544.146c.083-.029.168-.054.254-.074.179-.035.363-.046.545-.032a2.37 2.37 0 011.055.368c.177.141.317.318.41.517.094.2.138.418.13.636a2.96 2.96 0 01-.591.968.435.435 0 00.043.59l1.017.966a.487.487 0 00.322.131.48.48 0 00.328-.114c.288-.244.726-.612.879-.702.131-.083.28-.138.435-.163a.603.603 0 01.334.067c0 .005 0 .01-.002.014a.033.033 0 01-.007.013l-.054.048-.009.008a.587.587 0 00-.002.855l.003.003 1.013.952a.652.652 0 00.452.175.66.66 0 00.45-.174l1.641-1.539.016-.016a.595.595 0 00-.008-.836zm-113.737.918a.578.578 0 01-.532-.35.555.555 0 01.125-.617l1.322-1.298-1.322-1.299a.56.56 0 010-.801.582.582 0 01.815 0l1.73 1.699a.577.577 0 01.169.401.553.553 0 01-.169.4l-1.73 1.699a.574.574 0 01-.408.166z" fill="#fff"/><path d="M347.092 153.434a.59.59 0 01-.408-.166.553.553 0 01-.168-.4v-.567c.004-.899.37-1.76 1.017-2.397a3.512 3.512 0 012.44-1h7.498c.152 0 .299.059.407.166a.56.56 0 010 .801.582.582 0 01-.407.165h-7.496a2.342 2.342 0 00-1.627.668 2.258 2.258 0 00-.679 1.599v.565a.553.553 0 01-.169.4.584.584 0 01-.408.166zm4.613 4.942a.545.545 0 01-.408-.181l-1.73-1.853a.642.642 0 01-.169-.437.637.637 0 01.169-.437l1.73-1.853a.558.558 0 01.408-.181c.152 0 .299.065.407.181a.642.642 0 01.169.437c0 .163-.061.32-.169.436l-1.322 1.417 1.322 1.416a.658.658 0 01.125.674.604.604 0 01-.212.277.548.548 0 01-.32.104z" fill="#fff"/><path d="M350.799 156.317c-.153 0-.3-.06-.408-.166a.56.56 0 010-.801.582.582 0 01.408-.165h7.495a2.347 2.347 0 001.628-.668c.431-.425.675-.999.678-1.599v-.565a.56.56 0 01.169-.4.583.583 0 01.816 0 .56.56 0 01.169.4v.566a3.387 3.387 0 01-1.018 2.397 3.505 3.505 0 01-2.44 1.001h-7.497z" fill="#fff"/><path d="M349.293 241.657s39.965 2.066 30.657 14.647c-9.309 12.581-33.769-7.38-33.769-7.38l3.112-7.267z" fill="#FFB8B8"/><path d="M275.645 121.826l8.134 2.034s4.745 14.235 8.135 27.115c3.389 12.88 10.168 51.52 10.168 51.52l52.555 36.832-6.268 14.022-70.013-27.593-15.591-61.223 12.88-42.707z" fill="#575A89"/><path opacity=".2" d="M283.299 147.095l-3.032 63.491 6.326 18.876-18.532-13.59 15.238-68.777z" fill="#000"/><path d="M294.287 259.776s8.812 23.726 10.168 39.996a1501.57 1501.57 0 002.712 29.149h-41.351l-8.135-12.202v12.202h-48.13s-13.558-44.063-8.135-49.486c5.423-5.423 56.943-28.471 56.943-28.471l35.928 8.812z" fill="#2F2E41"/><path d="M373.079 328.303H133.802v.824h239.277v-.824z" fill="#3F3D56"/><path d="M242.428 96.067c14.227 0 25.76-11.533 25.76-25.76 0-14.227-11.533-25.76-25.76-25.76-14.227 0-25.76 11.533-25.76 25.76 0 14.227 11.533 25.76 25.76 25.76z" fill="#FFB8B8"/><path d="M222.769 81.153l-2.034 29.827 25.76 34.572 12.88-32.538s-11.524-7.457-4.745-23.049l-31.861-8.812z" fill="#FFB8B8"/><path d="M298.013 265.538c0 6.103-16.947 15.592-16.947 15.592v3.389l-6.779 3.39-14.912-29.826-4.065 32.536s-29.83 4.748-39.318 0c-9.493-4.745-14.238-2.71-27.795-7.455-13.558-4.744 5.424-68.468 5.424-68.468l-13.558-98.293 29.619-14.81 1.561-.782 4.073-.75 6.244-1.153 20.868 14.106 1.68 8.813 1.034 5.424 5.419-6.104 4.094-13.463 29.125 16.177-8.134 65.075s22.367 70.502 22.367 76.602z" fill="#575A89"/><path d="M198.366 286.553s31.183 25.082 16.269 29.827c-14.913 4.745-23.048-25.76-23.048-25.76l6.779-4.067z" fill="#FFB8B8"/><path d="M186.842 117.759l-6.779-1.356s-10.169 5.423-10.847 16.269c-.677 10.847-9.49 86.77-9.49 86.77l28.471 76.601 23.049-8.812-22.371-71.856 16.947-62.366-18.98-35.25z" fill="#575A89"/><path d="M245.41 138.446a2.471 2.471 0 100-4.943 2.471 2.471 0 000 4.943zm0 16.061a2.471 2.471 0 100-4.943 2.471 2.471 0 000 4.943zm14.002 105.843a2.471 2.471 0 100-4.943 2.471 2.471 0 000 4.943zM220.679 43.917l-4.761-1.906s9.956-10.962 23.809-10.009l-3.896-4.289s9.523-3.813 18.181 6.196c4.551 5.26 9.817 11.445 13.1 18.412h5.1l-2.129 4.686 7.45 4.686-7.646-.841c.455 2.566.525 5.186.207 7.773a10.06 10.06 0 01-3.683 6.58s-5.906-12.224-5.906-14.13v4.765s-4.761-4.29-4.761-7.149l-2.598 3.337h-17.315l2.597-4.29-9.957 1.43 3.897-5.243-15.416 21.649s-8.827-24.508 3.727-31.657z" fill="#2F2E41"/><path opacity=".2" d="M194.961 234.924l16.472 51.453-13.179-53.539-3.293 2.086z" fill="#000"/><path d="M110.983 134.409h-10.455a1.723 1.723 0 01-1.719-1.719v-15.029a1.72 1.72 0 011.719-1.719h10.455a1.72 1.72 0 011.719 1.719v15.029a1.725 1.725 0 01-1.719 1.719zm-10.455-17.643a.895.895 0 00-.895.895v15.029a.893.893 0 00.895.895h10.455a.896.896 0 00.895-.895v-15.029a.898.898 0 00-.895-.895h-10.455zm29.552 17.643h-9.442a2.23 2.23 0 01-2.225-2.226v-30.352a2.225 2.225 0 012.225-2.225h9.442a2.23 2.23 0 012.225 2.225v30.352a2.225 2.225 0 01-2.225 2.226zm-9.442-33.98a1.405 1.405 0 00-1.402 1.402v30.352a1.405 1.405 0 001.402 1.402h9.442a1.407 1.407 0 001.402-1.402v-30.352a1.407 1.407 0 00-1.402-1.402h-9.442zm28.681 33.98h-8.713a2.594 2.594 0 01-2.59-2.591V87.166a2.593 2.593 0 012.59-2.59h8.713a2.592 2.592 0 012.59 2.59v44.652a2.594 2.594 0 01-2.59 2.591zm-8.713-49.01a1.768 1.768 0 00-1.766 1.767v44.652a1.767 1.767 0 001.766 1.767h8.713a1.77 1.77 0 001.766-1.767V87.166a1.767 1.767 0 00-1.766-1.766h-8.713z" fill="#3F3D56"/><path d="M109.676 118.804h-7.841v12.742h7.841v-12.742zm19.603-16.173h-7.841v28.915h7.841v-28.915zm19.604-15.029h-7.841v43.944h7.841V87.602z" fill="#EB850E"/><path d="M369.167 87.952h-54.775a.41.41 0 01-.38-.254.407.407 0 01-.032-.158V31.942a.413.413 0 01.704-.291c.077.077.12.182.12.291v55.186h54.363a.411.411 0 110 .824zm-211.685 52.222h-65.07a.406.406 0 01-.38-.254.41.41 0 01-.032-.158V75.104a.412.412 0 01.824 0v64.247h64.658a.412.412 0 110 .823z" fill="#3F3D56"/><path d="M333.295 82.79H322.84a1.72 1.72 0 01-1.719-1.718v-15.03a1.72 1.72 0 011.719-1.719h10.455a1.72 1.72 0 011.718 1.72v15.029a1.72 1.72 0 01-1.718 1.719zM322.84 65.147a.896.896 0 00-.896.895v15.03a.899.899 0 00.896.895h10.455a.896.896 0 00.895-.895v-15.03a.899.899 0 00-.895-.895H322.84zm31.866 17.643h-9.623a2.137 2.137 0 01-2.135-2.135V53.433a2.138 2.138 0 012.135-2.135h9.623a2.135 2.135 0 012.134 2.135v27.222a2.135 2.135 0 01-2.134 2.135zm-9.623-30.668a1.313 1.313 0 00-1.312 1.311v27.222a1.315 1.315 0 001.312 1.312h9.623a1.31 1.31 0 001.311-1.312V53.433a1.315 1.315 0 00-1.311-1.311h-9.623z" fill="#3F3D56"/><path d="M331.8 67.329h-7.842V80.07h7.842V67.329zm22.016-12.612h-7.842v24.654h7.842V54.717zm-25.833 5.23a3.706 3.706 0 100-7.412 3.706 3.706 0 000 7.412zm21.828-14.002a3.706 3.706 0 100-7.413 3.706 3.706 0 000 7.413z" fill="#EB850E"/></svg>