<svg width="588" height="366" fill="none" xmlns="http://www.w3.org/2000/svg"><path fill="#F9F9F9" d="M0 0h588v366H0z"/><path d="M47.351 14.13a8.365 8.365 0 00-5.902 2.447A8.35 8.35 0 0039 22.475V351.47a8.349 8.349 0 002.449 5.897 8.368 8.368 0 005.902 2.447h493.927a8.368 8.368 0 005.903-2.447 8.35 8.35 0 002.449-5.897V22.475a8.35 8.35 0 00-2.449-5.898 8.365 8.365 0 00-5.903-2.446H47.351z" fill="#F9F9F9"/><path opacity=".2" d="M75.265 288.455l26.171-19.012 103.44-16.298 63.561-16.297 34.895 13.714 47.358-66.678 32.403 6.789 48.604-52.964 24.925 8.148L513.95 52.15v236.175l-438.685.13z" fill="#F9F9F9"/><path d="M78.81 288.455c-.63 0-1.234-.251-1.68-.699a2.394 2.394 0 010-3.375 2.371 2.371 0 011.68-.699c109.738 0 214.394-22.079 294.69-62.171 75.293-37.594 123.274-88.574 131.637-139.868a2.394 2.394 0 01.958-1.553 2.366 2.366 0 013.315.545 2.388 2.388 0 01.414 1.779c-4.344 26.645-18.446 52.782-41.912 77.686-23.144 24.562-54.197 46.662-92.298 65.686-80.939 40.413-186.347 62.669-296.804 62.669z" fill="#F9F9F9"/><path d="M154.977 155.472c.381 23.562 9.188 26.113 20.003 23.655 12.355-2.807 22.495-11.606 27.493-23.249l3.446-8.029a21.9 21.9 0 00-11.486-28.766 21.919 21.919 0 00-16.762-.214 21.907 21.907 0 00-12.004 11.701c-11.091 4.357-13.282 13.376-10.69 24.902z" fill="#2F2E41"/><path d="M224.517 108.048l3.319-5.617a5.273 5.273 0 00-2.981-7.725 5.279 5.279 0 00-6.835 5.211l.195 6.038-15.6 42.751 8.507 1.776 13.395-42.434zM142.448 213.437l-4.086 5.087a5.27 5.27 0 00-1.029 4.484 5.274 5.274 0 002.88 3.587 5.28 5.28 0 006.658-1.846 5.286 5.286 0 00.849-2.338l.667-6.004 21.532-40.092-8.167-2.97-19.304 40.092z" fill="#9F616A"/><path d="M167.691 255.757l.602 7.224.141 1.686 39.988-3.846a8.821 8.821 0 007.819-8.329 8.81 8.81 0 00-.758-4.033l-12.896-27.686-4.455-9.563-19.304-4.455c-15.918 12.184-1.596 25.63 16.423 39.231.706.535 1.418 1.07 2.139 1.604l-29.699 8.167z" fill="#2F2E41"/><path d="M154.218 280.773a2.869 2.869 0 002.621-1.015l13.08-15.834-.742-7.425-4.46-2.676a2.956 2.956 0 00-1.196-.401 2.937 2.937 0 00-3.038 1.838l-8.531 21.613a2.861 2.861 0 00.188 2.499 2.878 2.878 0 002.078 1.401z" fill="#2F2E41"/><path opacity=".2" d="M165.464 254.272l.742 8.91 2.087-.201 37.902-3.645a8.817 8.817 0 007.061-12.362l-10.669-23.885v-2.316l-4.455-9.563-19.304-4.455c-15.918 12.184-1.596 25.63 16.423 39.231l-.089.119-29.698 8.167z" fill="#000"/><path d="M150.504 277.803a2.878 2.878 0 002.622-1.015l13.08-15.834-.742-7.424-4.46-2.676a2.926 2.926 0 00-3.529.391 2.91 2.91 0 00-.705 1.046l-8.532 21.613a2.87 2.87 0 001.067 3.437c.36.243.77.4 1.199.462z" fill="#2F2E41"/><path d="M163.979 252.787l.742 8.91 39.989-3.847a8.816 8.816 0 007.82-8.327 8.808 8.808 0 00-.756-4.033l-10.672-23.886V208.24l-25.986-4.455c-16.545 12.662-.425 26.689 18.561 40.835l-29.698 8.167z" fill="#2F2E41"/><path d="M189.222 148.101c6.151 0 11.137-4.986 11.137-11.137 0-6.15-4.986-11.136-11.137-11.136-6.15 0-11.137 4.986-11.137 11.136 0 6.151 4.987 11.137 11.137 11.137z" fill="#9F616A"/><path d="M174.374 155.526l15.591 10.394 13.364-2.97-7.424-7.424v-11.137l-11.88-.743c-.249 4.448-2.797 8.517-9.651 11.88z" fill="#9F616A"/><path d="M172.146 207.497l28.956 3.713 6.682-31.183c3.104-8.278 1.323-15.591-4.424-22.121a4.965 4.965 0 00-4.713-3.985l-2.742.12c.31 9.847-6.945 7.475-17.819-.743l-1.313.394a7.38 7.38 0 00-5.177 8.145l1.198 8.082a55.168 55.168 0 002.357 9.423c2.968 8.873 1.907 18.265-3.005 28.155z" fill="#EB850E"/><path d="M158.782 174.087l13.364 4.455 5.94-21.531-2.012-.915a7.22 7.22 0 00-9.348 3.162l-7.944 14.829zM198.132 154.041l7.425 8.167 8.909-14.107-11.137-5.939-5.197 11.879z" fill="#EB850E"/><path d="M176.229 133.623c6.999 2.639 14.468 2.366 22.274 0v-8.909h-22.274v8.909zM523.569 286.563l-7.678 3.199-51.186-69.74-37.109 71.02-9.597-1.92 28.152-97.892h32.63l44.788 95.333z" fill="#2F2E41"/><path d="M533.869 302.832c-.425.116-.87.147-1.307.09a3.336 3.336 0 01-1.242-.418l-16.192-9.323a3.287 3.287 0 01-.684-5.171l1.447-1.447 7.678-.64 11.737 11.268a3.348 3.348 0 01.069 4.759 3.35 3.35 0 01-1.506.882zM408.339 305.391c.425.116.87.147 1.307.09.438-.056.86-.198 1.242-.418l16.192-9.323a3.287 3.287 0 00.684-5.171l-1.447-1.447-7.678-.64-11.737 11.268a3.348 3.348 0 00-.925 3.239 3.348 3.348 0 002.362 2.402z" fill="#2F2E41"/><path d="M424.397 89.5l-3.199 1.919-6.629-10.773a4.852 4.852 0 01-.325-4.452 4.837 4.837 0 013.453-2.829 4.846 4.846 0 015.83 4.384l.87 11.75zM513.016 173.372l1.327-3.487 11.872 4.367a4.848 4.848 0 013.058 5.595 4.843 4.843 0 01-1.015 2.061 4.832 4.832 0 01-3.609 1.735 4.842 4.842 0 01-3.683-1.575l-7.95-8.696zM462.787 127.888c5.3 0 9.597-4.297 9.597-9.597a9.597 9.597 0 00-9.597-9.597c-5.301 0-9.598 4.296-9.598 9.597 0 5.3 4.297 9.597 9.598 9.597z" fill="#FFB9B9"/><path d="M471.104 138.765h-13.437v-14.716l11.517-1.279 1.92 15.995z" fill="#FFB9B9"/><path d="M480.701 195.069h-36.47c1.286-20.348 2.305-40.013 0-51.185l2.121-10.179a5.735 5.735 0 016.326-4.521l4.99.624c3.379 5.941 7.463 5.883 12.156.639h6.011a6.02 6.02 0 015.6 3.803c.296.745.44 1.541.424 2.342a76.087 76.087 0 011.546 21.846l-2.704 36.631z" fill="#3F3D56"/><path d="M419.279 89.499l5.118-2.56 27.513 45.428-7.678 11.517-24.953-54.385zM513.089 175.192l4.375-3.69-23.243-32.569a20.595 20.595 0 00-20.488-8.295l-.733.134 8.788 15.381 11.576 8.764 19.725 20.275z" fill="#3F3D56"/><path d="M473.885 112.625s1.793-3.945-2.87-5.738c0 0-3.945-6.456-11.836-2.152 0 0-5.38 2.152-5.38 7.89 0 5.739-1.793 6.815-1.793 6.815s2.67-2.74 3.388-4.892c.717-2.152 6.296-2.64 8.448-.488s7.532 1.793 7.532 1.793l-.359 7.891s1.794-4.663 2.511-4.663c.718 0 1.435-6.456.359-6.456z" fill="#2F2E41"/><path d="M472.999 327.396c32.432 0 58.724-1.37 58.724-3.059s-26.292-3.058-58.724-3.058c-32.432 0-58.723 1.369-58.723 3.058 0 1.689 26.291 3.059 58.723 3.059zM179.803 325.954c17.142 0 31.039-.724 31.039-1.617 0-.892-13.897-1.616-31.039-1.616-17.143 0-31.04.724-31.04 1.616 0 .893 13.897 1.617 31.04 1.617z" fill="#E6E6E6"/><path d="M416.953 102.217l-188.698 16.912a3.512 3.512 0 01-3.807-3.181l-4.196-46.808a3.51 3.51 0 013.182-3.808l188.698-16.911a3.513 3.513 0 013.808 3.18l4.195 46.809a3.51 3.51 0 01-3.182 3.807z" fill="#EB850E"/><path d="M250.306 104.774c8.138 0 14.735-6.597 14.735-14.735 0-8.139-6.597-14.736-14.735-14.736-8.138 0-14.736 6.597-14.736 14.736 0 8.138 6.598 14.735 14.736 14.735z" fill="#E6E6E6"/><path d="M283.324 77.216a2.454 2.454 0 00-2.222 2.665 2.454 2.454 0 002.66 2.227l115.316-10.335a2.455 2.455 0 10-.439-4.892L283.324 77.216zM284.639 91.893a2.463 2.463 0 00-1.668.87 2.452 2.452 0 00.31 3.462 2.451 2.451 0 001.797.56L400.393 86.45a2.455 2.455 0 10-.438-4.892L284.639 91.893z" fill="#fff"/><path d="M251.04 96.339c-1.032-1.546-9.801-5.39-5.636-7.547l4.924 3.865 12.212-21.15 2.127 1.228-13.627 23.604zM419.49 38.34s-10.4 3.383-12.394 6.507c-1.994 3.123 12.394-6.507 12.394-6.507zM419.069 35.211s-9.38-.78-12.226.554c-2.845 1.335 12.226-.554 12.226-.554zM422.007 33.726s-4.746-11.01-3.596-12.1c1.15-1.09 3.596 12.1 3.596 12.1zM423.685 35.823s2.593-10.906 5.31-10.906c2.718 0-5.31 10.906-5.31 10.906zM425.362 36.223s16.609-8.7 17.58-4.082c.971 4.62-17.58 4.082-17.58 4.082zM430.815 36.669s15.855-.179 16.745 1.25c.891 1.43-16.745-1.25-16.745-1.25zM427.878 38.34s9.603 4.049 7.727 5.295c-1.877 1.246-7.727-5.295-7.727-5.295zM443.398 43.373s7.768 3.052 6.041 5.087c-1.726 2.035-6.041-5.087-6.041-5.087zM429.137 40.856s16.083 16.567 14.582 17.578c-1.501 1.01-14.582-17.578-14.582-17.578zM425.781 39.598s7.132 10.65 5.676 11.685c-1.455 1.035-5.676-11.685-5.676-11.685zM423.2 39.179s-4.727 10.237-1.055 10.064c3.671-.172 1.055-10.064 1.055-10.064zM421.167 40.018s-10.551 10.94-9.585 12.093c.966 1.152 9.585-12.093 9.585-12.093zM417.812 32.467s-2.973-6.733-11.35-5.78c-8.377.954 11.35 5.78 11.35 5.78zM410.681 31.793s-11.714-.833-10.862 1.248c.852 2.082 10.862-1.248 10.862-1.248zM414.036 24.078s-.688-2.57-1.835-2.02c-1.146.551 1.835 2.02 1.835 2.02zM424.942 26.176s2.525-11.702 1.381-11.745c-1.144-.043-1.381 11.745-1.381 11.745zM438.365 27.853s1.332-3.232 2.665-2.37c1.332.862-2.665 2.37-2.665 2.37zM426.216 55.118s-1.635 11.944 1.431 11.742c3.066-.202-1.431-11.742-1.431-11.742z" fill="#EB850E"/><path d="M134.849 41.081s-14.676 4.77-17.491 9.173c-2.815 4.403 17.491-9.172 17.491-9.172zM134.531 36.318s-13.526-1.312-17.629.93c-4.103 2.241 17.629-.93 17.629-.93zM138.402 34.07s-6.804-15.413-5.155-16.939c1.648-1.525 5.155 16.939 5.155 16.939zM140.973 37.46s3.652-15.58 7.477-15.58-7.477 15.58-7.477 15.58zM143.117 37.615s12.554-7.486 38.274-5.2c25.72 2.284-38.274 5.2-38.274 5.2zM151.077 38.492s21.99-.276 23.226 1.94c1.235 2.215-23.226-1.94-23.226-1.94zM146.79 40.793s13.282 5.792 10.687 7.574c-2.596 1.783-10.687-7.574-10.687-7.574zM168.836 47.726s11.023 4.334 8.574 7.223c-2.45 2.889-8.574-7.223-8.574-7.223zM148.322 44.26s22.964 23.69 20.821 25.134C167 70.84 148.322 44.26 148.322 44.26zM144.035 42.526s9.669 15.194 7.696 16.671c-1.974 1.477-7.696-16.67-7.696-16.67zM139.945 41.948s-8.702 24.227-3.363 23.977c5.34-.25 3.363-23.977 3.363-23.977zM136.94 43.153s-14.607 15.763-13.271 17.423c1.337 1.66 13.271-17.423 13.271-17.423zM132.555 32.538s-12.734-14.193-24.51-12.818c-11.776 1.376 24.51 12.818 24.51 12.818zM122.601 31.548s-16.84-1.156-15.615 1.733c1.224 2.89 15.615-1.733 15.615-1.733zM126.888 20.858s-.918-4.045-2.449-3.178c-1.531.867 2.449 3.178 2.449 3.178zM142.402 23.72S146.603 7.061 144.699 7c-1.904-.06-2.297 16.72-2.297 16.72zM161.794 26.058s1.838-4.333 3.675-3.177c1.837 1.155-3.675 3.177-3.675 3.177zM144.341 64.483s-2.45 17.045 2.143 16.756c4.593-.288-2.143-16.756-2.143-16.756z" fill="#E6E6E6"/></svg>