<svg width="588" height="366" fill="none" xmlns="http://www.w3.org/2000/svg"><path fill="#F9F9F9" d="M0 0h588v366H0z"/><path d="M510.313 327.9H213.858v.891h296.455v-.891z" fill="#3F3D56"/><path d="M441.059 130.616l-3.666 18.326s-4.714 10.471-2.619 17.801l1.571 3.142 9.951-8.901 3.666-24.608-8.903-5.76zM420.634 300.255l-5.761 21.99 6.808 3.142 6.285-5.236 3.666-16.754-10.998-3.142zM497.884 291.616l2.88 31.677h14.665l-7.071-34.818-10.474 3.141z" fill="#A0616A"/><path d="M475.101 175.12l2.967-14.502-34.391-8.011-7.332 11.518s-12.569 19.896-15.712 80.631c-3.142 60.735-4.19 60.212-4.19 60.212l25.663 2.617 13.094-84.819 32.471 77.489 24.615-6.806-30.9-93.197s2.095-13.613-6.285-25.132zM422.205 317.533l-3.667 3.666-2.095-2.095 1.144-7.693-5.857 3.505s-10.475-1.571-9.427 9.424c0 0-1.571 3.665 7.332 7.854 8.903 4.188 13.617 6.806 13.617 6.806s8.38-.523 8.38-3.141-2.641-20.394-2.641-20.394l-6.786 2.068zM507.573 317.533l-3.666 3.666-2.095-2.095-2.198-7.693-2.516 3.505s-10.475-1.571-9.427 9.424c0 0-1.571 3.665 7.332 7.854 8.904 4.188 13.617 6.806 13.617 6.806s8.38-.523 8.38-3.141-2.641-20.394-2.641-20.394l-6.786 2.068z" fill="#2F2E41"/><path d="M466.198 100.249c8.388 0 15.188-6.798 15.188-15.184 0-8.385-6.8-15.183-15.188-15.183-8.388 0-15.188 6.798-15.188 15.183 0 8.386 6.8 15.184 15.188 15.184z" fill="#A0616A"/><path d="M461.484 96.584l1.048 17.802h19.902l-5.761-24.085-15.189 6.283z" fill="#A0616A"/><path d="M449.962 107.055l16.236-1.047 17.283 1.047s14.665 7.854 6.809 29.321c-7.856 21.466-13.617 28.273-13.617 28.273l-16.76-7.33h-5.237s-1.571-1.571-2.095-1.571c-.524 0-10.475 1.571-10.475 1.571s-2.618-10.995 1.048-12.042c3.666-1.048 5.761-6.807 5.761-6.807l1.047-31.415z" fill="#D0CDE1"/><path d="M453.105 108.626l-3.142-1.571-10.999 25.656 12.046 7.854 2.095-31.939z" fill="#D0CDE1"/><path d="M444.463 83.756s-7.332-18.848 7.163-20.652c0 0 18.276-11.223 30.022 7.563l9.27 22.875-3.097-.616-.393 3.082-3.952 2.424-2.972-3.07.492 4.7-34.049 14.456s12.837-14.211 7.885-30.966l-2.01 4.102-8.359-3.898z" fill="#2F2E41"/><path d="M409.252 51.066H298.694v121.221h110.558V51.066z" fill="#F2F2F2"/><path d="M420.397 39.478H309.839V160.7h110.558V39.479z" stroke="#3F3D56" stroke-width="2" stroke-miterlimit="10"/><path d="M320.538 47.055v92.698h89.605" stroke="#3F3D56" stroke-width="2" stroke-miterlimit="10"/><path d="M345.503 107.22h-20.061v32.088h20.061V107.22z" fill="#575A89"/><path d="M374.48 85.382h-20.061v53.926h20.061V85.382z" fill="#3F3D56"/><path d="M403.456 59.98h-20.06v79.328h20.06V59.979zM306.884 147.024h-5.961v5.959h5.961v-5.959z" fill="#EB850E"/><path d="M333.772 147.024h-5.961v5.959h5.961v-5.959z" fill="#3F3D56"/><path d="M342.382 147.024h-5.961v5.959h5.961v-5.959z" fill="#575A89"/><path d="M409.252 149.612H386.07v.94h23.182v-.94zM409.252 152.431H386.07v.939h23.182v-.939zM409.252 155.249H386.07v.94h23.182v-.94z" fill="#3F3D56"/><path d="M111.459 206.157v57.491h109.666" fill="#F2F2F2"/><path d="M237.174 264.094H111.013V150.449h.892v112.754h125.269v.891z" fill="#3F3D56"/><path d="M253.854 139.809a64.214 64.214 0 00-49.389-31.279 64.243 64.243 0 00-29.757 4.319 64.213 64.213 0 00-24.528 17.386l-4.134-3.611a69.716 69.716 0 0189.817-13.041 69.682 69.682 0 0122.714 23.431l-4.723 2.795z" fill="#D0CDE1"/><path d="M256.44 211.29l-4.555-3.062a64.222 64.222 0 001.969-68.419l4.723-2.795a69.712 69.712 0 01-2.137 74.276z" fill="#EB850E"/><path d="M146.618 218.935a69.665 69.665 0 01-.572-92.311l4.133 3.611a64.178 64.178 0 00.527 85.039l-4.088 3.661z" fill="#3F3D56"/><path d="M198.553 242.144a69.83 69.83 0 01-51.935-23.209l4.088-3.661a64.216 64.216 0 0023.699 16.669 64.24 64.24 0 0056.323-3.921 64.235 64.235 0 0021.157-19.793l4.555 3.061a69.649 69.649 0 01-25.083 22.666 69.681 69.681 0 01-32.804 8.188z" fill="#EB850E"/><path d="M321.36 245.198h-75.033v-32.89h1.155v31.736h73.878v1.154z" fill="#3F3D56"/><path d="M246.904 223.984a6.347 6.347 0 100-12.694 6.348 6.348 0 100 12.694z" fill="#3F3D56"/><path d="M337.842 255.415h-34.631v1.154h34.631v-1.154zM337.842 258.877h-34.631v1.154h34.631v-1.154zM337.842 262.339h-34.631v1.154h34.631v-1.154z" fill="#EB850E"/></svg>