<svg width="588" height="366" fill="none" xmlns="http://www.w3.org/2000/svg"><path fill="#F9F9F9" d="M0 0h588v366H0z"/><g clip-path="url(#prefix__clip0)"><path d="M479.022 356.412H103v-1.083h376.219l-.197 1.083z" fill="#E6E6E6"/><path d="M225.351 339.634l-12.113.526-27.194-93.176-29.724 93.896-11.55-.193L163.436 230.6c-5.492-15.049-1.927-28.796 6.584-41.831l1.28-8.133 32.984-.586 3.1 30.85 17.967 128.734z" fill="#2F2E41"/><path d="M216.932 356.203c1.706.779 3.346-5.717 4.575-4.116 4.752 6.192 14.004 4.055 13.684 3.07a2.512 2.512 0 001.586-3.28 2.511 2.511 0 00-1.746-1.558l-4.281-1.07-6.723-11.823-7.327-.927-.185.302a18.881 18.881 0 00-2.024 15.447c.609 1.953 1.438 3.498 2.441 3.955zM147.13 356.203c1.706.779 3.346-5.717 4.575-4.116 4.751 6.192 14.004 4.055 13.684 3.07a2.512 2.512 0 001.586-3.28 2.511 2.511 0 00-1.746-1.558l-4.282-1.07-6.722-11.823-7.327-.927-.185.302a18.885 18.885 0 00-2.025 15.447c.61 1.953 1.439 3.498 2.442 3.955z" fill="#2F2E41"/><path d="M189.729 113.706c8.572 0 15.52-6.948 15.52-15.52 0-8.571-6.948-15.52-15.52-15.52-8.571 0-15.52 6.949-15.52 15.52 0 8.572 6.949 15.52 15.52 15.52z" fill="#9F616A"/><path d="M192.64 130.972l-22.892.388c3.655-11.463 6.166-22.182 5.82-31.04h17.46a152.282 152.282 0 00-.388 30.652z" fill="#9F616A"/><path d="M207.578 182.77l-37.528 5.707c-5.928-17.204-6.103-37.06-2.94-51.754a24.163 24.163 0 016.518-19.331l18.236 1.94a11.68 11.68 0 015.581 3.003 11.679 11.679 0 013.188 5.477c7.036 9.755 12.191 18.984 6.49 25.187l.455 29.771z" fill="#EB850E"/><path d="M168.584 127.257l-11.466-.294c1.83-16.029 2.783-34.091 12.134-43.376 1.19-1.182 2.258-2.405 3.324-3.63 2.123-2.441 6.622-3.842 11.221-3.31l2.254.26c7.398.855 22.917 6.16 22.467 10.794-.229 2.36-.383 6.604-5.999 6.658-4.535 6.085-12.644 9.463-9.258 15.244 6.774 6.043-2.041 10.834-9.15 14.444-4.358 2.213-9.887 3.355-15.527 3.21z" fill="#2F2E41"/><path d="M165.746 220.816a1.9 1.9 0 00-.355-1.44 1.992 1.992 0 00-1.295-.775l-32.832-5.08a2.036 2.036 0 00-1.478.346 1.933 1.933 0 00-.795 1.263l-21.003 129.036a1.897 1.897 0 00.355 1.44c.309.416.775.694 1.295.775l32.832 5.08a2.032 2.032 0 001.478-.347c.425-.301.711-.755.794-1.262l21.004-129.036z" fill="#E6E6E6"/><path d="M144.647 245.669c5.756 0 10.423-4.667 10.423-10.423 0-5.757-4.667-10.424-10.423-10.424-5.757 0-10.424 4.667-10.424 10.424 0 5.756 4.667 10.423 10.424 10.423z" fill="#EB850E"/><path d="M160.714 208.714l-4.583 6.903a5.917 5.917 0 00-.716 2.214 5.916 5.916 0 003.06 5.872 5.912 5.912 0 008.694-4.637l-.752-6.399 3.529-41.486 6.021-27.288-12.5-3.549-5.818 30.686 3.065 37.684z" fill="#9F616A"/><path d="M147.737 260.11a1.735 1.735 0 00-.807-1.755 1.753 1.753 0 00-.636-.235 1.739 1.739 0 00-1.989 1.446l-12.835 80.886a1.737 1.737 0 003.431.545l12.836-80.887z" fill="#fff"/><path d="M154.772 164.266l9.53-32.531a8.926 8.926 0 0116.163-3.267 8.917 8.917 0 011.353 6.695l-7.791 29.708c-5.645-5.944-12.132-5.637-19.255-.605z" fill="#EB850E"/><path d="M137.442 258.477a1.732 1.732 0 00-1.444-1.988 1.735 1.735 0 00-1.988 1.443l-12.835 80.887a1.735 1.735 0 002.121 1.963 1.739 1.739 0 001.31-1.419l12.836-80.886z" fill="#fff"/><path d="M296.082 30.84a1.99 1.99 0 00-1.986 1.985v33.244a1.99 1.99 0 001.986 1.985h134.015a1.99 1.99 0 001.986-1.985V32.825a1.99 1.99 0 00-1.986-1.985H296.082z" fill="#EB850E"/><path d="M313.454 59.87c5.757 0 10.424-4.666 10.424-10.423s-4.667-10.424-10.424-10.424-10.423 4.667-10.423 10.424 4.666 10.423 10.423 10.423z" fill="#E6E6E6"/><path d="M337.527 42.498a1.738 1.738 0 000 3.474h81.899a1.738 1.738 0 000-3.474h-81.899zM337.527 52.921a1.738 1.738 0 000 3.475h81.899a1.738 1.738 0 000-3.475h-81.899z" fill="#fff"/><path d="M249.424 77.497a1.987 1.987 0 00-1.985 1.985v33.244a1.99 1.99 0 001.985 1.986H383.44a1.987 1.987 0 001.985-1.986V79.482a1.986 1.986 0 00-1.985-1.985H249.424z" fill="#EB850E"/><path d="M239.012 133.975l-18.048 3.981.776-14.356h14.744l9.501-28.795-.125-7.451a4.85 4.85 0 014.246-6.16 4.849 4.849 0 015.214 4.158 4.852 4.852 0 01-.277 2.41l-3.247 8.831-4.448 27.007a10.621 10.621 0 01-8.336 10.375z" fill="#9F616A"/><path d="M230.276 141.06l-33.756-3.104a8.928 8.928 0 01-6.311-2.613 8.928 8.928 0 010-12.621 8.929 8.929 0 016.311-2.614l30.652 1.94c-4.75 6.682-3.202 12.989 3.104 19.012z" fill="#EB850E"/><path d="M266.797 106.528c5.757 0 10.423-4.667 10.423-10.424s-4.666-10.423-10.423-10.423-10.423 4.666-10.423 10.423 4.666 10.424 10.423 10.424z" fill="#E6E6E6"/><path d="M290.87 89.155a1.735 1.735 0 00-1.737 1.737 1.737 1.737 0 001.737 1.737h81.898a1.738 1.738 0 100-3.474H290.87zM290.87 99.579a1.736 1.736 0 100 3.474h81.898a1.738 1.738 0 100-3.474H290.87z" fill="#fff"/><path d="M296.082 125.147a1.988 1.988 0 00-1.986 1.985v33.244a1.99 1.99 0 001.986 1.985h134.015a1.988 1.988 0 001.986-1.985v-33.244a1.99 1.99 0 00-1.986-1.985H296.082z" fill="#EB850E"/><path d="M313.454 154.177c5.757 0 10.424-4.666 10.424-10.423s-4.667-10.423-10.424-10.423-10.423 4.666-10.423 10.423 4.666 10.423 10.423 10.423z" fill="#E6E6E6"/><path d="M337.527 136.805a1.737 1.737 0 000 3.475h81.899a1.737 1.737 0 000-3.475h-81.899zM337.527 147.229a1.738 1.738 0 000 3.474h81.899a1.737 1.737 0 000-3.474h-81.899z" fill="#fff"/><path d="M363.09 243.279c13.706 0 24.817-11.111 24.817-24.817 0-13.707-11.111-24.818-24.817-24.818-13.707 0-24.818 11.111-24.818 24.818 0 13.706 11.111 24.817 24.818 24.817z" fill="#E6E6E6"/><path d="M377.98 216.972h-13.402v-13.401H361.6v13.401h-13.401v2.978H361.6v13.402h2.978V219.95h13.402v-2.978z" fill="#fff"/></g><defs><clipPath id="prefix__clip0"><path fill="#fff" d="M103 9h382v347.411H103z"/></clipPath></defs></svg>