<svg width="118" height="24" viewBox="0 0 118 24" fill="none" xmlns="http://www.w3.org/2000/svg">
<path fill-rule="evenodd" clip-rule="evenodd" d="M71.663 16.725C73.729 11.551 75.491 7.333 77.088 3.051C77.872 0.949 79.041 -0.661 81.363 0.27C83.776 1.245 82.022 3.09 81.527 4.392C79.425 9.882 77.204 15.326 74.923 20.743C74.328 22.162 73.9 23.872 71.643 23.796C69.537 23.724 68.934 22.361 68.311 20.792C66.074 15.198 63.745 9.638 61.596 4.009C61.16 2.875 59.562 1.217 61.804 0.306C63.821 -0.514 65.14 0.478 65.922 2.523C67.668 7.065 69.562 11.551 71.662 16.725H71.663ZM59.05 12.159C59.071 17.013 55.892 21.81 51.62 23.281C50.454 23.68 49.044 24.591 48.289 22.77C47.746 21.455 48.141 20.337 49.332 19.326C56.347 13.376 56.403 10.361 49.54 4.976C48.149 3.886 47.586 2.691 48.333 1.205C49.236 -0.597 50.666 0.669 51.74 1.052C56.194 2.634 59.027 7.037 59.05 12.159ZM35.002 11.983C35.086 6.861 37.994 2.594 42.588 0.968C43.542 0.633 44.766 -0.606 45.516 1.025C46.139 2.375 46.111 3.745 44.682 4.955C37.762 10.816 37.754 13.15 44.689 19.349C45.904 20.433 46.143 21.619 45.66 22.829C44.909 24.715 43.459 23.585 42.348 23.181C37.93 21.575 34.918 16.925 35.002 11.983ZM90.08 12.134C90.08 15.231 90.088 18.327 90.071 21.423C90.068 22.653 89.78 23.669 88.239 23.756C86.692 23.84 85.553 23.252 85.533 21.671C85.458 15.151 85.481 8.635 85.525 2.119C85.533 0.813 86.257 0.0939999 87.695 0.0689999C89.333 0.0459999 90.092 0.725 90.084 2.359C90.064 5.615 90.075 8.875 90.079 12.134H90.08ZM105.672 19.673C101.49 19.482 98.689 16.229 98.856 11.755C99.024 7.333 102.017 4.675 106.575 4.908C110.642 5.12 113.402 8.2 113.275 12.386C113.143 16.653 109.799 19.861 105.672 19.673ZM105.816 0.113C99.432 0.117 94.091 5.527 94.023 12.06C93.948 18.963 99.081 24.045 106.095 24C113.04 23.96 117.697 19.254 117.726 12.256C117.753 5.12 112.835 0.107 105.816 0.114V0.113Z" fill="white"/>
<path fill-rule="evenodd" clip-rule="evenodd" d="M24 12C24 18.6274 18.6274 24 12 24C5.37258 24 0 18.6274 0 12C0 5.37258 5.37258 0 12 0C18.6274 0 24 5.37258 24 12ZM20.7755 18.538C20.8956 18.3697 21.0157 18.2014 21.1783 18.0654C21.1295 18.1357 21.084 18.2085 21.0385 18.2813C20.894 18.5125 20.7496 18.7436 20.497 18.893C20.6008 18.7829 20.6882 18.6604 20.7755 18.538ZM20.8197 18.3593L21.1783 18.0654L21.18 18.064C21.3385 17.9031 21.4612 17.7106 21.54 17.499C21.5179 17.4946 21.5008 17.4737 21.4834 17.4525C21.4458 17.4066 21.407 17.3594 21.314 17.475C21.2887 17.5058 21.2731 17.5505 21.257 17.5966C21.2178 17.7089 21.1756 17.8299 20.982 17.781C20.9546 17.7872 20.9297 17.7954 20.9068 17.8052L20.9406 17.7513C20.9393 17.7439 20.9381 17.7361 20.937 17.728C21.388 16.944 21.8 16.144 22.084 15.288C22.0885 15.274 22.0928 15.2593 22.0971 15.2442C22.1083 15.2049 22.1202 15.1634 22.14 15.127C22.0368 15.4605 21.9182 15.7896 21.847 15.9802C21.7987 16.103 21.7804 16.1521 21.7833 16.146C21.7861 16.1398 21.8102 16.0784 21.847 15.9802C21.9116 15.8155 22.0298 15.5184 22.2225 15.0445L22.2227 15.0455C22.2393 15.1235 22.2571 15.2072 22.356 15.216C22.4524 15.2253 22.4733 15.1573 22.4938 15.0903C22.4996 15.0712 22.5054 15.0521 22.513 15.035C22.5771 14.8931 22.6001 14.7424 22.6231 14.5918C22.642 14.4676 22.661 14.3433 22.703 14.224C22.723 14.151 22.7457 14.0784 22.7683 14.0058C22.8184 13.8457 22.8684 13.6857 22.889 13.522C23.173 11.32 22.938 9.165 21.878 7.185C20.02 3.713 17.018 1.686 12.976 1.096C11.9673 0.954768 10.9429 0.970284 9.939 1.142C6.018 1.785 3.246 3.889 1.508 7.271C1.46897 7.34696 1.42762 7.42297 1.38602 7.49942C1.14947 7.93421 0.905178 8.38321 1.037 8.919C0.991 9.056 1.088 9.064 1.187 9.069C1.23759 9.04976 1.24452 9.01072 1.25156 8.97105C1.25439 8.95505 1.25725 8.93895 1.263 8.924C1.3181 8.78754 1.35575 8.6442 1.39341 8.50082C1.47333 8.19662 1.55328 7.89224 1.8 7.653C2.419 6.484 3.148 5.399 4.158 4.487C5.962 2.858 8.079 1.821 10.54 1.65C14.384 1.382 17.568 2.722 19.91 5.682C21.924 8.229 22.419 11.114 21.75 14.209C21.43 15.69 20.736 17.006 19.83 18.229L19.058 19.041L19.14 19.105L19.838 18.513L19.5362 18.9749C19.5032 19.0156 19.4735 19.0583 19.4511 19.1052L19.4338 19.1316C18.6308 19.8846 17.8112 20.6149 16.801 21.118C16.7859 21.1262 16.7873 21.1638 16.7887 21.2007C16.7893 21.2175 16.7899 21.2342 16.789 21.248C17.6364 20.9283 18.3466 20.4363 18.9721 19.8383L18.9229 19.9136L17.2145 21.3136C17.1884 21.302 17.1551 21.2936 17.113 21.289C17.0428 21.3189 16.9711 21.3462 16.8994 21.3734C16.6452 21.47 16.3913 21.5665 16.208 21.781C15.8048 22.0266 15.3533 22.1521 14.9017 22.2775C14.502 22.3886 14.1022 22.4996 13.736 22.694L13.451 22.605C13.4111 22.6178 13.4389 22.6516 13.4688 22.688C13.5161 22.7454 13.5685 22.8091 13.367 22.806C13.1394 22.8012 12.9104 22.8411 12.6714 22.8827C12.5638 22.9014 12.4543 22.9205 12.342 22.936C12.4586 23.0006 12.5704 22.9952 12.6771 22.99C12.747 22.9867 12.8147 22.9834 12.88 23C12.9627 22.9876 13.0458 22.9773 13.1289 22.9669C13.3812 22.9354 13.6333 22.904 13.874 22.816C15.089 22.635 16.205 22.199 17.26 21.609H17.261C17.2996 21.4873 17.3349 21.367 17.2145 21.3136L18.115 20.745L18.6618 20.3133L18.226 20.9802L18.228 20.979C18.861 20.596 19.451 20.163 19.936 19.61C20.035 19.5205 20.0986 19.4056 20.1622 19.2907C20.2464 19.1386 20.3307 18.9864 20.497 18.893C20.5317 18.8352 20.5645 18.776 20.5973 18.7167C20.6656 18.5933 20.734 18.4698 20.8197 18.3593ZM18.9793 20.0626L18.6618 20.3133L18.9229 19.9136L20.1022 18.9472C19.8781 19.2151 19.6207 19.456 19.3632 19.697C19.2341 19.8178 19.105 19.9387 18.98 20.063V20.062L18.9794 20.0624L18.979 20.062C18.9791 20.0622 18.9792 20.0624 18.9793 20.0626ZM18.9794 20.0624L18.9793 20.0626C19.1032 20.2938 19.2431 20.1969 19.386 20.082C19.4547 20.0264 19.5161 19.9631 19.5776 19.8997C19.6841 19.7898 19.7907 19.6798 19.936 19.61C19.7419 19.5894 19.6494 19.7063 19.5575 19.8223C19.5154 19.8755 19.4735 19.9284 19.422 19.968C19.4084 19.9784 19.3952 19.9889 19.3821 19.9993C19.2571 20.0981 19.1493 20.1834 18.98 20.063L18.9794 20.0624ZM20.1022 18.9472C20.2371 18.786 20.3599 18.615 20.4635 18.4283C20.3968 18.502 20.3342 18.5798 20.2715 18.6577C20.0696 18.9088 19.8676 19.1599 19.527 19.273L19.5174 19.2691C19.3424 19.4673 19.1611 19.6577 18.9721 19.8383L19.4338 19.1316C19.4369 19.1287 19.4399 19.1259 19.443 19.123C19.4456 19.117 19.4483 19.1111 19.4511 19.1052L19.5362 18.9749C19.5641 18.9405 19.5944 18.9074 19.6247 18.8744C19.7212 18.7691 19.8178 18.6637 19.838 18.513C19.8387 18.4787 19.8314 18.4447 19.824 18.4107C19.811 18.3505 19.798 18.2904 19.83 18.229L21.1738 18.0659C21.0221 18.1384 20.9111 18.2414 20.8197 18.3593L20.1022 18.9472ZM21.1738 18.0659C21.1758 18.065 21.1779 18.064 21.18 18.063L21.1783 18.0654L21.1738 18.0659ZM17.177 11.972C17.147 12.499 16.875 12.811 16.346 12.815C15.814 12.819 15.515 12.5 15.514 12.004C15.514 11.542 15.803 11.253 16.291 11.232C16.824 11.209 17.108 11.497 17.177 11.972ZM12.81 16.405C12.778 16.875 12.455 17.144 11.988 17.145C11.466 17.146 11.161 16.834 11.16 16.329C11.158 15.8 11.501 15.575 12.045 15.549C12.535 15.625 12.845 15.889 12.81 16.405ZM8.475 16.327C8.397 16.82 8.138 17.155 7.605 17.145H7.606C7.073 17.134 6.801 16.804 6.804 16.303C6.807 15.821 7.107 15.567 7.595 15.557C8.132 15.547 8.401 15.848 8.475 16.327ZM17.738 12.248C17.856 11.615 17.632 11.111 17.032 10.791C16.431 10.469 15.842 10.552 15.362 10.981C14.854 11.433 14.697 12.021 15.052 12.631C15.0696 12.6611 15.0877 12.6908 15.1055 12.72C15.2615 12.9758 15.3967 13.1974 15.026 13.411C14.7099 13.5936 14.4826 13.8863 14.2555 14.1788C13.8732 14.671 13.4915 15.1625 12.688 15.128C12.6526 15.1261 12.6177 15.1072 12.5824 15.0881C12.5627 15.0775 12.543 15.0669 12.523 15.059C11.802 14.796 11.227 14.998 10.776 15.573C10.235 16.263 9.384 16.263 8.838 15.581C8.417 15.056 7.902 14.811 7.186 15.029C6.505 15.237 6.192 15.725 6.177 16.324C6.163 16.931 6.491 17.448 7.151 17.64C7.828 17.837 8.451 17.676 8.805 17.082C9.043 16.68 9.318 16.565 9.803 16.654C10.263 16.503 10.551 16.711 10.824 17.147C11.174 17.706 11.806 17.832 12.424 17.647C12.966 17.484 13.396 17.093 13.362 16.504C13.328 15.909 13.636 15.554 14.045 15.193C14.555 14.743 15.04 14.265 15.52 13.784C15.778 13.526 16.038 13.37 16.446 13.36C17.167 13.341 17.611 12.929 17.738 12.248ZM16.301 8.498H16.3C15.806 8.486 15.535 8.2 15.522 7.736C15.508 7.22 15.819 6.962 16.356 6.91C16.851 6.97 17.186 7.207 17.166 7.73C17.146 8.241 16.829 8.511 16.301 8.498ZM11.914 8.497V8.498C11.412 8.468 11.156 8.17 11.157 7.712C11.157 7.202 11.457 6.93 12.026 6.918C12.512 6.982 12.85 7.226 12.807 7.75C12.766 8.245 12.457 8.529 11.914 8.497ZM8.477 11.9C8.438 12.468 8.181 12.794 7.651 12.815C7.111 12.838 6.825 12.521 6.805 12.022C6.786 11.55 7.052 11.268 7.552 11.234C8.095 11.197 8.359 11.501 8.477 11.9ZM17.309 8.737C17.916 8.174 17.904 7.174 17.281 6.663C16.629 6.125 15.683 6.237 15.139 6.917C14.555 7.645 13.729 7.657 13.182 6.931C12.874 6.522 12.452 6.357 11.982 6.316C11.144 6.34 10.302 7.081 10.543 7.784C10.795 8.52047 10.4282 8.85934 10.0251 9.23165C9.97393 9.27894 9.92216 9.32676 9.871 9.376C9.75443 9.48774 9.63683 9.59854 9.51923 9.70934C9.2716 9.94265 9.02398 10.176 8.786 10.418C8.542 10.667 8.325 10.78 7.926 10.674C7.239 10.491 6.683 10.779 6.346 11.371C6.025 11.936 6.109 12.496 6.559 12.971C7.021 13.458 7.635 13.515 8.217 13.27C8.855 13.001 9.247 12.433 9.011 11.794C8.79153 11.1953 9.08909 10.9255 9.439 10.6082C9.4526 10.5959 9.46627 10.5835 9.48 10.571C9.786 10.293 10.084 10.007 10.377 9.716C10.407 9.68618 10.4366 9.65628 10.4661 9.62654C10.8657 9.22347 11.2368 8.84925 11.979 9.083C12.384 9.211 12.829 8.919 13.129 8.539C13.744 7.76 14.536 7.767 15.166 8.532C15.713 9.196 16.71 9.292 17.309 8.737ZM8.448 7.678C8.481 8.2 8.13 8.428 7.717 8.514C7.109 8.476 6.797 8.218 6.805 7.704C6.812 7.253 7.045 6.944 7.562 6.931C8.093 6.916 8.417 7.171 8.448 7.678ZM9.054 7.731C9.069 6.954 8.467 6.329 7.677 6.298C6.883 6.268 6.145 6.945 6.143 7.705C6.143 8.435 6.821 9.078 7.601 9.083C8.409 9.089 9.041 8.5 9.054 7.731ZM12.807 11.987C12.835 12.5 12.49 12.742 12.061 12.836C11.464 12.793 11.171 12.509 11.161 12.014C11.153 11.549 11.434 11.266 11.924 11.242C12.454 11.216 12.781 11.483 12.807 11.987ZM11.973 10.598V10.597C11.247 10.599 10.514 11.295 10.503 11.995C10.49 12.781 11.17 13.408 12.014 13.389C12.837 13.369 13.425 12.783 13.416 11.994C13.409 11.255 12.726 10.595 11.973 10.598ZM16.313 17.131V17.13C15.83 17.13 15.531 16.838 15.509 16.37C15.484 15.857 15.775 15.572 16.366 15.521C16.823 15.571 17.165 15.805 17.164 16.329C17.164 16.85 16.828 17.13 16.313 17.131ZM17.782 16.368C17.802 15.592 17.088 14.896 16.301 14.922C15.562 14.946 14.857 15.644 14.864 16.345C14.872 17.097 15.522 17.709 16.317 17.713C17.127 17.718 17.762 17.134 17.782 16.368Z" fill="white"/>
</svg>
