<svg width="89" height="18" viewBox="0 0 89 18" fill="none" xmlns="http://www.w3.org/2000/svg">
<path fill-rule="evenodd" clip-rule="evenodd" d="M54.0508 12.5438C55.6091 8.66331 56.938 5.49981 58.1426 2.28831C58.7339 0.711807 59.6156 -0.495693 61.3669 0.202557C63.1869 0.933807 61.864 2.31756 61.4906 3.29406C59.9052 7.41156 58.2301 11.4946 56.5096 15.5573C56.0609 16.6216 55.7381 17.9041 54.0357 17.8471C52.4473 17.7931 51.9925 16.7708 51.5226 15.5941C49.8354 11.3986 48.0788 7.22856 46.4579 3.00681C46.1291 2.15631 44.9238 0.912807 46.6148 0.229557C48.1361 -0.385443 49.1309 0.358557 49.7207 1.89231C51.0376 5.29881 52.4662 8.66331 54.0501 12.5438H54.0508ZM44.5376 9.11931C44.5535 12.7598 42.1557 16.3576 38.9336 17.4608C38.0542 17.7601 36.9907 18.4433 36.4213 17.0776C36.0117 16.0913 36.3097 15.2528 37.2079 14.4946C42.4989 10.0321 42.5412 7.77081 37.3648 3.73206C36.3157 2.91456 35.8911 2.01831 36.4545 0.903807C37.1355 -0.447693 38.2141 0.501807 39.0242 0.789057C42.3835 1.97556 44.5203 5.27781 44.5376 9.11931ZM26.3997 8.98731C26.4631 5.14581 28.6564 1.94556 32.1214 0.726057C32.8409 0.474807 33.7641 -0.454443 34.3298 0.768807C34.7997 1.78131 34.7786 2.80881 33.7007 3.71631C28.4814 8.11206 28.4754 9.86256 33.706 14.5118C34.6224 15.3248 34.8027 16.2143 34.4384 17.1218C33.872 18.5363 32.7783 17.6888 31.9404 17.3858C28.6081 16.1813 26.3364 12.6938 26.3997 8.98731V8.98731ZM67.9416 9.10056C67.9416 11.4233 67.9476 13.7453 67.9348 16.0673C67.9326 16.9898 67.7153 17.7518 66.5531 17.8171C65.3863 17.8801 64.5272 17.4391 64.5121 16.2533C64.4555 11.3633 64.4729 6.47631 64.5061 1.58931C64.5121 0.609807 65.0582 0.0705571 66.1428 0.0518071C67.3782 0.0345571 67.9507 0.543807 67.9446 1.76931C67.9295 4.21131 67.9378 6.65631 67.9409 9.10056H67.9416ZM79.7017 14.7548C76.5475 14.6116 74.4348 12.1718 74.5608 8.81631C74.6875 5.49981 76.9449 3.50631 80.3828 3.68106C83.4502 3.84006 85.5319 6.15006 85.4361 9.28956C85.3366 12.4898 82.8144 14.8958 79.7017 14.7548ZM79.8103 0.0848071C74.9952 0.0878071 70.9669 4.14531 70.9156 9.04506C70.859 14.2223 74.7305 18.0338 80.0207 18.0001C85.2589 17.9701 88.7714 14.4406 88.7933 9.19206C88.8136 3.84006 85.1043 0.0803071 79.8103 0.0855571V0.0848071Z" fill="white"/>
<path d="M9.05085 18C14.0495 18 18.1017 13.9706 18.1017 9C18.1017 4.02944 14.0495 0 9.05085 0C4.0522 0 0 4.02944 0 9C0 13.9706 4.0522 18 9.05085 18Z" fill="white"/>
<path fill-rule="evenodd" clip-rule="evenodd" d="M0.7821 6.68923C0.665194 6.21673 0.94049 5.83423 1.13735 5.45323C2.44821 2.91673 4.53896 1.33873 7.49632 0.856483C8.25351 0.727696 9.02617 0.716059 9.78694 0.821983C12.8356 1.26448 15.0998 2.78473 16.5012 5.38873C17.3007 6.87373 17.4779 8.48998 17.2637 10.1415C17.2411 10.32 17.1717 10.4925 17.1234 10.668C17.0533 10.866 17.0683 11.082 16.9801 11.2762C16.9545 11.334 16.9552 11.421 16.8617 11.412C16.7772 11.4045 16.7712 11.325 16.7561 11.2612C16.8602 10.659 17.0427 10.0687 17.0729 9.45373C17.0782 9.32998 17.0812 9.20548 17.0872 9.08173C17.2034 8.64073 17.0397 8.21023 17.0231 7.77373C17.0186 7.67323 17.0344 7.56148 16.9907 7.42873C17.0163 7.80673 17.0337 8.15323 17.1128 8.49223C17.1113 10.3942 16.6332 12.1642 15.5003 13.7527C15.2514 13.995 15.0983 14.3325 14.7279 14.4547C14.6744 14.4337 14.6261 14.4097 14.6646 14.3422C14.737 14.1742 14.9361 14.0805 14.9625 13.8847C14.964 13.8135 14.9188 13.7437 14.9565 13.6717C15.6398 12.7545 16.1633 11.7675 16.4046 10.6567C16.9092 8.33548 16.5359 6.17173 15.0168 4.26148C13.2504 2.04148 10.8489 1.03648 7.94962 1.23748C6.09344 1.36573 4.49672 2.14348 3.13608 3.36523C2.3743 4.04923 1.82446 4.86298 1.35758 5.73973C1.0838 6.00373 1.08229 6.37348 0.952558 6.69298C0.937473 6.73198 0.948787 6.78148 0.895236 6.80173C0.820567 6.79798 0.747406 6.79198 0.7821 6.68923V6.68923Z" fill="#F47820"/>
<path fill-rule="evenodd" clip-rule="evenodd" d="M13.0181 16.2067C12.2223 16.6492 11.3806 16.9762 10.4642 17.112C10.3669 17.1457 10.3435 17.1045 10.3601 17.0205C10.9484 16.71 11.6514 16.683 12.2246 16.3357C12.4018 16.1295 12.6666 16.0687 12.9072 15.9667C13.0859 15.9862 13.0543 16.0957 13.0188 16.2067H13.0181ZM16.8224 11.2672C16.8503 11.2792 16.83 11.4172 16.8971 11.3092C17.017 11.1127 16.971 10.8577 17.1234 10.668C17.0676 11.5627 16.6821 12.351 16.2469 13.1235C16.1172 13.149 16.0833 13.272 15.998 13.3425C15.9143 13.4122 15.817 13.485 15.7914 13.296C16.1315 12.708 16.4423 12.108 16.6565 11.466C16.6821 11.3872 16.6942 11.2785 16.8224 11.2672V11.2672Z" fill="#F47820"/>
<path fill-rule="evenodd" clip-rule="evenodd" d="M14.3155 15.0472C14.7303 14.637 15.2055 14.277 15.4732 13.7482C15.5962 13.6147 15.5969 13.3875 15.8255 13.3357C16.0314 13.3875 16.0103 13.1857 16.0759 13.1062C16.1785 12.9795 16.1935 13.1137 16.2463 13.1242C16.1869 13.2829 16.0943 13.4273 15.9748 13.548C15.7621 13.7242 15.646 13.9732 15.4597 14.1697C15.2394 14.2927 15.21 14.5515 15.0365 14.7075C14.8638 14.79 14.7635 14.9475 14.6217 15.0615C14.5139 15.1477 14.4083 15.2205 14.3147 15.0465L14.3155 15.0472ZM14.7401 14.43C14.1669 15.0802 13.5047 15.6202 12.663 15.936C12.6652 15.903 12.6554 15.8475 12.672 15.8385C13.4368 15.4597 14.0568 14.9092 14.6647 14.3422L14.7401 14.4292V14.43Z" fill="#F47820"/>
<path fill-rule="evenodd" clip-rule="evenodd" d="M14.3155 15.0472C14.4565 15.147 14.541 15.0585 14.6488 14.976C14.7725 14.8815 14.8231 14.685 15.0365 14.7075C14.6707 15.1222 14.2257 15.447 13.7483 15.7342C13.6977 15.7657 13.6412 15.7792 13.6065 15.723C13.5635 15.6555 13.6487 15.6157 13.6631 15.5587L14.3155 15.0465V15.0472Z" fill="#F47820"/>
<path fill-rule="evenodd" clip-rule="evenodd" d="M13.663 15.5588C13.654 15.6338 13.5801 15.7365 13.7483 15.7335C13.5507 15.9548 13.2852 16.0808 13.0189 16.206L12.951 16.0058L13.663 15.5588ZM9.71462 17.25C9.59017 17.2185 9.45441 17.2823 9.30884 17.202C9.58187 17.1645 9.83303 17.0993 10.0819 17.1045C10.3301 17.1083 10.0676 16.9785 10.1453 16.9538L10.3602 17.0213L10.4643 17.112C10.223 17.1998 9.96653 17.2125 9.71462 17.25ZM14.9566 13.6718C15.0026 13.7415 15.1813 13.8075 14.9626 13.8848L14.4361 14.3288L14.3743 14.2808L14.9566 13.6718V13.6718ZM15.4596 14.1698C15.5992 13.9388 15.698 13.6763 15.9748 13.5473C15.8202 13.7678 15.7108 14.022 15.4596 14.1698ZM14.0462 2.7915C14.3253 2.86425 14.4814 3.069 14.6141 3.2985L14.0462 2.7915V2.7915ZM12.3288 9.61125C11.9275 9.61425 11.702 9.375 11.7013 9.003C11.7013 8.6565 11.9193 8.43975 12.2873 8.424C12.6893 8.40675 12.9035 8.62275 12.9556 8.979C12.9329 9.37425 12.7278 9.60825 12.3288 9.61125ZM9.04184 12.8588C8.64813 12.8595 8.41808 12.6255 8.41733 12.2468C8.41582 11.85 8.67452 11.6813 9.08483 11.6618C9.45441 11.7188 9.68822 11.9168 9.66182 12.3038C9.63769 12.6563 9.39407 12.858 9.04184 12.8588V12.8588ZM5.73677 12.8588C5.33476 12.8505 5.12961 12.603 5.13187 12.2273C5.13413 11.8658 5.36041 11.6753 5.72847 11.6678C6.1335 11.6603 6.33639 11.886 6.3922 12.2453C6.33337 12.615 6.13802 12.8663 5.73602 12.8588H5.73677ZM12.8462 8.09325C12.3929 7.85175 11.9487 7.914 11.5866 8.23575C11.2035 8.57475 11.0851 9.01575 11.3528 9.47325C11.4825 9.69375 11.6447 9.87975 11.3332 10.0583C10.6936 10.4258 10.536 11.3873 9.5698 11.346C9.52832 11.3438 9.48759 11.3108 9.44536 11.2943C8.90155 11.097 8.46786 11.2485 8.1277 11.6798C7.71966 12.1973 7.0778 12.1973 6.66599 11.6858C6.34846 11.292 5.96002 11.1083 5.41999 11.2718C4.90636 11.4278 4.67028 11.7938 4.65897 12.243C4.64841 12.6983 4.8958 13.086 5.39359 13.23C5.90421 13.3778 6.3741 13.257 6.6411 12.8115C6.82061 12.51 7.02802 12.4238 7.39383 12.4905C7.74078 12.3773 7.958 12.5333 8.16391 12.8603C8.42789 13.2795 8.90457 13.374 9.37069 13.2353C9.77948 13.113 10.1038 12.8198 10.0782 12.378C10.0525 11.9318 10.2848 11.6655 10.5933 11.3948C10.978 11.0573 11.3438 10.6988 11.7058 10.338C11.9004 10.1445 12.0965 10.0275 12.4042 10.02C12.948 10.0058 13.2829 9.69675 13.3787 9.186C13.4677 8.71125 13.2988 8.33325 12.8462 8.09325V8.09325ZM12.2941 6.3735C11.9215 6.3645 11.7171 6.15 11.7073 5.802C11.6968 5.415 11.9313 5.2215 12.3363 5.1825C12.7097 5.2275 12.9624 5.40525 12.9473 5.7975C12.9322 6.18075 12.6931 6.38325 12.2949 6.3735H12.2941ZM8.98602 6.3735C8.6074 6.351 8.41431 6.1275 8.41507 5.784C8.41507 5.4015 8.64134 5.1975 9.0705 5.1885C9.43706 5.2365 9.69199 5.4195 9.65956 5.8125C9.62863 6.18375 9.39558 6.39675 8.98602 6.37275V6.3735ZM5.77071 9.61125C5.36342 9.6285 5.14771 9.39075 5.13263 9.0165C5.1183 8.6625 5.31892 8.451 5.69604 8.4255C6.10559 8.39775 6.30471 8.62575 6.39371 8.925C6.3643 9.351 6.17046 9.5955 5.77071 9.61125V9.61125ZM13.034 4.99725C12.5423 4.59375 11.8287 4.67775 11.4184 5.18775C10.978 5.73375 10.355 5.74275 9.9424 5.19825C9.71009 4.8915 9.3918 4.76775 9.03731 4.737C8.40526 4.755 7.77019 5.31075 7.95197 5.838C8.16617 6.4605 7.78754 6.70425 7.44512 7.032C7.17208 7.29225 6.89151 7.54575 6.62677 7.8135C6.44274 8.00025 6.27907 8.085 5.97813 8.0055C5.45997 7.86825 5.04061 8.08425 4.78643 8.52825C4.54432 8.952 4.60768 9.372 4.94708 9.72825C5.29554 10.0935 5.75864 10.1363 6.19761 9.9525C6.67881 9.75075 6.97447 9.32475 6.79647 8.8455C6.62451 8.379 6.87341 8.17875 7.15021 7.92825C7.38101 7.71975 7.60577 7.50525 7.82676 7.287C8.15561 6.9615 8.43392 6.624 9.03505 6.81225C9.34052 6.90825 9.67615 6.68925 9.90242 6.40425C10.3663 5.82 10.9636 5.82525 11.4388 6.399C11.8514 6.897 12.6033 6.969 13.0551 6.55275C13.513 6.1305 13.5039 5.3805 13.034 4.99725V4.99725Z" fill="#F47820"/>
<path fill-rule="evenodd" clip-rule="evenodd" d="M5.82047 6.3855C5.36189 6.357 5.12657 6.1635 5.13261 5.778C5.13789 5.43975 5.31362 5.208 5.70356 5.19825C6.10406 5.187 6.34844 5.37825 6.37182 5.7585C6.39671 6.15 6.13197 6.321 5.82047 6.3855V6.3855ZM5.7903 4.7235C5.19144 4.701 4.63481 5.20875 4.6333 5.77875C4.6333 6.32625 5.14467 6.8085 5.73298 6.81225C6.3424 6.81675 6.81908 6.375 6.82889 5.79825C6.8402 5.2155 6.38615 4.74675 5.7903 4.7235V4.7235ZM9.09688 9.627C8.6466 9.59475 8.42561 9.38175 8.41806 9.0105C8.41203 8.66175 8.62397 8.4495 8.99355 8.4315C9.39329 8.412 9.63993 8.61225 9.65954 8.99025C9.68066 9.375 9.42044 9.5565 9.09688 9.627V9.627ZM9.0305 7.94775C8.48293 7.94925 7.93007 8.47125 7.92178 8.99625C7.91197 9.58575 8.42485 10.056 9.06143 10.0417C9.68217 10.0267 10.1257 9.58725 10.1189 8.9955C10.1136 8.44125 9.59844 7.94625 9.0305 7.9485V7.94775ZM12.3039 12.8475C11.9396 12.8475 11.7141 12.6285 11.6975 12.2775C11.6786 11.8927 11.8981 11.679 12.3439 11.6407C12.6886 11.6782 12.9465 11.8537 12.9457 12.2467C12.9457 12.6375 12.6923 12.8475 12.3039 12.8482V12.8475ZM12.2948 11.1915C11.7375 11.2095 11.2057 11.733 11.211 12.2587C11.217 12.8227 11.7073 13.2817 12.3069 13.2847C12.9178 13.2885 13.3968 12.8505 13.4119 12.276C13.427 11.694 12.8884 11.172 12.2948 11.1915Z" fill="#F47820"/>
</svg>
