<svg width="318" height="300" fill="none" xmlns="http://www.w3.org/2000/svg"><path fill="#E5E5E5" d="M0 0h318v300H0z"/><path fill="#fff" d="M-710-222h2162v905H-710z"/><path d="M162.83 286.124c55.926 0 101.263-8.019 101.263-17.91 0-9.892-45.337-17.911-101.263-17.911s-101.264 8.019-101.264 17.911c0 9.891 45.338 17.91 101.264 17.91z" fill="#F2F2F2"/><path d="M99.357 104.493c-5.311-19.824 19.45-43.682 55.307-53.29 35.857-9.608 69.231-1.327 74.542 18.497" stroke="#3F3D56" stroke-width="2" stroke-miterlimit="10"/><path d="M186.614 55.82l-52.819 14.152c-15.165-14.807-19.882-32.413-14.153-52.819L172.461 3c-9.889 21.52-5.172 39.127 14.153 52.82z" fill="#E6E6E6"/><path d="M163.519 12.783l-29.763 7.975 1.011 3.773 29.763-7.975-1.011-3.773z" fill="#EB850E"/><path d="M163.686 24.25l-39.405 10.558.337 1.258 39.405-10.559-.337-1.257zM163.686 30.977l-39.405 10.558.337 1.258 39.405-10.559-.337-1.257zM163.686 37.704l-39.405 10.558.337 1.258 39.405-10.559-.337-1.257z" fill="#fff"/><path d="M219.356 70.997c5.569 20.783-18.984 45.42-54.841 55.028-35.857 9.608-69.44.548-75.008-20.235" stroke="#3F3D56" stroke-width="2" stroke-miterlimit="10"/><path d="M210.9 113.194c-12.415 11.716-30.082 21.526-50.796 27.076-19.86 5.322-39.253 5.851-55.457 2.415M184.33 30.79c29.564-.141 53.512 10.556 60.38 28.872M80.229 74.24c2.362-9.8 8.846-19.604 18.435-28.371" stroke="#3F3D56" stroke-width="2" stroke-miterlimit="10"/><path d="M183.858 117.97l-29.764 7.975 1.011 3.773 29.764-7.975-1.011-3.773z" fill="#EB850E"/><path d="M191.619 135.078l-39.405 10.559.337 1.257 39.405-10.558-.337-1.258z" fill="#fff"/><path d="M118.808 119.984l-52.82 14.153c-15.164-14.808-19.882-32.414-14.153-52.82l52.82-14.153c-9.89 21.52-5.172 39.127 14.153 52.82z" fill="#F2F2F2"/><path d="M93.977 76.947l-29.763 7.975 1.01 3.773 29.764-7.975-1.01-3.773z" fill="#EB850E"/><path d="M97.399 86.461L57.994 97.019l.337 1.258L97.736 87.72l-.337-1.258zM97.399 93.188l-39.405 10.559.337 1.257 39.405-10.558-.337-1.258zM97.399 99.915l-39.405 10.558.337 1.258 39.405-10.559-.337-1.257zM97.399 106.642L57.994 117.2l.337 1.258 39.405-10.559-.337-1.257z" fill="#fff"/><path d="M210.345 111.048l52.82-14.153c5.729-20.406 1.012-38.013-14.153-52.82l-52.82 14.153c19.325 13.693 24.043 31.3 14.153 52.82z" fill="#F2F2F2"/><path d="M249.424 50.674l-29.763 7.975 1.011 3.773 29.763-7.975-1.011-3.773z" fill="#EB850E"/><path d="M256.317 60.187l-39.405 10.559.337 1.257 39.405-10.558-.337-1.258z" fill="#fff"/><path d="M178.55 86.231h3.704s3.396 26.239.926 28.708c-2.469 2.47-9.26 4.013-10.186 0-.926-4.013 0-18.83 0-18.83l5.556-9.878z" fill="#EB850E"/><path d="M154.318 89.781c12.445 0 22.534-11.816 22.534-26.392 0-14.577-10.089-26.393-22.534-26.393-12.445 0-22.534 11.816-22.534 26.393 0 14.576 10.089 26.392 22.534 26.392z" fill="#2F2E41"/><path d="M149.224 68.328s1.235 10.186-2.469 12.347c-3.704 2.16 4.322 14.508 4.322 14.508l9.569 2.47 6.482-8.952-1.234-9.26s-7.409-7.41-4.013-14.2l-12.657 3.087z" fill="#FFC1C7"/><path opacity=".1" d="M149.224 68.328s1.235 10.186-2.469 12.347c-3.704 2.16 4.322 14.508 4.322 14.508l9.569 2.47 6.482-8.952-1.234-9.26s-7.409-7.41-4.013-14.2l-12.657 3.087z" fill="#000"/><path d="M135.334 178.905s-3.704 33.647 0 41.672c3.705 8.026 13.582 30.56 13.582 30.56l-3.086 6.483 8.334-1.852 3.396-6.483s-4.013-15.743-4.631-21.299c-.617-5.557-5.247-15.743-5.247-15.743l8.643-36.734-20.991 3.396zM164.66 173.281s.308 33.955 2.469 39.223l-1.235 45.994 6.791.906s9.878-38.585 8.335-47.846c-1.543-9.26.309-42.599.309-42.599l-16.669 4.322zM154.318 72.495c6.478 0 11.73-5.252 11.73-11.73 0-6.479-5.252-11.73-11.73-11.73-6.478 0-11.73 5.251-11.73 11.73 0 6.478 5.252 11.73 11.73 11.73z" fill="#FFC1C7"/><path d="M194.293 177.602s-8.334 5.557-11.73 1.544c-3.395-4.013-45.068 2.469-50.316 1.235-5.247-1.235 2.779-20.991 2.779-31.178 0-7.621 2.765-19.215 4.158-24.574.469-1.803.781-2.899.781-2.899s3.167-9.01 2.574-12.755a3.201 3.201 0 00-.232-.824 1.683 1.683 0 00-.182-.312c-1.478-1.972-5.717-16.357-7.362-22.534a27.859 27.859 0 01-.663-2.778c0-.926 11.421-3.704 14.276-3.837 2.859-.132 3.627 3.837 3.627 3.837.926.618 5.248 11.422 5.248 11.422l4.013-10.187s-.309-2.16-.618-2.16c-.308 0 4.566-2.915 4.566-2.915s5.004 3.532 7.782 2.914c2.778-.617 9.26 4.94 9.26 4.94s-11.421 28.707-6.791 34.881c4.631 6.173 18.83 56.18 18.83 56.18z" fill="#EB850E"/><path d="M156.634 248.051s-5.248 5.247-5.248 5.865l-4.322-1.852s-1.852 6.791-2.16 7.717c-.309.926-5.557 9.26-10.804 12.964-5.248 3.705 0 8.335 4.63 7.409 4.63-.926 16.36-11.421 16.36-11.421s8.026 0 10.804-6.174c0 0-7.408-15.126-9.26-14.508z" fill="#2F2E41"/><path d="M172.068 256.954s-7.93-5.762-8.441-.411c-.511 5.35-.511 17.08-.511 17.08s-2.47 7.717 5.247 6.791c7.718-.926 8.335-3.086 8.335-3.086l-3.704-14.817v-6.483l-.926.926z" fill="#2F2E41"/><path opacity=".1" d="M142.125 107.839c-1.479-1.972-5.717-16.357-7.362-22.534h1.497s3.76 14.715 6.047 22.846a1.707 1.707 0 00-.182-.312zM162.499 128.212s-4.322.309-20.065-2.778a31.275 31.275 0 01-3.25-.805c.469-1.803.781-2.899.781-2.899s3.167-9.011 2.574-12.755c.738 2.593 1.287 4.343 1.438 4.42.618.309 20.374 3.705 23.152 4.939 2.778 1.235-4.63 9.878-4.63 9.878zM168.055 87.812s8.514-1.05 9.042.33c.527 1.38 2.688 14.723 3.614 16.433.926 1.711 1.235 12.316-2.469 12.658-3.704.342-8.643-3.421-7.717-6.5.926-3.079-2.47-22.92-2.47-22.92z" fill="#000"/><path d="M163.733 116.174s12.965 1.544 15.126 0c2.161-1.543 11.113-1.543 9.26 2.778-1.852 4.322-17.903 4.631-17.903 4.631h-9.261l2.778-7.409z" fill="#FFC1C7"/><path d="M136.26 83.144h-2.161s-4.322.927-3.704 14.509c.617 13.582-3.704 22.534 12.039 25.621 15.743 3.087 20.064 2.778 20.064 2.778s7.409-8.643 4.63-9.878c-2.778-1.235-22.534-4.63-23.151-4.939-.617-.309-7.717-28.09-7.717-28.09z" fill="#EB850E"/><path d="M176.859 89.237s-5.409-20.292-9.731-20.292c-4.321 0-9.26.926-5.556 4.939 3.704 4.013 8.334 8.334 8.643 10.495.309 2.16 1.544 5.248 1.544 5.248l5.1-.39z" fill="#FFC1C7"/><path d="M169.29 87.812s8.514-1.05 9.041.33c.528 1.38 2.689 14.723 3.615 16.433.926 1.711 1.234 12.316-2.47 12.658-3.704.342-8.643-3.421-7.717-6.5.926-3.079-2.469-22.92-2.469-22.92z" fill="#EB850E"/><path d="M151.231 60.765c6.138 0 11.113-4.975 11.113-11.113 0-6.137-4.975-11.112-11.113-11.112-6.137 0-11.112 4.975-11.112 11.112 0 6.138 4.975 11.113 11.112 11.113z" fill="#2F2E41"/></svg>