<svg width="318" height="300" viewBox="0 0 318 300" fill="none" xmlns="http://www.w3.org/2000/svg">
<rect width="318" height="300" fill="#E5E5E5"/>
<rect x="-1113" y="-225" width="2162" height="905" fill="white"/>
<path d="M268.552 87.5833V255.405C268.552 260.396 263.738 264.454 257.794 264.454H30.0968C24.1527 264.454 19.3389 260.396 19.3389 255.405V87.5833C19.3389 82.5832 24.1527 77.4873 30.0968 77.4873H257.794C263.738 77.4873 268.552 82.5832 268.552 87.5833Z" fill="white"/>
<path d="M40.3971 129.287C40.0345 129.287 39.6868 129.432 39.4304 129.688C39.1739 129.944 39.0297 130.292 39.0293 130.654V153.543C39.0297 153.905 39.1739 154.253 39.4303 154.509C39.6868 154.765 40.0345 154.91 40.3971 154.91H132.726C133.089 154.91 133.437 154.765 133.693 154.509C133.95 154.253 134.094 153.905 134.094 153.543V130.654C134.094 130.292 133.95 129.944 133.693 129.688C133.437 129.432 133.089 129.287 132.726 129.287H40.3971Z" fill="#E6E6E6"/>
<path d="M52.3052 149.34C56.2532 149.34 59.4536 146.098 59.4536 142.099C59.4536 138.099 56.2532 134.857 52.3052 134.857C48.3572 134.857 45.1567 138.099 45.1567 142.099C45.1567 146.098 48.3572 149.34 52.3052 149.34Z" fill="#EB850E"/>
<path d="M69.003 137.271C68.6864 137.271 68.3827 137.398 68.1588 137.624C67.9349 137.851 67.8091 138.158 67.8091 138.478C67.8091 138.798 67.9349 139.105 68.1588 139.331C68.3827 139.558 68.6864 139.685 69.003 139.685H125.288C125.605 139.685 125.908 139.558 126.132 139.331C126.356 139.105 126.482 138.798 126.482 138.478C126.482 138.158 126.356 137.851 126.132 137.624C125.908 137.398 125.605 137.271 125.288 137.271H69.003Z" fill="white"/>
<path d="M69.003 144.512C68.6864 144.512 68.3827 144.639 68.1588 144.866C67.9349 145.092 67.8091 145.399 67.8091 145.719C67.8091 146.039 67.9349 146.346 68.1588 146.572C68.3827 146.799 68.6864 146.926 69.003 146.926H125.288C125.605 146.926 125.908 146.799 126.132 146.572C126.356 146.346 126.482 146.039 126.482 145.719C126.482 145.399 126.356 145.092 126.132 144.866C125.908 144.639 125.605 144.512 125.288 144.512H69.003Z" fill="white"/>
<path d="M40.3971 161.272C40.0345 161.272 39.6868 161.417 39.4304 161.673C39.1739 161.929 39.0297 162.277 39.0293 162.639V185.528C39.0297 185.89 39.1739 186.238 39.4303 186.494C39.6868 186.75 40.0345 186.895 40.3971 186.895H132.726C133.089 186.895 133.437 186.75 133.693 186.494C133.95 186.238 134.094 185.89 134.094 185.528V162.639C134.094 162.277 133.95 161.929 133.693 161.673C133.437 161.417 133.089 161.272 132.726 161.272H40.3971Z" fill="#E6E6E6"/>
<path d="M52.3052 181.325C56.2532 181.325 59.4536 178.083 59.4536 174.084C59.4536 170.084 56.2532 166.842 52.3052 166.842C48.3572 166.842 45.1567 170.084 45.1567 174.084C45.1567 178.083 48.3572 181.325 52.3052 181.325Z" fill="#EB850E"/>
<path d="M69.003 169.256C68.6864 169.256 68.3827 169.383 68.1588 169.609C67.9349 169.836 67.8091 170.143 67.8091 170.463C67.8091 170.783 67.9349 171.09 68.1588 171.316C68.3827 171.542 68.6864 171.67 69.003 171.67H125.288C125.605 171.67 125.908 171.542 126.132 171.316C126.356 171.09 126.482 170.783 126.482 170.463C126.482 170.143 126.356 169.836 126.132 169.609C125.908 169.383 125.605 169.256 125.288 169.256H69.003Z" fill="white"/>
<path d="M69.003 176.497C68.6864 176.497 68.3827 176.624 68.1588 176.851C67.9349 177.077 67.8091 177.384 67.8091 177.704C67.8091 178.024 67.9349 178.331 68.1588 178.557C68.3827 178.784 68.6864 178.911 69.003 178.911H125.288C125.605 178.911 125.908 178.784 126.132 178.557C126.356 178.331 126.482 178.024 126.482 177.704C126.482 177.384 126.356 177.077 126.132 176.851C125.908 176.624 125.605 176.497 125.288 176.497H69.003Z" fill="white"/>
<path d="M39.509 193.256C39.1463 193.257 38.7986 193.401 38.5422 193.657C38.2857 193.913 38.1415 194.261 38.1411 194.623V217.512C38.1415 217.875 38.2857 218.222 38.5422 218.478C38.7986 218.735 39.1463 218.879 39.509 218.879H131.838C132.201 218.879 132.549 218.735 132.805 218.478C133.061 218.222 133.206 217.875 133.206 217.512V194.623C133.206 194.261 133.061 193.913 132.805 193.657C132.549 193.401 132.201 193.257 131.838 193.256H39.509Z" fill="#E6E6E6"/>
<path d="M51.417 213.309C55.365 213.309 58.5654 210.067 58.5654 206.068C58.5654 202.069 55.365 198.827 51.417 198.827C47.469 198.827 44.2686 202.069 44.2686 206.068C44.2686 210.067 47.469 213.309 51.417 213.309Z" fill="#EB850E"/>
<path d="M68.1143 201.24C67.7977 201.24 67.494 201.367 67.2701 201.594C67.0462 201.82 66.9204 202.127 66.9204 202.447C66.9204 202.767 67.0462 203.074 67.2701 203.301C67.494 203.527 67.7977 203.654 68.1143 203.654H124.399C124.716 203.654 125.02 203.527 125.244 203.301C125.468 203.074 125.593 202.767 125.593 202.447C125.593 202.127 125.468 201.82 125.244 201.594C125.02 201.367 124.716 201.24 124.399 201.24H68.1143Z" fill="white"/>
<path d="M68.1143 208.481C67.7977 208.481 67.494 208.609 67.2701 208.835C67.0462 209.061 66.9204 209.368 66.9204 209.688C66.9204 210.008 67.0462 210.315 67.2701 210.542C67.494 210.768 67.7977 210.895 68.1143 210.895H124.399C124.716 210.895 125.02 210.768 125.244 210.542C125.468 210.315 125.593 210.008 125.593 209.688C125.593 209.368 125.468 209.061 125.244 208.835C125.02 208.609 124.716 208.481 124.399 208.481H68.1143Z" fill="white"/>
<path d="M39.509 226.129C39.1463 226.13 38.7986 226.274 38.5422 226.53C38.2857 226.786 38.1415 227.134 38.1411 227.496V250.385C38.1415 250.748 38.2857 251.095 38.5422 251.351C38.7986 251.608 39.1463 251.752 39.509 251.752H131.838C132.201 251.752 132.549 251.608 132.805 251.351C133.061 251.095 133.206 250.748 133.206 250.385V227.496C133.206 227.134 133.061 226.786 132.805 226.53C132.549 226.274 132.201 226.13 131.838 226.129H39.509Z" fill="#E6E6E6"/>
<path d="M51.417 246.182C55.365 246.182 58.5654 242.94 58.5654 238.941C58.5654 234.942 55.365 231.7 51.417 231.7C47.469 231.7 44.2686 234.942 44.2686 238.941C44.2686 242.94 47.469 246.182 51.417 246.182Z" fill="#EB850E"/>
<path d="M68.1143 234.113C67.7977 234.113 67.494 234.24 67.2701 234.467C67.0462 234.693 66.9204 235 66.9204 235.32C66.9204 235.64 67.0462 235.947 67.2701 236.174C67.494 236.4 67.7977 236.527 68.1143 236.527H124.399C124.716 236.527 125.02 236.4 125.244 236.174C125.468 235.947 125.593 235.64 125.593 235.32C125.593 235 125.468 234.693 125.244 234.467C125.02 234.24 124.716 234.113 124.399 234.113H68.1143Z" fill="white"/>
<path d="M68.1143 241.354C67.7977 241.354 67.494 241.482 67.2701 241.708C67.0462 241.934 66.9204 242.241 66.9204 242.561C66.9204 242.881 67.0462 243.188 67.2701 243.415C67.494 243.641 67.7977 243.768 68.1143 243.768H124.399C124.716 243.768 125.02 243.641 125.244 243.415C125.468 243.188 125.593 242.881 125.593 242.561C125.593 242.241 125.468 241.934 125.244 241.708C125.02 241.482 124.716 241.354 124.399 241.354H68.1143Z" fill="white"/>
<path d="M155.897 129.287C155.534 129.287 155.186 129.432 154.93 129.688C154.673 129.944 154.529 130.292 154.529 130.654V153.543C154.529 153.905 154.673 154.253 154.93 154.509C155.186 154.765 155.534 154.91 155.897 154.91H248.226C248.589 154.91 248.936 154.765 249.193 154.509C249.449 154.253 249.593 153.905 249.594 153.543V130.654C249.593 130.292 249.449 129.944 249.193 129.688C248.936 129.432 248.589 129.287 248.226 129.287H155.897Z" fill="#E6E6E6"/>
<path d="M167.805 149.34C171.753 149.34 174.953 146.098 174.953 142.099C174.953 138.099 171.753 134.857 167.805 134.857C163.857 134.857 160.656 138.099 160.656 142.099C160.656 146.098 163.857 149.34 167.805 149.34Z" fill="#EB850E"/>
<path d="M184.503 137.271C184.186 137.271 183.882 137.398 183.658 137.624C183.434 137.851 183.309 138.158 183.309 138.478C183.309 138.798 183.434 139.105 183.658 139.331C183.882 139.558 184.186 139.685 184.503 139.685H240.788C241.104 139.685 241.408 139.558 241.632 139.331C241.856 139.105 241.982 138.798 241.982 138.478C241.982 138.158 241.856 137.851 241.632 137.624C241.408 137.398 241.104 137.271 240.788 137.271H184.503Z" fill="white"/>
<path d="M184.503 144.512C184.186 144.512 183.882 144.639 183.658 144.866C183.434 145.092 183.309 145.399 183.309 145.719C183.309 146.039 183.434 146.346 183.658 146.572C183.882 146.799 184.186 146.926 184.503 146.926H240.788C241.104 146.926 241.408 146.799 241.632 146.572C241.856 146.346 241.982 146.039 241.982 145.719C241.982 145.399 241.856 145.092 241.632 144.866C241.408 144.639 241.104 144.512 240.788 144.512H184.503Z" fill="white"/>
<path d="M155.897 161.272C155.534 161.272 155.186 161.417 154.93 161.673C154.673 161.929 154.529 162.277 154.529 162.639V185.528C154.529 185.89 154.673 186.238 154.93 186.494C155.186 186.75 155.534 186.895 155.897 186.895H248.226C248.589 186.895 248.936 186.75 249.193 186.494C249.449 186.238 249.593 185.89 249.594 185.528V162.639C249.593 162.277 249.449 161.929 249.193 161.673C248.936 161.417 248.589 161.272 248.226 161.272H155.897Z" fill="#E6E6E6"/>
<path d="M167.805 181.325C171.753 181.325 174.953 178.083 174.953 174.084C174.953 170.084 171.753 166.842 167.805 166.842C163.857 166.842 160.656 170.084 160.656 174.084C160.656 178.083 163.857 181.325 167.805 181.325Z" fill="#EB850E"/>
<path d="M184.503 169.256C184.186 169.256 183.882 169.383 183.658 169.609C183.434 169.836 183.309 170.143 183.309 170.463C183.309 170.783 183.434 171.09 183.658 171.316C183.882 171.542 184.186 171.67 184.503 171.67H240.788C241.104 171.67 241.408 171.542 241.632 171.316C241.856 171.09 241.982 170.783 241.982 170.463C241.982 170.143 241.856 169.836 241.632 169.609C241.408 169.383 241.104 169.256 240.788 169.256H184.503Z" fill="white"/>
<path d="M184.503 176.497C184.186 176.497 183.882 176.624 183.658 176.851C183.434 177.077 183.309 177.384 183.309 177.704C183.309 178.024 183.434 178.331 183.658 178.557C183.882 178.784 184.186 178.911 184.503 178.911H240.788C241.104 178.911 241.408 178.784 241.632 178.557C241.856 178.331 241.982 178.024 241.982 177.704C241.982 177.384 241.856 177.077 241.632 176.851C241.408 176.624 241.104 176.497 240.788 176.497H184.503Z" fill="white"/>
<path d="M155.008 193.256C154.646 193.257 154.298 193.401 154.042 193.657C153.785 193.913 153.641 194.261 153.641 194.623V217.512C153.641 217.875 153.785 218.222 154.042 218.478C154.298 218.735 154.646 218.879 155.008 218.879H247.338C247.7 218.879 248.048 218.735 248.305 218.478C248.561 218.222 248.705 217.875 248.706 217.512V194.623C248.705 194.261 248.561 193.913 248.305 193.657C248.048 193.401 247.7 193.257 247.338 193.256H155.008Z" fill="#E6E6E6"/>
<path d="M166.917 213.309C170.864 213.309 174.065 210.067 174.065 206.068C174.065 202.069 170.864 198.827 166.917 198.827C162.969 198.827 159.768 202.069 159.768 206.068C159.768 210.067 162.969 213.309 166.917 213.309Z" fill="#EB850E"/>
<path d="M183.614 201.24C183.297 201.24 182.994 201.367 182.77 201.594C182.546 201.82 182.42 202.127 182.42 202.447C182.42 202.767 182.546 203.074 182.77 203.301C182.994 203.527 183.297 203.654 183.614 203.654H239.899C240.216 203.654 240.519 203.527 240.743 203.301C240.967 203.074 241.093 202.767 241.093 202.447C241.093 202.127 240.967 201.82 240.743 201.594C240.519 201.367 240.216 201.24 239.899 201.24H183.614Z" fill="white"/>
<path d="M183.614 208.481C183.297 208.481 182.994 208.609 182.77 208.835C182.546 209.061 182.42 209.368 182.42 209.688C182.42 210.008 182.546 210.315 182.77 210.542C182.994 210.768 183.297 210.895 183.614 210.895H239.899C240.216 210.895 240.519 210.768 240.743 210.542C240.967 210.315 241.093 210.008 241.093 209.688C241.093 209.368 240.967 209.061 240.743 208.835C240.519 208.609 240.216 208.481 239.899 208.481H183.614Z" fill="white"/>
<path d="M155.008 226.129C154.646 226.13 154.298 226.274 154.042 226.53C153.785 226.786 153.641 227.134 153.641 227.496V250.385C153.641 250.748 153.785 251.095 154.042 251.351C154.298 251.608 154.646 251.752 155.008 251.752H247.338C247.7 251.752 248.048 251.608 248.305 251.351C248.561 251.095 248.705 250.748 248.706 250.385V227.496C248.705 227.134 248.561 226.786 248.305 226.53C248.048 226.274 247.7 226.13 247.338 226.129H155.008Z" fill="#E6E6E6"/>
<path d="M166.917 246.182C170.864 246.182 174.065 242.94 174.065 238.941C174.065 234.942 170.864 231.7 166.917 231.7C162.969 231.7 159.768 234.942 159.768 238.941C159.768 242.94 162.969 246.182 166.917 246.182Z" fill="#EB850E"/>
<path d="M183.614 234.113C183.297 234.113 182.994 234.24 182.77 234.467C182.546 234.693 182.42 235 182.42 235.32C182.42 235.64 182.546 235.947 182.77 236.174C182.994 236.4 183.297 236.527 183.614 236.527H239.899C240.216 236.527 240.519 236.4 240.743 236.174C240.967 235.947 241.093 235.64 241.093 235.32C241.093 235 240.967 234.693 240.743 234.467C240.519 234.24 240.216 234.113 239.899 234.113H183.614Z" fill="white"/>
<path d="M183.614 241.354C183.297 241.354 182.994 241.482 182.77 241.708C182.546 241.934 182.42 242.241 182.42 242.561C182.42 242.881 182.546 243.188 182.77 243.415C182.994 243.641 183.297 243.768 183.614 243.768H239.899C240.216 243.768 240.519 243.641 240.743 243.415C240.967 243.188 241.093 242.881 241.093 242.561C241.093 242.241 240.967 241.934 240.743 241.708C240.519 241.482 240.216 241.354 239.899 241.354H183.614Z" fill="white"/>
<path opacity="0.2" d="M268.552 88.2453V114.627H19.3389V88.2453C19.3384 86.8324 19.6164 85.4333 20.1569 84.1279C20.6973 82.8225 21.4897 81.6364 22.4888 80.6373C23.4879 79.6382 24.674 78.8458 25.9794 78.3053C27.2848 77.7648 28.6839 77.4869 30.0968 77.4873H257.794C259.207 77.4869 260.606 77.7648 261.911 78.3053C263.216 78.8458 264.403 79.6382 265.402 80.6373C266.401 81.6363 267.193 82.8225 267.734 84.1279C268.274 85.4333 268.552 86.8324 268.552 88.2453V88.2453Z" fill="#EB850E"/>
<path d="M33.0063 103.251C36.9793 103.251 40.2001 100.031 40.2001 96.0576C40.2001 92.0845 36.9793 88.8638 33.0063 88.8638C29.0333 88.8638 25.8125 92.0845 25.8125 96.0576C25.8125 100.031 29.0333 103.251 33.0063 103.251Z" fill="white"/>
<path d="M53.936 103.251C57.909 103.251 61.1298 100.031 61.1298 96.0576C61.1298 92.0845 57.909 88.8638 53.936 88.8638C49.963 88.8638 46.7422 92.0845 46.7422 96.0576C46.7422 100.031 49.963 103.251 53.936 103.251Z" fill="white"/>
<path d="M74.8662 103.251C78.8392 103.251 82.06 100.031 82.06 96.0576C82.06 92.0845 78.8392 88.8638 74.8662 88.8638C70.8931 88.8638 67.6724 92.0845 67.6724 96.0576C67.6724 100.031 70.8931 103.251 74.8662 103.251Z" fill="white"/>
<path d="M79.8024 264.147C79.8024 264.147 72.8465 265.83 70.0931 268.977C69.0625 270.043 67.7935 270.85 66.3903 271.33V266.571C67.9807 263.899 69.5859 260.927 69.5859 260.927C69.6583 260.781 70.238 258.732 70.238 258.732C71.5422 257.708 70.1655 254.122 70.1655 254.122C70.1655 254.122 70.9626 251.854 70.5278 251.414C70.0931 250.975 70.4554 249.805 70.8176 249.292C71.0816 248.8 71.183 248.236 71.1075 247.682C71.1075 247.243 70.5278 246.585 69.5859 246.219C68.6439 245.853 69.6583 245.268 70.238 245.121C70.8177 244.975 70.9626 243.585 70.3105 242.853C69.6583 242.121 70.3829 241.682 70.7452 240.877C71.1075 240.072 69.5859 240.218 69.5859 240.218V232.829L69.5866 232.828C69.5866 232.828 69.1519 230.413 68.7171 226.168C68.2824 221.924 66.6151 221.485 66.6151 221.485C65.7215 221.208 64.8497 220.866 64.0067 220.46C63.1183 220.044 62.1971 219.702 61.2526 219.437C60.0532 219.425 58.8604 219.259 57.7029 218.945C56.9176 218.679 56.1044 218.503 55.2792 218.421C55.19 218.379 55.1053 218.335 55.0183 218.291C53.0567 217.295 51.5022 215.648 50.6209 213.633C50.5762 213.532 50.5352 213.433 50.4949 213.334C50.928 212.859 51.3158 212.344 51.6534 211.797L51.6608 211.785C51.6616 211.86 51.6641 211.934 51.6641 212.009C51.6641 212.04 51.663 212.072 51.663 212.103C51.6623 212.283 51.6605 212.464 51.6555 212.644L51.6565 212.642L51.6564 212.658C52.8132 210.616 56.165 210.15 56.4842 207.819C56.4982 207.713 56.5052 207.607 56.5053 207.5L56.5057 207.485C56.5057 207.407 56.502 207.328 56.4962 207.25C56.4529 206.599 56.2303 205.951 56.1868 205.293C56.176 205.105 56.1791 204.916 56.1961 204.729L56.1972 204.739C56.347 202.929 57.7122 201.355 58.3374 199.597C58.504 199.124 58.6135 198.632 58.6636 198.133L58.6651 198.12C58.6804 197.969 58.6907 197.818 58.6958 197.666C58.6972 197.628 58.6972 197.591 58.698 197.553C58.6997 197.448 58.6991 197.342 58.696 197.237C58.6767 196.302 58.466 195.381 58.077 194.53C57.688 193.68 57.129 192.918 56.4343 192.292C55.2792 191.288 53.7524 190.657 52.9529 189.347C52.5798 188.735 52.3962 188.017 51.9897 187.428C51.224 186.318 49.8153 185.866 48.4854 185.705C47.1555 185.545 45.7842 185.599 44.5105 185.18C43.608 184.884 42.7888 184.359 41.8765 184.095C40.8826 183.829 39.8311 183.874 38.8633 184.223C37.8954 184.572 37.0575 185.208 36.462 186.048C35.9812 186.749 35.6664 187.589 35.0186 188.136C33.6909 189.258 31.4383 188.771 30.2748 190.066C29.6359 190.777 29.5626 191.745 29.6402 192.736L29.6429 192.771C29.6491 192.848 29.6562 192.924 29.664 193.001C29.6676 193.037 29.6711 193.073 29.675 193.109C29.6792 193.147 29.6836 193.185 29.6881 193.223C29.7291 193.578 29.7805 193.931 29.8251 194.272C29.8319 194.324 29.837 194.376 29.8433 194.428C29.8559 194.534 29.8682 194.639 29.8786 194.745C29.8862 194.823 29.8926 194.9 29.899 194.978C29.9069 195.073 29.9139 195.169 29.92 195.265C29.9248 195.341 29.9299 195.416 29.9336 195.491C30.0647 198.193 29.4921 200.882 28.2717 203.296C27.1756 205.448 25.5452 207.429 25.2613 209.832C25.2171 210.226 25.2066 210.623 25.2301 211.018C25.2325 211.064 25.2334 211.111 25.2366 211.157C25.2417 211.229 25.2493 211.3 25.2562 211.371C25.2639 211.452 25.2712 211.534 25.2812 211.616C25.287 211.662 25.2941 211.709 25.3005 211.755C25.3154 211.863 25.3312 211.971 25.3494 212.079C25.3534 212.103 25.3578 212.126 25.3619 212.149C25.6498 213.787 26.3016 215.403 26.6491 217.046C26.7779 217.657 26.8644 218.275 26.9081 218.897L26.9088 218.91C26.9225 219.108 26.932 219.306 26.9372 219.504C26.944 219.772 26.9405 220.04 26.9316 220.308C26.3814 220.52 25.8171 220.693 25.2427 220.827C24.2275 220.974 21.2561 223.608 21.4734 224.267C21.6886 224.916 20.1431 229.542 20.0997 229.678L20.0975 229.68L20.098 229.681L20.0975 229.681L17.653 246.512C17.653 246.512 16.3622 247.756 16.7656 248.561C17.169 249.366 16.6875 250.756 16.6875 250.756C16.6875 250.756 14.5066 251.707 14.9907 252.293C15.4748 252.878 15.2539 253.976 14.9206 254.707C14.5873 255.439 14.0437 256.756 14.9206 256.976C15.7975 257.195 15.0714 260.049 15.0714 260.049C15.0714 260.049 18.1296 259.698 17.9049 261.513C17.8332 262.092 20.0439 263.681 20.967 264.317V273.06C19.7316 272.737 18.5209 272.326 17.3441 271.831C15.4602 270.953 4.88142 269.27 2.56278 274.319C0.244145 279.368 5.75092 286.1 7.1276 286.832C7.1276 286.832 8.43186 287.856 8.72166 288.369C9.01147 288.881 10.678 289.027 10.678 289.027C10.678 289.027 12.417 289.832 12.8517 290.271C13.1725 290.595 15.8205 291.437 18.9618 292.091L18.9612 292.091C18.9612 292.091 16.4251 297.93 20.5623 297.448C24.6994 296.966 26.715 294.93 29.6322 294.93C30.798 294.93 32.9631 294.768 35.1427 294.573C35.6896 294.669 36.2304 294.796 36.7627 294.955C37.9909 295.339 39.2523 295.609 40.5305 295.76C40.5305 295.76 43.791 297.516 45.53 297.077C45.6744 297.033 45.8087 296.961 45.9251 296.865C45.9382 296.862 45.9519 296.86 45.9648 296.857C46.3967 296.671 46.7619 296.358 47.0121 295.959C49.1884 296.182 51.6663 296.499 52.599 296.859C54.4023 297.555 67.2913 296.591 67.2913 296.591C67.2913 296.591 75.6187 296.755 78.0055 297.476C80.3924 298.198 79.5437 290.109 75.1413 289.199C73.961 288.973 72.7611 288.867 71.5595 288.882C71.8646 288.568 72.1429 288.23 72.3916 287.87C73.9781 287.726 75.0202 287.637 75.0202 287.637C75.0202 287.637 79.2227 285.588 81.6138 284.344C83.1424 283.514 84.5153 282.424 85.6714 281.124C85.6714 281.124 87.7727 279.807 88.6422 279.295C89.5117 278.783 89.9464 277.1 89.9464 277.1C96.54 262.171 79.8024 264.147 79.8024 264.147ZM60.9335 245.421C60.9341 245.175 60.935 244.928 60.9359 244.683C61.1675 244.85 61.1335 245.112 60.9335 245.421ZM61.0023 250.596C61.1776 250.827 61.3482 251.038 61.4706 251.195C61.9389 251.795 61.0912 252.088 61.1527 253.095C61.1665 253.321 61.1858 253.634 61.2073 253.982H61.2072C61.118 252.54 61.0453 251.343 61.0023 250.596H61.0023Z" fill="url(#paint0_linear)"/>
<path d="M23.2856 273.691C23.2856 273.691 19.228 272.749 17.3441 271.879C15.4602 271.01 4.88142 269.343 2.56278 274.343C0.244146 279.343 5.75091 286.009 7.1276 286.733C8.50429 287.458 21.9089 277.531 21.9089 277.531L32.4877 281.987L34.5165 275.068L23.2856 273.691Z" fill="#65617D"/>
<path d="M66.4194 275.067H35.1282C31.0585 275.067 27.7593 278.367 27.7593 282.436V283.711C27.7593 287.781 31.0585 291.08 35.1282 291.08H66.4194C70.4892 291.08 73.7884 287.781 73.7884 283.711V282.436C73.7884 278.367 70.4892 275.067 66.4194 275.067Z" fill="#65617D"/>
<path opacity="0.1" d="M73.7884 283.073C73.7885 285.197 72.9451 287.233 71.4438 288.735C69.9424 290.237 67.9061 291.081 65.7826 291.081H35.7657C33.6421 291.081 31.6055 290.238 30.104 288.736C28.6024 287.234 27.7588 285.198 27.7588 283.074C27.7588 280.951 28.6024 278.914 30.104 277.413C31.6055 275.911 33.6421 275.067 35.7657 275.067H65.7826C67.9058 275.068 69.942 275.911 71.4433 277.412C72.9447 278.914 73.7882 280.95 73.7884 283.073V283.073Z" fill="black"/>
<path d="M48.727 283.542C48.727 283.542 44.1124 284.727 40.3465 284.674C36.5806 284.621 18.9612 291.94 18.9612 291.94C18.9612 291.94 16.4251 297.722 20.5623 297.244C24.6994 296.767 26.715 294.752 29.6323 294.752C32.5495 294.752 41.7256 293.744 41.7256 293.744L50.5565 287.22L48.727 283.542Z" fill="#FBBEBE"/>
<path d="M51.6166 228.984L43.3369 230.617L42.8 230.723C42.8 230.723 36.2549 228.984 36.0375 228.839C35.8202 228.695 29.8794 220.687 29.8794 220.687C29.8794 220.687 32.8835 220.72 35.2441 219.359C35.3289 219.311 35.4115 219.259 35.4941 219.207C36.5355 218.583 37.3272 217.616 37.733 216.472C37.7743 216.353 37.8113 216.229 37.8461 216.101C38.116 214.925 38.0921 213.7 37.7765 212.536C36.9766 209.158 38.8308 208.228 41.3023 208.308C44.8715 208.425 49.732 210.653 49.732 210.653C49.7943 211.79 50.0524 212.908 50.4949 213.957C50.5341 214.055 50.5775 214.153 50.621 214.253C51.5071 216.254 53.0617 217.885 55.0185 218.866C55.1054 218.909 55.1902 218.953 55.2793 218.994C55.5423 219.12 55.8206 219.24 56.1097 219.348C62.4135 221.739 51.6166 228.984 51.6166 228.984Z" fill="#FBBEBE"/>
<path opacity="0.1" d="M50.6209 214.253C49.0471 216.036 46.9115 217.229 44.5677 217.632C42.2239 218.036 39.8126 217.627 37.733 216.473C38.123 215.192 38.1381 213.826 37.7764 212.536C35.8201 204.276 49.7319 210.654 49.7319 210.654C49.8018 211.898 50.1033 213.119 50.6209 214.253V214.253Z" fill="black"/>
<path d="M53.2339 206.915C53.237 208.867 52.6893 210.781 51.6536 212.436C51.3157 212.978 50.9278 213.488 50.4951 213.958C48.6701 215.96 46.135 217.17 43.4305 217.329C43.2218 217.342 43.0109 217.349 42.8001 217.349C40.7365 217.349 38.7192 216.737 37.0033 215.59C35.2875 214.444 33.9502 212.814 33.1604 210.908C32.3707 209.001 32.1641 206.903 32.5667 204.879C32.9693 202.855 33.963 200.996 35.4222 199.537C36.8814 198.078 38.7406 197.084 40.7645 196.681C42.7885 196.279 44.8864 196.485 46.7929 197.275C48.6995 198.065 50.329 199.402 51.4755 201.118C52.622 202.834 53.2339 204.851 53.2339 206.915V206.915Z" fill="#FBBEBE"/>
<path opacity="0.1" d="M51.6166 228.984L43.3369 230.617L42.8 230.723C42.8 230.723 36.2549 228.984 36.0375 228.839C35.8202 228.695 29.8794 220.687 29.8794 220.687C29.8794 220.687 32.8835 220.72 35.2441 219.359C35.3289 219.311 35.4115 219.259 35.4941 219.207C36.3983 220.176 37.4913 220.951 38.7059 221.482C39.9205 222.013 41.2309 222.29 42.5565 222.296C43.05 222.293 43.5426 222.254 44.0303 222.178C45.1954 222 46.3692 221.885 47.5409 221.763C49.7842 221.529 53.2165 220.848 55.0185 218.866C55.1054 218.909 55.1902 218.953 55.2793 218.994C55.5423 219.12 55.8206 219.24 56.1097 219.348C62.4135 221.739 51.6166 228.984 51.6166 228.984Z" fill="black"/>
<path d="M60.9636 250.141C61.0354 251.737 62.1961 269.705 62.1961 269.705H26.0384L26.2841 258.393L26.4819 249.344L26.5471 246.374L26.8362 236.086L25.7906 235.164L20.0977 230.143L20.0998 230.141C20.1433 230.006 21.6888 225.426 21.4736 224.783C21.2563 224.131 24.2277 221.522 25.2429 221.377C25.8208 221.244 26.3888 221.071 26.9427 220.859C28.6512 220.259 30.9315 219.377 31.1836 219.514C31.538 219.705 35.0942 219.375 35.2441 219.359H35.2485C36.1542 220.412 37.2753 221.258 38.5362 221.839C39.797 222.421 41.168 222.725 42.5565 222.731C43.05 222.728 43.5426 222.689 44.0303 222.613C45.1954 222.435 46.3693 222.32 47.5409 222.198C49.8972 221.953 53.5621 221.214 55.2794 218.994C56.1043 219.075 56.9174 219.25 57.7031 219.514C58.8611 219.825 60.0538 219.988 61.2528 220.001C62.1969 220.263 63.118 220.601 64.0069 221.014C64.8503 221.415 65.7222 221.755 66.6153 222.029C66.6153 222.029 68.2826 222.463 68.7173 226.665C69.1521 230.869 69.5868 233.26 69.5868 233.26L60.9636 240.723C60.9636 240.723 60.8919 248.548 60.9636 250.141Z" fill="#EB850E"/>
<path d="M20.0972 262.677L21.3642 264.706L26.1112 266.379L29.3718 260.431L26.3657 258.402L21.5463 256.519L18.793 258.112L20.0972 262.677Z" fill="#FBBEBE"/>
<path d="M60.6015 272.676C60.6015 272.676 67.34 272.169 70.0934 269.053C72.8468 265.938 79.8027 264.271 79.8027 264.271C79.8027 264.271 96.5404 262.315 89.9467 277.096C89.9467 277.096 89.512 278.763 88.6425 279.27C87.773 279.777 85.6718 281.081 85.6718 281.081L59.9541 278.835L60.6015 272.676Z" fill="#65617D"/>
<path opacity="0.1" d="M73.7886 283.073C73.7907 284.648 73.327 286.188 72.4561 287.499C68.1304 287.884 58.5486 288.784 56.5445 289.342C54.0817 290.025 49.0973 288.836 48.5517 288.701C48.5191 288.695 48.5017 288.69 48.5017 288.69C48.5017 288.69 47.5409 285.775 47.0823 283.91C46.8757 283.063 46.7714 282.432 46.9062 282.387C47.3409 282.241 51.3275 281.154 51.2536 281.769C51.1819 282.387 63.2091 277.096 63.2091 277.096L63.5786 281.734C64.8046 283.14 73.7886 281.061 73.7886 283.073Z" fill="black"/>
<path d="M86.179 279.197L85.6718 281.081C84.5135 282.37 83.1407 283.449 81.6142 284.269C79.2231 285.501 75.0205 287.53 75.0205 287.53C75.0205 287.53 59.5871 288.834 56.9787 289.559C54.3702 290.283 48.9359 288.907 48.9359 288.907C48.9359 288.907 46.9071 282.748 47.3418 282.603C47.7766 282.458 51.7617 281.371 51.6893 281.987C51.6168 282.603 63.6447 277.313 63.6447 277.313L86.179 279.197Z" fill="#65617D"/>
<path d="M43.2104 295.441C43.2104 295.441 50.7953 295.971 52.5987 296.661C54.4021 297.351 67.291 296.396 67.291 296.396C67.291 296.396 75.6184 296.558 78.0053 297.272C80.3921 297.987 79.5435 289.978 75.1411 289.076C70.7387 288.175 64.5329 289.501 64.5329 289.501C64.5329 289.501 57.5315 288.599 56.6828 288.493C55.8342 288.387 50.2395 288.544 50.2395 288.544L43.2104 295.441Z" fill="#FBBEBE"/>
<path opacity="0.1" d="M13.4019 275.445C13.4019 275.445 23.4266 276.347 26.1847 277.991L13.4019 275.445Z" fill="black"/>
<path opacity="0.1" d="M75.9372 268.868C75.9372 268.868 68.0871 270.777 65.0107 273.588L75.9372 268.868Z" fill="black"/>
<path opacity="0.1" d="M13.9854 273.164C14.1445 273.217 18.5999 273.801 18.4938 274.225C18.3878 274.649 13.9854 273.164 13.9854 273.164Z" fill="black"/>
<path opacity="0.1" d="M6.98291 284.342L7.56257 286.516C8.15182 286.959 8.68686 287.469 9.15663 288.037C9.44646 288.545 11.113 288.689 11.113 288.689C11.113 288.689 12.852 289.487 13.2867 289.921C13.7214 290.356 18.4312 291.733 22.8511 292.312C27.271 292.892 35.4587 293.979 37.1976 294.559C38.4264 294.94 39.6877 295.206 40.9654 295.356C40.9654 295.356 44.226 297.095 45.965 296.66C47.704 296.225 50.6747 288.327 50.6747 288.327C50.6747 288.327 39.2264 285.646 38.8641 284.777C38.5019 283.907 27.4883 279.852 27.4883 279.852L20.9672 280.006L6.98291 284.342Z" fill="black"/>
<path d="M6.54785 284.559L7.12751 286.733C7.71676 287.176 8.2518 287.687 8.72157 288.255C9.0114 288.762 10.6779 288.907 10.6779 288.907C10.6779 288.907 12.4169 289.704 12.8516 290.139C13.2864 290.573 17.9961 291.95 22.416 292.53C26.8359 293.109 35.0236 294.196 36.7626 294.776C37.9913 295.157 39.2526 295.424 40.5304 295.573C40.5304 295.573 43.7909 297.312 45.5299 296.877C47.2689 296.442 50.2396 288.544 50.2396 288.544C50.2396 288.544 38.7914 285.864 38.4291 284.994C38.0668 284.125 21.9088 277.531 21.9088 277.531L16.8368 276.372L6.54785 284.559Z" fill="#65617D"/>
<path d="M21.3641 229.419L20.0975 230.144L17.653 246.809C17.653 246.809 16.3622 248.041 16.7656 248.838C17.169 249.635 16.6875 251.012 16.6875 251.012C16.6875 251.012 14.5067 251.954 14.9907 252.533C15.4748 253.113 15.2539 254.2 14.9206 254.924C14.5873 255.649 14.0437 256.953 14.9206 257.171C15.7975 257.388 15.0714 260.214 15.0714 260.214C15.0714 260.214 18.1296 259.866 17.905 261.663C17.8144 262.388 21.3641 264.706 21.3641 264.706C21.3641 264.706 17.3303 257.388 26.366 258.402L27.1429 254.276C27.1429 254.276 27.9197 251.954 27.1429 251.229C26.366 250.505 27.3175 247.063 27.3175 247.063L27.4881 232.1L21.3641 229.419Z" fill="#EB850E"/>
<path opacity="0.1" d="M19.3955 250.94C19.5546 251.205 24.4344 251.746 24.7526 252.616C25.0709 253.486 19.3955 250.94 19.3955 250.94Z" fill="black"/>
<path opacity="0.1" d="M17.8574 255.077C17.8574 255.077 18.5191 253.009 20.0977 253.38C21.6764 253.751 17.8574 255.077 17.8574 255.077Z" fill="black"/>
<path opacity="0.1" d="M17.0088 258.101C17.0088 258.101 18.1757 255.342 19.7669 255.555C21.3581 255.767 17.0088 258.101 17.0088 258.101Z" fill="black"/>
<path d="M70.0931 258.04L69.5859 261.083C69.5859 261.083 64.3689 270.647 63.427 270.792C62.485 270.937 57.3406 264.416 57.3406 264.416L55.9639 258.04L61.3838 257.013L63.7893 254.634C63.7893 254.634 69.8757 255.214 70.0931 258.04Z" fill="#FBBEBE"/>
<path d="M67.6299 231.883L69.5862 233.26V240.578C69.5862 240.578 71.1078 240.433 70.7456 241.23C70.3833 242.027 69.6587 242.462 70.3108 243.186C70.9629 243.911 70.818 245.287 70.2384 245.432C69.6587 245.577 68.6443 246.157 69.5862 246.519C70.5282 246.882 71.1078 247.534 71.1078 247.968C71.1833 248.517 71.0818 249.076 70.818 249.562C70.4557 250.07 70.0934 251.229 70.5282 251.664C70.9629 252.098 70.1659 254.345 70.1659 254.345C70.1659 254.345 71.5426 257.895 70.2383 258.909C70.2383 258.909 69.6587 260.938 69.5862 261.083C69.5862 261.083 70.4993 254.029 61.3841 257.013C61.3841 257.013 61.2145 254.325 61.153 253.328C61.0915 252.33 61.9393 252.041 61.471 251.446C61.0027 250.852 59.8306 249.49 60.3841 249.128C60.9376 248.766 60.7464 248.113 60.529 247.606C60.3117 247.099 59.5443 247.099 60.2387 246.483C60.9332 245.867 61.3429 245.289 60.936 244.998C60.529 244.708 59.8211 243.764 60.3841 243.331C60.9471 242.898 60.9638 236.593 60.9638 236.593C60.9638 236.593 63.2825 227.318 67.6299 231.883Z" fill="#EB850E"/>
<path opacity="0.1" d="M66.708 244.35C66.708 244.35 69.4938 243.594 69.5861 244.35C69.6783 245.106 66.708 244.35 66.708 244.35Z" fill="black"/>
<path opacity="0.1" d="M63.5786 246.431C63.5786 246.431 67.3976 245.477 67.8749 246.219C68.3523 246.962 63.5786 246.431 63.5786 246.431Z" fill="black"/>
<path opacity="0.1" d="M62.73 248.447C62.73 248.447 68.4584 247.651 68.8297 248.818C69.201 249.985 62.73 248.447 62.73 248.447Z" fill="black"/>
<path opacity="0.1" d="M63.5786 250.94C63.7908 250.993 69.0949 251.364 69.2009 252.372C69.307 253.38 63.5786 250.94 63.5786 250.94Z" fill="black"/>
<path d="M61.7405 254.206H25.6165C23.0485 254.206 20.9668 256.288 20.9668 258.856V275.357C20.9668 277.924 23.0485 280.006 25.6165 280.006H61.7405C64.3084 280.006 66.3901 277.924 66.3901 275.357V258.856C66.3901 256.288 64.3084 254.206 61.7405 254.206Z" fill="#3F3D56"/>
<path d="M43.6788 268.781C44.6042 268.781 45.3543 268.031 45.3543 267.106C45.3543 266.181 44.6042 265.431 43.6788 265.431C42.7535 265.431 42.0034 266.181 42.0034 267.106C42.0034 268.031 42.7535 268.781 43.6788 268.781Z" fill="#E7EFFD"/>
<path opacity="0.1" d="M28.5752 238.394C28.5752 238.394 32.9285 241.721 36.2948 239.185C36.2948 239.185 30.604 239.703 28.5752 238.394Z" fill="black"/>
<path opacity="0.1" d="M50.6211 239.288C50.6211 239.288 54.9744 242.615 58.3407 240.079C58.3407 240.079 52.6499 240.597 50.6211 239.288Z" fill="black"/>
<path opacity="0.1" d="M53.2337 206.915C53.2367 208.867 52.689 210.781 51.6534 212.436C51.5664 209.53 50.8817 206.624 49.3014 204.198C47.8537 201.974 43.4541 198.076 40.4283 199.161C40.1119 199.278 39.8273 199.467 39.5977 199.714C39.3681 199.961 39.1999 200.259 39.1067 200.583C38.8067 201.722 39.6849 202.196 40.2479 203.102C41.2045 204.658 41.5781 206.503 41.3021 208.308C41.2636 208.551 41.2128 208.792 41.15 209.03C40.6739 210.817 39.5827 212.862 40.7087 214.329C41.4934 215.351 43.1802 215.703 43.4085 216.97C43.4296 217.089 43.4369 217.209 43.4302 217.329C43.378 218.181 42.6498 218.933 42.3325 219.772C41.9586 220.759 42.1694 221.74 42.5564 222.731C43.0607 224.024 43.8628 225.333 44.0562 226.698C44.2475 228.043 43.8323 229.33 43.3367 230.617C42.8033 231.799 42.4023 233.036 42.1412 234.306C41.7912 236.714 42.6737 239.499 41.1587 241.403C41.0047 241.633 40.7667 241.794 40.4957 241.851C39.524 241.953 39.6892 240.208 38.9088 239.621C38.9915 240.636 39.0697 241.692 38.7024 242.642C38.3328 243.592 37.3764 244.396 36.3699 244.238C36.2547 243.479 36.1395 242.72 36.0243 241.96C35.3401 242.633 34.5165 243.149 33.6115 243.47C33.9666 241.047 34.8239 238.724 36.1287 236.651C33.5767 237.879 32.0899 240.54 30.7618 243.04C29.9336 244.603 29.0771 246.311 29.3662 248.057C29.4836 248.768 29.7901 249.444 29.8575 250.161C29.9249 250.878 29.664 251.713 28.9967 251.987C28.6967 252.08 28.3756 252.08 28.0757 251.986C27.7758 251.893 27.5111 251.712 27.3164 251.465C27.2925 251.437 27.2686 251.409 27.2447 251.378C27.2031 251.326 27.1646 251.272 27.1295 251.215C27.0562 251.106 26.9915 250.991 26.936 250.872C26.7536 250.443 26.6166 249.997 26.5273 249.539L26.4817 249.344C25.8079 246.381 25.1992 243.327 25.6926 240.331C25.8752 239.227 26.2078 238.134 26.1687 237.014C26.1388 236.382 26.0112 235.758 25.7905 235.165C25.1992 233.508 24.0602 231.984 23.4102 230.315C23.4042 230.303 23.3992 230.291 23.395 230.278C23.0537 229.393 22.8864 228.289 23.5167 227.58C23.882 227.254 24.2892 226.979 24.7275 226.761C25.9883 225.939 26.5534 224.381 26.7838 222.894C26.8898 222.221 26.9429 221.541 26.9425 220.859C28.651 220.259 30.9313 219.377 31.1834 219.514C31.5378 219.705 35.094 219.375 35.244 219.359C36.4021 218.738 37.2888 217.71 37.7329 216.473C37.7742 216.353 37.8111 216.229 37.8459 216.101C36.2223 215.226 34.8598 213.935 33.8972 212.362C32.9346 210.788 32.4062 208.988 32.366 207.144C32.3257 205.3 32.7749 203.478 33.668 201.864C34.561 200.25 35.8659 198.902 37.4497 197.956C39.0335 197.011 40.8396 196.502 42.684 196.482C44.5285 196.461 46.3453 196.93 47.9495 197.841C49.5537 198.751 50.8878 200.071 51.8161 201.665C52.7443 203.259 53.2335 205.07 53.2337 206.915V206.915Z" fill="black"/>
<path d="M41.1497 208.594C40.673 210.382 39.583 212.427 40.7095 213.894C41.4944 214.917 43.1808 215.268 43.4075 216.537C43.5869 217.541 42.6932 218.384 42.3324 219.338C41.4717 221.614 43.7146 223.853 44.0555 226.262C44.4253 228.876 42.5207 231.259 42.1411 233.872C41.7912 236.28 42.6739 239.064 41.1581 240.967C41.0049 241.198 40.7667 241.359 40.4953 241.416C39.524 241.519 39.6887 239.774 38.9078 239.187C38.9918 240.202 39.0703 241.258 38.7019 242.208C38.3336 243.158 37.3764 243.962 36.3702 243.803L36.0244 241.524C35.3397 242.198 34.5161 242.714 33.6112 243.036C33.9667 240.612 34.8241 238.29 36.1286 236.217C33.5778 237.446 32.0904 240.105 30.7628 242.606C29.9336 244.168 29.078 245.876 29.3669 247.621C29.4847 248.333 29.7906 249.008 29.858 249.726C29.9254 250.444 29.6642 251.278 28.9968 251.552C28.678 251.648 28.3371 251.641 28.0226 251.532C27.7081 251.423 27.436 251.217 27.2451 250.944C26.8752 250.39 26.6305 249.762 26.5281 249.104C25.8359 246.08 25.1879 242.957 25.6936 239.896C25.8761 238.792 26.2084 237.698 26.1683 236.579C26.0806 234.133 24.2754 232.127 23.3941 229.843C23.0527 228.959 22.8866 227.855 23.516 227.145C23.882 226.82 24.2896 226.544 24.7282 226.326C25.9883 225.504 26.5541 223.946 26.7848 222.46C27.0337 220.851 26.9874 219.211 26.6483 217.619C26.1394 215.236 24.9727 212.91 25.2614 210.49C25.5452 208.111 27.1757 206.149 28.2717 204.018C29.6819 201.26 30.2232 198.14 29.8243 195.069C29.6353 193.64 29.3059 191.985 30.2748 190.918C31.4383 189.636 33.6909 190.118 35.0186 189.007C35.6664 188.465 35.9812 187.634 36.4621 186.939C37.0625 186.106 37.9017 185.476 38.8686 185.131C39.8355 184.785 40.8844 184.742 41.8765 185.006C42.7888 185.268 43.608 185.787 44.5105 186.08C45.7842 186.495 47.1555 186.441 48.4854 186.6C49.8153 186.759 51.224 187.207 51.9897 188.306C52.3961 188.889 52.5798 189.601 52.9529 190.206C53.7525 191.504 55.2792 192.128 56.4343 193.122C57.4253 194.006 58.1342 195.161 58.4725 196.445C58.8108 197.729 58.7635 199.084 58.3365 200.341C57.6468 202.262 56.0511 203.959 56.1868 205.996C56.2426 206.832 56.5983 207.652 56.4834 208.483C56.1642 210.791 52.8124 211.252 51.6555 213.274C51.7476 209.959 51.1115 206.542 49.3018 203.763C47.8535 201.538 43.4537 197.641 40.4289 198.726C40.1124 198.842 39.8278 199.032 39.5981 199.279C39.3684 199.526 39.2001 199.824 39.1067 200.148C38.8074 201.287 39.6845 201.76 40.2474 202.668C40.7885 203.544 41.1473 204.521 41.3024 205.539C41.4574 206.557 41.4055 207.597 41.1497 208.594V208.594Z" fill="#3F3D56"/>
<g opacity="0.2">
<path opacity="0.2" d="M26.9381 220.084C26.9629 219.042 26.8659 218.001 26.6492 216.981C26.2165 214.955 25.3116 212.97 25.2266 210.934C25.1105 213.2 26.1705 215.391 26.6492 217.633C26.8208 218.44 26.9176 219.26 26.9381 220.084Z" fill="black"/>
<path opacity="0.2" d="M35.5732 236.534C35.7496 236.211 35.9327 235.891 36.1292 235.579C33.5784 236.808 32.091 239.467 30.7635 241.968C29.9955 243.414 29.2069 244.987 29.3236 246.597C29.4204 245.215 30.0995 243.871 30.7635 242.62C31.9911 240.307 33.3575 237.861 35.5732 236.534Z" fill="black"/>
<path opacity="0.2" d="M29.8457 249.642C29.8274 249.91 29.7395 250.168 29.5907 250.391C29.4419 250.614 29.2374 250.794 28.9974 250.914C28.6787 251.01 28.3378 251.003 28.0233 250.894C27.7088 250.785 27.4367 250.579 27.2458 250.306C26.8759 249.752 26.6312 249.124 26.5288 248.466C25.97 246.313 25.6319 244.109 25.5198 241.887C25.4713 244.307 25.9851 246.743 26.5288 249.118C26.6312 249.777 26.8759 250.404 27.2458 250.958C27.4367 251.231 27.7088 251.437 28.0233 251.546C28.3378 251.655 28.6787 251.662 28.9974 251.566C29.6649 251.292 29.9261 250.458 29.8587 249.74C29.8556 249.707 29.8497 249.675 29.8457 249.642Z" fill="black"/>
<path opacity="0.2" d="M41.3854 206.416C41.3626 206.936 41.2839 207.453 41.1504 207.957C40.797 209.282 40.1075 210.748 40.2328 212.016C40.329 210.913 40.8562 209.712 41.1504 208.609C41.3386 207.894 41.4178 207.155 41.3854 206.416V206.416Z" fill="black"/>
<path opacity="0.2" d="M29.9496 196.743C29.9675 195.97 29.9259 195.197 29.825 194.431C29.7503 193.866 29.6548 193.267 29.6251 192.682C29.6177 193.486 29.6846 194.29 29.825 195.083C29.8973 195.633 29.9389 196.188 29.9496 196.743V196.743Z" fill="black"/>
<path opacity="0.2" d="M43.408 216.551C43.4048 216.533 43.3985 216.517 43.3947 216.5C43.2406 217.254 42.6194 217.942 42.3329 218.7C42.1643 219.153 42.1034 219.638 42.155 220.118C42.1803 219.856 42.2401 219.599 42.3329 219.352C42.6936 218.398 43.5874 217.555 43.408 216.551Z" fill="black"/>
<path opacity="0.2" d="M26.169 235.941C26.0813 233.495 24.2762 231.489 23.3949 229.205C23.2534 228.848 23.1582 228.473 23.1116 228.091C23.0624 228.694 23.1595 229.3 23.3949 229.857C24.2615 232.103 26.0176 234.081 26.1594 236.472C26.1698 236.296 26.1754 236.119 26.169 235.941Z" fill="black"/>
<path opacity="0.2" d="M49.3024 203.125C47.8541 200.9 43.4543 197.003 40.4295 198.088C40.113 198.204 39.8284 198.394 39.5987 198.641C39.369 198.888 39.2007 199.185 39.1073 199.51C39.036 199.758 39.0282 200.02 39.0846 200.272C39.092 200.235 39.0974 200.2 39.1073 200.162C39.2007 199.837 39.369 199.54 39.5987 199.293C39.8284 199.046 40.113 198.856 40.4295 198.74C43.4543 197.655 47.8541 201.552 49.3024 203.777C50.9414 206.294 51.6155 209.334 51.6601 212.348C51.7083 209.123 51.0598 205.824 49.3024 203.125Z" fill="black"/>
<path opacity="0.2" d="M56.4841 207.845C56.1656 210.148 52.8281 210.613 51.6642 212.623C51.6647 212.845 51.6621 213.067 51.6562 213.288C52.8131 211.266 56.1649 210.805 56.4841 208.497C56.5124 208.27 56.5131 208.041 56.4863 207.814C56.485 207.824 56.4855 207.835 56.4841 207.845Z" fill="black"/>
<path opacity="0.2" d="M58.3376 199.703C57.6478 201.624 56.0521 203.322 56.1878 205.358C56.1898 205.388 56.1947 205.418 56.1974 205.447C56.3472 203.655 57.7124 202.096 58.3376 200.355C58.6185 199.56 58.739 198.716 58.6922 197.874C58.6657 198.498 58.5462 199.114 58.3376 199.703V199.703Z" fill="black"/>
<path opacity="0.2" d="M41.159 240.329C41.0057 240.56 40.7675 240.721 40.4962 240.778C39.5248 240.881 39.6896 239.136 38.9087 238.549C38.9278 238.78 38.946 239.013 38.9593 239.247C39.6801 239.871 39.5474 241.531 40.4962 241.43C40.7676 241.374 41.0057 241.212 41.159 240.981C42.0237 239.896 42.1076 238.523 42.0854 237.097C42.0631 238.285 41.8909 239.41 41.159 240.329Z" fill="black"/>
<path opacity="0.2" d="M38.7025 241.57C38.3342 242.52 37.377 243.324 36.3708 243.165C36.2555 242.405 36.1403 241.646 36.025 240.886C35.371 241.528 34.5903 242.027 33.7327 242.351C33.689 242.583 33.646 242.816 33.6118 243.05C34.5167 242.728 35.3403 242.212 36.025 241.538C36.1403 242.298 36.2555 243.058 36.3708 243.817C37.377 243.976 38.3342 243.172 38.7025 242.222C38.9314 241.56 39.0226 240.859 38.9704 240.16C38.9591 240.642 38.8686 241.118 38.7025 241.57Z" fill="black"/>
<path opacity="0.2" d="M42.1418 233.234C42.0637 233.846 42.0342 234.464 42.0537 235.08C42.058 234.681 42.0875 234.282 42.1418 233.886C42.5037 231.396 44.2493 229.114 44.0921 226.643C43.9517 228.868 42.4717 230.964 42.1418 233.234Z" fill="black"/>
</g>
<path d="M317.115 44.8137V88.4297C317.115 90.7318 314.895 92.6035 312.153 92.6035H207.135C204.394 92.6035 202.173 90.7318 202.173 88.4297V44.8137C202.173 42.5076 204.394 40.1572 207.135 40.1572H312.153C314.895 40.1572 317.115 42.5076 317.115 44.8137Z" fill="white"/>
<path opacity="0.2" d="M317.115 45.119V57.287H202.173V45.119C202.173 44.4674 202.301 43.8221 202.551 43.22C202.8 42.6179 203.165 42.0708 203.626 41.6101C204.087 41.1493 204.634 40.7838 205.236 40.5345C205.838 40.2852 206.483 40.157 207.135 40.1572H312.153C312.805 40.157 313.45 40.2852 314.052 40.5345C314.654 40.7838 315.201 41.1493 315.662 41.6101C316.123 42.0708 316.488 42.6179 316.738 43.22C316.987 43.8221 317.115 44.4674 317.115 45.119V45.119Z" fill="#EB850E"/>
<path d="M208.477 52.0397C210.309 52.0397 211.795 50.5542 211.795 48.7217C211.795 46.8893 210.309 45.4038 208.477 45.4038C206.644 45.4038 205.159 46.8893 205.159 48.7217C205.159 50.5542 206.644 52.0397 208.477 52.0397Z" fill="white"/>
<path d="M218.13 52.0397C219.962 52.0397 221.448 50.5542 221.448 48.7217C221.448 46.8893 219.962 45.4038 218.13 45.4038C216.297 45.4038 214.812 46.8893 214.812 48.7217C214.812 50.5542 216.297 52.0397 218.13 52.0397Z" fill="white"/>
<path d="M227.783 52.0397C229.616 52.0397 231.101 50.5542 231.101 48.7217C231.101 46.8893 229.616 45.4038 227.783 45.4038C225.951 45.4038 224.465 46.8893 224.465 48.7217C224.465 50.5542 225.951 52.0397 227.783 52.0397Z" fill="white"/>
<path d="M105.989 132.8C109.049 134.851 113.689 133.874 113.689 133.874C113.689 133.874 120.699 130.555 122.772 130.555C124.845 130.555 129.88 128.504 129.88 128.504L129.71 127.122L129.196 122.956C132.387 125.443 135.932 124.585 137.68 124.403C139.555 124.208 149.574 118.252 150.538 117.861C150.899 117.643 151.201 117.339 151.416 116.975H151.418C152.064 115.988 152.631 114.951 153.114 113.876L153.113 113.876C153.741 113.324 154.199 112.88 154.167 112.784C154.301 112.214 154.507 111.663 154.78 111.145C155.857 110.989 156.891 110.617 157.82 110.05C157.975 109.924 158.116 109.781 158.24 109.625C158.622 109.133 158.822 108.524 158.807 107.902C158.807 107.902 168.581 98.0406 167.297 93.9397C166.014 89.8388 170.456 89.7412 170.456 89.7412C170.456 89.7412 177.268 86.812 178.216 85.0545C178.801 83.9726 183.909 81.6 187.755 79.9323C187.915 79.863 188.072 79.7949 188.228 79.7282C189.723 82.9991 197.298 80.4826 198.791 79.0985C200.37 77.6339 205.01 76.9504 205.01 76.9504C205.01 76.9504 205.208 57.8131 206.689 55.3721C207.392 54.2141 207.561 50.4354 207.544 46.7856C207.543 46.6559 207.542 46.5263 207.541 46.3971C209.615 45.9926 214.548 45.055 216.84 44.827C218.292 44.6825 219.805 43.7775 220.966 42.8976C221.055 43.0076 221.103 43.0695 221.103 43.0695C221.502 43.2336 221.934 43.3046 222.366 43.2772C222.747 43.318 223.132 43.2457 223.472 43.0695C224.36 42.5813 227.618 41.6049 228.803 41.1167C229.988 40.6285 228.606 37.1135 227.717 36.43C226.829 35.7465 226.236 34.8678 226.73 34.4772C227.224 34.0867 225.545 33.1103 224.558 32.915C223.571 32.7197 220.609 31.3528 220.609 31.3528C220.609 31.3528 219.523 29.1071 217.746 29.1071C215.969 29.1071 213.599 27.3495 213.599 27.3495C213.501 26.5684 211.625 26.4708 211.625 26.4708C211.625 26.4708 204.517 21.003 203.332 21.6864C202.147 22.3699 198.889 20.6124 198.889 20.6124C198.889 20.6124 194.894 21.0597 193.953 20.324L193.953 20.3195C193.947 20.0788 193.864 19.8464 193.716 19.6566C193.503 18.9968 192.471 18.0907 191.469 17.3364C191.545 16.87 191.583 16.3982 191.584 15.9257C191.584 15.7207 191.576 15.5156 191.562 15.3145C191.56 15.2806 191.555 15.2473 191.553 15.2135C191.599 14.7552 191.646 14.2969 191.692 13.8386C191.703 13.3861 191.821 12.9427 192.037 12.545C192.204 12.2882 192.449 12.0851 192.635 11.84C192.678 11.7815 192.719 11.7205 192.756 11.6573C192.766 11.6404 192.775 11.623 192.785 11.6058C192.812 11.5574 192.836 11.5083 192.859 11.4583C192.866 11.4415 192.874 11.4249 192.881 11.4079C192.938 11.2737 192.98 11.1344 193.009 10.9919C193.011 10.9807 193.013 10.9694 193.015 10.9582C193.028 10.8937 193.038 10.8286 193.045 10.7628L193.048 10.7356C193.088 10.1674 193.013 9.59702 192.826 9.05898C192.53 8.13736 192.067 7.24466 192.017 6.28278C192.04 5.80521 192.024 5.32652 191.967 4.85174C191.729 3.78559 190.631 3.10469 189.575 2.66238C188.116 2.05087 187.38 1.38232 186.207 0.472926C185.211 -0.299952 183.567 0.0881006 182.312 0.16863C179.448 0.352461 176.62 1.21444 173.927 2.1069C172.864 2.39352 171.868 2.88787 170.997 3.5614C170.448 4.02784 170.07 4.66468 169.925 5.37049L169.925 5.37022L169.925 5.3719C169.896 5.53461 169.885 5.69998 169.892 5.86506C169.893 5.87974 169.894 5.89438 169.895 5.90904C169.899 5.97218 169.906 6.03517 169.916 6.098C169.919 6.11854 169.922 6.13906 169.926 6.15954C169.94 6.23505 169.958 6.3097 169.981 6.38312L169.982 6.38899C170.096 6.74879 170.307 7.07513 170.429 7.43237C170.456 7.51145 170.479 7.59195 170.496 7.67349C170.498 7.68219 170.5 7.69093 170.502 7.69965C170.518 7.7778 170.532 7.85625 170.542 7.93503L170.542 7.93458C170.65 8.8226 170.323 9.74963 170.178 10.6544C170.157 10.7823 170.144 10.9127 170.134 11.0439L170.133 11.0434L170.133 11.048C170.09 11.5717 170.137 12.0988 170.27 12.607L170.274 12.6243C170.291 12.6869 170.311 12.7482 170.331 12.8096C170.34 12.8361 170.348 12.863 170.357 12.8892C170.376 12.9415 170.396 12.9925 170.417 13.0436C170.431 13.0778 170.444 13.1121 170.459 13.1457C170.479 13.1913 170.501 13.2357 170.523 13.2801C170.541 13.3177 170.56 13.3551 170.58 13.3918C170.602 13.4322 170.625 13.4718 170.648 13.5111C170.671 13.5498 170.695 13.5878 170.72 13.6253C170.744 13.6614 170.768 13.6969 170.794 13.7319C170.822 13.7703 170.851 13.8077 170.881 13.8447C170.907 13.8766 170.932 13.9084 170.959 13.9391C170.993 13.9768 171.028 14.0128 171.063 14.0486C171.09 14.0761 171.117 14.1041 171.145 14.1305C171.185 14.1672 171.227 14.2015 171.268 14.2359C171.296 14.2585 171.323 14.2821 171.352 14.3037C171.401 14.3405 171.453 14.3743 171.505 14.4079C171.53 14.4239 171.553 14.4414 171.579 14.4567C171.66 14.5048 171.743 14.5485 171.828 14.5876C172.395 14.8459 173.109 14.9383 173.452 15.4359C173.532 15.5537 173.588 15.6857 173.618 15.8248C173.618 15.8586 173.616 15.8919 173.616 15.9257V16.0116C173.62 16.3006 173.635 16.5857 173.665 16.8669C173.663 17.0216 173.671 17.1763 173.691 17.3297C173.708 17.4455 173.741 17.5584 173.787 17.6656C174.187 19.6327 175.243 21.4058 176.782 22.6943C176.81 22.8446 176.844 23.0214 176.883 23.2194C176.015 23.8763 175.044 24.385 174.01 24.725C171.641 25.4182 168.284 28.6189 168.284 28.6189C168.284 28.6189 166.616 40.6285 166.217 42.0931C165.816 43.5577 165.52 49.2208 165.52 49.2208C165.52 49.2208 165.125 51.5641 164.533 52.7358C164.114 53.5622 164.189 57.1099 165.36 59.2658C165.168 59.6895 164.923 60.0871 164.632 60.4494C162.262 63.1833 155.154 63.0856 152.784 63.0856C150.602 63.0856 149.929 64.4085 149.836 64.6174C145.499 65.8492 131.448 69.8596 129.781 70.5882C127.807 71.4514 126.721 79.9773 126.721 79.9773C126.721 79.9773 122.574 94.135 122.772 95.9979C122.969 97.8609 121.39 103.02 121.39 103.02C121.39 103.02 121.39 108.861 120.718 109.257C120.713 109.263 120.706 109.267 120.699 109.269C120.008 109.562 120.106 112.394 120.106 112.394C120.106 112.394 120.614 112.541 121.408 112.741C121.197 114.173 120.42 116.175 119.808 117.596C119.501 117.207 119.201 117.044 119.02 117.498C118.527 118.74 111.122 127.528 109.247 127.528C108.352 127.528 106.875 128.26 105.904 129.248C104.839 130.334 104.387 131.728 105.989 132.8ZM139.95 81.93C148.342 82.7112 157.326 81.3344 157.326 81.3344C157.326 81.3344 156.635 83.7852 156.042 84.7616C155.45 85.738 153.772 91.3034 153.772 92.4751C153.772 93.6468 151.106 103.704 150.316 104.192C149.926 104.523 149.63 104.952 149.457 105.434C149.249 105.919 149.075 106.417 148.934 106.926C148.946 107.181 148.97 107.421 149.002 107.649C148.412 108.19 147.788 108.756 147.232 109.258L147.232 109.257C147.232 109.257 143.702 111.222 142.517 112.296C141.332 113.37 135.804 114.686 135.804 114.686C134.437 115.275 133.11 115.952 131.831 116.713C130.118 117.747 128.403 119.058 127.956 120.354C128.15 118.172 128.466 115.543 128.676 113.871C128.784 113.869 128.889 113.864 128.992 113.858C131.758 113.686 131.345 111.046 131.199 110.392C131.179 110.298 131.164 110.246 131.164 110.246C133.138 108.097 137.581 92.0845 136.988 90.327C136.396 88.5695 137.482 87.0073 137.717 87.0073C137.952 87.0073 138.272 85.0545 137.778 83.9805C137.285 82.9065 139.95 81.93 139.95 81.93ZM207.811 38.8551C207.636 38.8972 207.462 38.9394 207.288 38.9844C207.283 38.9107 207.281 38.871 207.281 38.871C207.281 38.871 207.478 38.8708 207.811 38.8551V38.8551ZM179.125 24.1218C179.046 24.2196 178.966 24.3153 178.882 24.4067C178.848 24.4427 178.814 24.4768 178.781 24.5118C178.778 24.3285 178.778 24.1465 178.78 23.97C178.894 24.023 179.009 24.0736 179.125 24.1218V24.1218ZM169.235 43.0648L169.272 43.6143C169.272 43.6143 169.218 43.949 169.118 44.5236L169.235 43.0648ZM214.606 37.608L212.884 37.9049C213.128 37.8127 213.368 37.7123 213.601 37.6017C213.773 37.5204 213.959 37.4699 214.15 37.4524C214.368 37.4745 214.584 37.5207 214.792 37.5899C214.729 37.5916 214.667 37.5976 214.606 37.6079V37.608Z" fill="url(#paint1_linear)"/>
<path d="M156.344 108.102C156.344 108.102 154.36 112.208 154.457 112.498C154.554 112.789 150.193 116.277 150.193 116.277L145.445 112.886L145.93 110.56C145.93 110.56 151.259 105.758 151.647 105.204C152.034 104.65 156.344 108.102 156.344 108.102Z" fill="#BE6F72"/>
<path d="M129.263 121.994C132.558 125.192 136.434 124.223 138.275 124.029C140.116 123.836 149.949 117.925 150.895 117.537C151.251 117.32 151.547 117.018 151.757 116.657H151.759C152.393 115.677 152.949 114.649 153.424 113.582C153.358 113.599 150.135 114.52 149.321 113.58C149.321 113.58 147.964 111.917 147.674 111.917C147.383 111.917 147.65 108.999 147.65 108.999C147.65 108.999 144.185 110.948 143.023 112.014C141.86 113.08 136.434 114.386 136.434 114.386C135.091 114.971 133.789 115.643 132.534 116.398C129.965 117.965 127.389 120.177 129.263 121.994Z" fill="#3F3D56"/>
<path opacity="0.1" d="M129.263 121.994C132.558 125.192 136.434 124.223 138.275 124.029C140.116 123.835 149.949 117.925 150.895 117.537C151.251 117.32 151.547 117.017 151.757 116.657C150.61 115.973 143.119 120.735 141.023 121.607C138.928 122.479 133.623 121.994 130.62 120.735C129.12 120.107 130.639 118.175 132.534 116.397C129.965 117.965 127.389 120.176 129.263 121.994Z" fill="black"/>
<path d="M129.651 111.917C129.651 111.917 128.271 122.285 128.622 123.642C128.972 124.998 119.961 118.991 119.961 118.991C119.961 118.991 123.114 112.494 122.19 111.001C121.265 109.508 129.651 111.917 129.651 111.917Z" fill="#BE6F72"/>
<path d="M121.027 112.111C121.027 112.111 126.647 113.758 129.748 113.564C132.463 113.394 132.058 110.773 131.914 110.124C131.895 110.031 131.879 109.979 131.879 109.979C133.817 107.847 138.178 91.9559 137.596 90.2118C137.015 88.4676 138.081 86.9172 138.311 86.9172C138.542 86.9172 138.856 84.9793 138.371 83.9134C137.887 82.8475 140.503 81.8786 140.503 81.8786C148.74 82.6537 157.557 81.2875 157.557 81.2875C157.557 81.2875 156.879 83.7196 156.298 84.6886C155.716 85.6576 154.069 91.1807 154.069 92.3435C154.069 93.5063 151.453 103.487 150.677 103.971C150.294 104.301 150.003 104.726 149.834 105.204C149.63 105.685 149.459 106.18 149.321 106.684C149.612 113.177 156.976 110.657 158.042 109.785C158.356 109.528 158.607 109.202 158.775 108.832C158.943 108.463 159.024 108.059 159.011 107.653C159.011 107.653 168.604 97.8667 167.344 93.797C166.084 89.7273 170.445 89.6304 170.445 89.6304C170.445 89.6304 177.131 86.7234 178.061 84.9793C178.634 83.9057 183.648 81.5511 187.423 79.896C189.787 78.8592 191.665 78.0996 191.665 78.0996L190.094 72.464L188.855 68.0222L186.524 67.1462L179.069 64.3401L165.683 62.499L164.456 62.6579L151.453 64.3401C151.453 64.3401 132.461 69.7663 130.523 70.6229C128.585 71.4795 127.519 79.9406 127.519 79.9406C127.519 79.9406 123.449 93.9908 123.643 95.8396C123.837 97.6884 122.286 102.809 122.286 102.809C122.286 102.809 122.286 108.605 121.628 108.998C121.622 109.004 121.615 109.008 121.608 109.01C120.93 109.301 121.027 112.111 121.027 112.111Z" fill="#3F3D56"/>
<path opacity="0.1" d="M140.503 81.8786C148.74 82.6538 157.557 81.2876 157.557 81.2876C158.139 79.4562 166.284 74.4175 166.284 74.4175C159.602 72.7702 140.503 81.8786 140.503 81.8786Z" fill="black"/>
<path d="M149.321 106.685C149.612 113.177 156.976 110.658 158.042 109.785C158.195 109.66 158.333 109.518 158.455 109.363C155.881 110.311 151.319 111.043 149.835 105.204C149.631 105.686 149.459 106.18 149.321 106.685V106.685Z" fill="#444053"/>
<path d="M121.027 112.111C121.027 112.111 126.647 113.758 129.748 113.564C132.463 113.394 132.058 110.774 131.914 110.124C129.069 110.035 124.17 109.768 121.628 108.999C121.622 109.004 121.615 109.008 121.608 109.01C120.93 109.301 121.027 112.111 121.027 112.111Z" fill="#444053"/>
<path opacity="0.1" d="M149.321 106.685C149.612 113.177 156.976 110.658 158.042 109.785C158.195 109.66 158.333 109.518 158.455 109.363C155.881 110.311 151.319 111.043 149.835 105.204C149.631 105.686 149.459 106.18 149.321 106.685V106.685Z" fill="black"/>
<path opacity="0.1" d="M121.027 112.111C121.027 112.111 126.647 113.758 129.748 113.564C132.463 113.394 132.058 110.774 131.914 110.124C129.069 110.035 124.17 109.768 121.628 108.999C121.622 109.004 121.615 109.008 121.608 109.01C120.93 109.301 121.027 112.111 121.027 112.111Z" fill="black"/>
<path d="M107.17 132.362C110.174 134.397 114.728 133.428 114.728 133.428C114.728 133.428 121.608 130.134 123.643 130.134C125.678 130.134 130.62 128.099 130.62 128.099L130.453 126.727L129.651 120.153C129.651 120.153 122.104 119.959 121.802 119.281C121.802 119.281 120.445 115.944 119.961 117.177C119.476 118.409 112.209 127.13 110.368 127.13C109.49 127.13 108.041 127.857 107.087 128.837C106.043 129.915 105.599 131.298 107.17 132.362Z" fill="#3F3D56"/>
<path opacity="0.1" d="M133.236 75.0957C133.236 75.0957 139.535 79.0685 137.791 79.9406C136.046 80.8127 133.236 75.0957 133.236 75.0957Z" fill="black"/>
<path opacity="0.1" d="M130.62 82.751C130.62 82.751 136.046 87.9024 134.011 88.0398C131.976 88.1773 130.62 82.751 130.62 82.751Z" fill="black"/>
<path opacity="0.1" d="M124.806 99.1265C124.806 99.1265 127.56 104.305 126.522 105.204C125.484 106.103 124.806 99.1265 124.806 99.1265Z" fill="black"/>
<path opacity="0.1" d="M155.135 104.359C154.166 105.328 164.34 101.161 162.015 100.968C159.689 100.774 155.135 104.359 155.135 104.359Z" fill="black"/>
<path d="M175.483 31.6854C175.483 31.6854 175.598 31.6679 175.807 31.6369C177.012 31.4528 181.381 30.7668 185.299 29.916C186.255 29.7087 187.181 29.4916 188.03 29.2687C191.032 28.4819 193.045 27.6331 191.762 26.9374C190.063 26.0149 189.167 24.3386 188.694 22.8967C188.65 22.7553 188.607 22.6177 188.568 22.482C188.359 21.7545 188.228 21.0068 188.177 20.2514C188.177 20.2514 177.228 16.3755 179.359 20.2514C180.406 22.1526 179.702 23.7049 178.714 24.7921C178.036 25.5105 177.238 26.1053 176.355 26.5498L175.483 31.6854Z" fill="#BE6F72"/>
<path opacity="0.1" d="M187.208 28.6816C187.208 28.6816 183.292 31.4917 179.291 29.1661C175.29 26.8406 170.057 49.7085 170.057 49.7085L164.631 63.0804C164.631 63.0804 161.116 65.9873 165.489 67.247C169.863 68.5067 179.569 65.9873 182.032 69.6694C184.495 73.3515 189.162 73.9329 189.638 73.9329C190.115 73.9329 191.962 60.0765 191.962 60.0765L192.441 40.0187L187.208 28.6816Z" fill="black"/>
<path d="M165.683 66.4721C170.057 67.7318 179.762 65.2124 182.225 68.8945C183.263 70.3905 184.711 71.5553 186.394 72.2491C187.483 72.738 188.644 73.045 189.832 73.158C189.896 73.158 189.987 72.9042 190.094 72.4642C190.776 69.66 192.156 59.3016 192.156 59.3016L192.634 39.2438L188.03 29.2691L187.402 27.9067C186.783 28.3178 186.111 28.6444 185.406 28.8777C184.443 29.2342 183.414 29.3755 182.391 29.2914C181.367 29.2074 180.375 28.9001 179.483 28.3912C178.309 27.7091 177.03 29.1955 175.807 31.6373C172.863 37.5171 170.251 48.9336 170.251 48.9336L164.825 62.3055C164.696 62.4163 164.573 62.534 164.456 62.6582C163.685 63.4702 162.241 65.4818 165.683 66.4721Z" fill="#F3F5F9"/>
<path opacity="0.1" d="M186.524 67.1465C186.308 68.8386 186.265 70.5482 186.394 72.2491C186.551 74.6678 186.855 77.0747 187.305 79.4564C187.332 79.606 187.372 79.7532 187.423 79.8963C189.787 78.8595 191.665 78.0998 191.665 78.0998L190.094 72.4643C190.776 69.66 192.156 59.3017 192.156 59.3017L192.634 39.2438L188.03 29.2691C191.032 28.4823 193.045 27.6335 191.762 26.9378C189.898 25.9262 189.001 24.0057 188.568 22.4824C187.778 23.5811 186.852 24.5765 185.815 25.4456C185.776 25.4785 185.754 25.4959 185.754 25.4959L185.406 28.8777L185.299 29.9164L185.076 32.0734C185.076 32.0734 186.142 57.5575 186.917 59.011C187.692 60.4644 187.305 63.2745 186.627 66.569C186.588 66.755 186.555 66.9469 186.524 67.1465Z" fill="black"/>
<path d="M187.014 66.181C186.336 69.4755 186.917 74.9018 187.692 79.0684C188.468 83.235 196.704 80.5219 198.254 79.0684C199.805 77.6149 204.359 76.9367 204.359 76.9367C204.359 76.9367 204.553 57.9447 206.006 55.5222C206.696 54.373 206.863 50.6231 206.845 47.001C206.832 43.7472 206.671 40.598 206.611 39.5302C206.595 39.2822 206.588 39.1465 206.588 39.1465C206.588 39.1465 212.886 28.4877 212.789 27.7126C212.692 26.9374 210.851 26.8405 210.851 26.8405C210.851 26.8405 203.874 21.4142 202.712 22.0925C201.549 22.7708 198.351 21.0266 198.351 21.0266C198.351 21.0266 194.299 21.4859 193.462 20.7049C193.411 20.6615 193.37 20.6065 193.344 20.5445C193.318 20.4825 193.308 20.4153 193.313 20.3483C193.408 19.108 189.183 16.4588 189.053 16.3774C192.613 19.5809 186.855 24.5169 186.202 25.0576C186.163 25.0905 186.142 25.1079 186.142 25.1079L185.464 31.6854C185.464 31.6854 186.53 57.1695 187.305 58.623C188.08 60.0764 187.692 62.8865 187.014 66.181Z" fill="#67647E"/>
<path d="M187.389 38.9827C187.657 38.9827 187.874 38.7657 187.874 38.4982C187.874 38.2306 187.657 38.0137 187.389 38.0137C187.122 38.0137 186.905 38.2306 186.905 38.4982C186.905 38.7657 187.122 38.9827 187.389 38.9827Z" fill="#444053"/>
<path opacity="0.1" d="M186.396 25.4452L189.34 28.294L193.656 21.0926C193.604 21.0491 193.564 20.9942 193.538 20.9322C193.512 20.8702 193.501 20.803 193.506 20.736C193.601 19.4957 189.377 16.8465 189.247 16.7651C192.807 19.9686 187.049 24.9046 186.396 25.4452Z" fill="black"/>
<path opacity="0.1" d="M188.359 54.4861C188.626 54.4861 188.843 54.2692 188.843 54.0016C188.843 53.734 188.626 53.5171 188.359 53.5171C188.091 53.5171 187.874 53.734 187.874 54.0016C187.874 54.2692 188.091 54.4861 188.359 54.4861Z" fill="black"/>
<path d="M188.359 54.2927C188.626 54.2927 188.843 54.0758 188.843 53.8082C188.843 53.5406 188.626 53.3237 188.359 53.3237C188.091 53.3237 187.874 53.5406 187.874 53.8082C187.874 54.0758 188.091 54.2927 188.359 54.2927Z" fill="#444053"/>
<path d="M186.202 25.0576L189.146 27.9063L193.462 20.7049C193.41 20.6615 193.37 20.6065 193.344 20.5445C193.318 20.4825 193.307 20.4153 193.313 20.3483C193.407 19.108 189.183 16.4588 189.053 16.3774C192.613 19.5809 186.855 24.5169 186.202 25.0576Z" fill="#67647E"/>
<path d="M183.9 52.2083L189.131 52.3275C189.548 52.337 189.894 52.0068 189.903 51.59L190.194 38.8541C190.203 38.4373 189.873 38.0917 189.456 38.0822L184.224 37.963C183.807 37.9535 183.462 38.2837 183.452 38.7005L183.162 51.4363C183.152 51.8532 183.483 52.1988 183.9 52.2083Z" fill="#3F3D56"/>
<path opacity="0.1" d="M183.9 52.2083L189.131 52.3275C189.548 52.337 189.894 52.0068 189.903 51.59L190.194 38.8541C190.203 38.4373 189.873 38.0917 189.456 38.0822L184.224 37.963C183.807 37.9535 183.462 38.2837 183.452 38.7005L183.162 51.4363C183.152 51.8532 183.483 52.1988 183.9 52.2083Z" fill="black"/>
<path d="M183.935 52.5242L189.167 52.6434C189.584 52.6529 189.93 52.3227 189.939 51.9059L190.229 39.1701C190.239 38.7532 189.909 38.4076 189.492 38.3981L184.26 38.2789C183.843 38.2694 183.497 38.5996 183.488 39.0165L183.198 51.7523C183.188 52.1691 183.518 52.5147 183.935 52.5242Z" fill="#3F3D56"/>
<path d="M186.894 43.5631C187.479 43.5631 187.954 43.0887 187.954 42.5035C187.954 41.9183 187.479 41.4438 186.894 41.4438C186.309 41.4438 185.834 41.9183 185.834 42.5035C185.834 43.0887 186.309 43.5631 186.894 43.5631Z" fill="#67647E"/>
<path opacity="0.1" d="M150.387 65.3093C152.81 66.3751 168.701 63.5651 171.026 62.8868C173.352 62.2085 176.743 56.976 175.096 53.197C173.449 49.418 175.678 45.7359 175.678 45.7359C175.678 45.7359 179.166 38.2748 179.941 36.8213C180.716 35.3678 182.332 31.1353 182.557 30.426C182.566 30.3466 182.559 30.2661 182.535 30.1896C182.512 30.1132 182.472 30.0426 182.42 29.9823C181.79 29.023 179.36 27.3253 179.36 27.3253C178.676 27.5734 178.59 25.6141 178.617 24.1742C178.633 23.368 178.681 22.7246 178.681 22.7246C178.681 22.7246 178.36 23.0521 177.835 23.4979C177.643 23.6587 177.424 23.837 177.181 24.0211C176.268 24.751 175.235 25.3157 174.127 25.6897C171.802 26.3777 168.507 29.554 168.507 29.554L169.476 44.4355C169.476 44.4355 167.247 58.4295 164.922 61.1427C162.596 63.8558 155.62 63.7589 153.294 63.7589C150.969 63.7589 150.387 65.3093 150.387 65.3093Z" fill="black"/>
<path d="M150.193 64.7277C152.615 65.7936 168.507 62.9836 170.832 62.3053C173.158 61.627 176.549 56.3945 174.902 52.6155C173.255 48.8365 175.483 45.1543 175.483 45.1543C175.483 45.1543 178.972 37.6932 179.747 36.2398C180.522 34.7863 182.138 30.5538 182.363 29.8445C182.372 29.765 182.365 29.6845 182.341 29.6081C182.317 29.5317 182.278 29.4611 182.225 29.4007C181.596 28.4414 179.165 26.7438 179.165 26.7438C178.481 26.9918 178.396 25.0326 178.423 23.5927C178.439 22.7865 178.487 22.1431 178.487 22.1431C178.487 22.1431 178.165 22.4706 177.64 22.9163C177.448 23.0771 177.229 23.2555 176.987 23.4396C176.074 24.1694 175.04 24.7341 173.933 25.1081C171.607 25.7961 168.313 28.9724 168.313 28.9724L169.282 43.854C169.282 43.854 167.053 57.848 164.728 60.5611C162.402 63.2743 155.425 63.1774 153.1 63.1774C150.774 63.1774 150.193 64.7277 150.193 64.7277Z" fill="#67647E"/>
<path opacity="0.1" d="M176.549 22.5308C176.549 22.5308 176.64 23.0424 176.794 23.8273C177.315 26.4881 178.559 32.2981 179.456 32.0733C180.1 31.9124 181.187 30.7729 182.032 29.7884C181.402 28.8291 178.972 27.1315 178.972 27.1315C178.288 27.3795 178.202 25.4203 178.23 23.9803L177.447 23.304L176.549 22.5308Z" fill="black"/>
<path d="M176.743 22.1431C176.743 22.1431 176.834 22.6547 176.987 23.4396C177.509 26.1004 178.753 31.9104 179.65 31.6856C180.293 31.5247 181.381 30.3852 182.226 29.4007C181.596 28.4414 179.166 26.7438 179.166 26.7438C178.481 26.9918 178.396 25.0325 178.423 23.5926L177.64 22.9163L176.743 22.1431Z" fill="#67647E"/>
<path d="M170.541 50.6774C170.541 50.6774 175.386 49.7084 176.743 47.5766C178.1 45.4449 187.328 43.6038 186.202 45.8325C185.076 48.0611 176.743 55.3533 176.743 55.3533L173.133 60.5241L168.313 59.3013L166.283 55.3533L170.541 50.6774Z" fill="#BE6F72"/>
<path opacity="0.1" d="M182.004 56.2061C182.004 56.2061 177.313 57.9502 176.606 60.2758C175.9 62.6013 182.004 56.2061 182.004 56.2061Z" fill="black"/>
<path opacity="0.1" d="M184.882 58.9141C184.882 58.9141 185.309 61.3351 179.427 61.142L184.882 58.9141Z" fill="black"/>
<path opacity="0.1" d="M210.269 27.9067L212.401 27.7129C212.401 27.7129 214.727 29.457 216.471 29.457C218.215 29.457 219.281 31.6857 219.281 31.6857C219.281 31.6857 222.188 33.0423 223.157 33.2361C224.126 33.4298 225.773 34.3988 225.289 34.7864C224.804 35.174 225.385 36.0461 226.258 36.7244C227.13 37.4027 228.486 40.891 227.323 41.3755C226.161 41.8599 222.963 42.8289 222.091 43.3134C221.786 43.448 221.456 43.5175 221.122 43.5175C220.788 43.5175 220.458 43.448 220.153 43.3134C220.153 43.3134 215.02 36.6275 212.402 37.8872C209.785 39.1469 206.2 39.1468 206.2 39.1468L203.39 33.2361L210.269 27.9067Z" fill="black"/>
<path d="M165.683 59.79C165.874 60.1191 166.134 60.4022 166.446 60.6192C166.759 60.8362 167.115 60.9819 167.489 61.0459C169.386 61.2675 171.309 61.09 173.133 60.5245C173.133 60.5245 163.371 57.4238 172.77 49.8832H170.251L169.412 49.5654L169.796 47.5575L170.348 29.4571L168.313 28.9727C168.313 28.9727 166.675 40.8911 166.284 42.3446C165.891 43.798 165.6 49.4181 165.6 49.4181C165.6 49.4181 165.212 51.7436 164.631 52.9064C164.193 53.7805 164.305 57.7222 165.683 59.79Z" fill="#67647E"/>
<path opacity="0.1" d="M166.071 59.7901C166.261 60.1191 166.522 60.4022 166.834 60.6192C167.146 60.8363 167.502 60.9819 167.877 61.0459C169.774 61.2676 171.696 61.09 173.52 60.5246C173.52 60.5246 163.759 57.4239 173.158 49.8832H170.639L169.799 49.5654C168.42 52.0092 166.247 56.358 166.071 59.7901Z" fill="black"/>
<path d="M165.683 59.7901C165.874 60.1191 166.134 60.4022 166.446 60.6192C166.758 60.8363 167.115 60.9819 167.489 61.0459C169.386 61.2676 171.308 61.09 173.133 60.5246C173.133 60.5246 163.371 57.4239 172.77 49.8832H170.251L169.412 49.5654C168.032 52.0092 165.859 56.358 165.683 59.7901Z" fill="#67647E"/>
<path opacity="0.1" d="M178.714 24.7921C180.37 25.5439 182.218 25.7653 184.004 25.426C185.791 25.0867 187.429 24.2033 188.694 22.8967C188.65 22.7553 188.607 22.6177 188.568 22.482C188.359 21.7545 188.228 21.0068 188.177 20.2514C188.177 20.2514 177.227 16.3755 179.359 20.2514C180.406 22.1526 179.702 23.7049 178.714 24.7921Z" fill="black"/>
<path d="M173.545 16.3757V16.461C173.549 16.7478 173.565 17.0308 173.594 17.3098C173.623 17.5772 173.664 17.8428 173.714 18.1024C174.094 20.0027 175.089 21.7249 176.546 23.003C178.002 24.2812 179.839 25.044 181.773 25.1737C183.707 25.3033 185.629 24.7927 187.243 23.7205C188.857 22.6484 190.074 21.0745 190.704 19.242C190.762 19.0714 190.816 18.8989 190.863 18.7245C191.075 17.9596 191.182 17.1694 191.181 16.3757C191.181 16.1722 191.173 15.9687 191.16 15.7691C191.002 13.4886 189.965 11.3584 188.268 9.82757C186.57 8.29678 184.344 7.48515 182.059 7.56382C179.775 7.6425 177.61 8.60533 176.022 10.2493C174.433 11.8932 173.546 14.0898 173.545 16.3757V16.3757Z" fill="#BE6F72"/>
<path opacity="0.1" d="M173.545 16.4611C173.593 16.7413 173.609 17.026 173.594 17.3099C173.592 17.4634 173.6 17.6169 173.619 17.7692C173.636 17.8839 173.668 17.996 173.714 18.1025C174.071 18.9397 175.233 19.4804 176.001 18.9416C176.297 18.6983 176.532 18.3899 176.689 18.0405C177.503 16.5269 178.636 14.7847 180.419 14.7557C181.179 14.7421 181.894 15.0619 182.629 15.2498C183.361 15.4359 184.235 15.4591 184.784 14.9591C185.204 14.5754 185.404 13.9185 185.97 13.7828C186.543 13.6452 187.055 14.1665 187.315 14.6743C187.574 15.1801 187.78 15.7789 188.305 16.0405C188.537 16.1568 188.811 16.1897 189.039 16.3138C190.094 16.8913 189.609 18.9145 190.704 19.242C190.738 19.2527 190.773 19.2611 190.809 19.2672C190.826 19.087 190.846 18.9048 190.863 18.7246C190.962 17.7401 191.061 16.755 191.16 15.7692C191.002 13.4887 189.965 11.3584 188.268 9.8276C186.57 8.2968 184.344 7.48515 182.059 7.56382C179.775 7.64249 177.61 8.60533 176.022 10.2493C174.433 11.8932 173.545 14.0898 173.545 16.3758V16.4611Z" fill="black"/>
<path d="M189.209 3.21294C190.245 3.6519 191.324 4.32762 191.557 5.38566C191.613 5.85689 191.629 6.33192 191.606 6.80586C191.655 7.76043 192.109 8.64635 192.4 9.56097C192.691 10.4756 192.794 11.5431 192.212 12.3209C192.03 12.5641 191.789 12.7656 191.626 13.0205C191.413 13.4158 191.297 13.8557 191.287 14.3043L190.808 19.0738C189.578 18.8447 190.126 16.7138 189.038 16.1199C188.81 15.9952 188.538 15.9618 188.305 15.8455C187.78 15.584 187.575 14.9863 187.314 14.4792C187.054 13.9722 186.543 13.4516 185.969 13.5889C185.404 13.7238 185.205 14.3823 184.784 14.7655C184.235 15.2658 183.361 15.2425 182.628 15.0552C181.894 14.868 181.179 14.5479 180.419 14.5607C178.636 14.5908 177.502 16.3322 176.688 17.8456C176.532 18.1958 176.297 18.5049 176 18.7481C175.135 19.357 173.767 18.5905 173.619 17.5746C173.535 17.006 173.713 16.3707 173.385 15.8894C173.048 15.3956 172.347 15.304 171.791 15.0476C170.375 14.395 169.936 12.627 170.171 11.1442C170.341 10.0756 170.766 8.97537 170.418 7.94673C170.298 7.59219 170.091 7.26833 169.979 6.91125C169.668 5.91389 170.176 4.81321 170.975 4.10514C171.828 3.43765 172.806 2.94694 173.851 2.66171C176.494 1.77603 179.27 0.920593 182.081 0.738152C183.313 0.658231 184.926 0.273124 185.904 1.04014C187.055 1.94261 187.777 2.60609 189.209 3.21294Z" fill="#3F3D56"/>
<path opacity="0.1" d="M186.905 31.3279C187.172 31.3279 187.389 31.111 187.389 30.8434C187.389 30.5758 187.172 30.3589 186.905 30.3589C186.637 30.3589 186.42 30.5758 186.42 30.8434C186.42 31.111 186.637 31.3279 186.905 31.3279Z" fill="black"/>
<path d="M186.905 31.134C187.172 31.134 187.389 30.9171 187.389 30.6495C187.389 30.382 187.172 30.165 186.905 30.165C186.637 30.165 186.42 30.382 186.42 30.6495C186.42 30.9171 186.637 31.134 186.905 31.134Z" fill="#444053"/>
<path opacity="0.1" d="M190.005 61.7536C190.273 61.7536 190.49 61.5367 190.49 61.2692C190.49 61.0016 190.273 60.7847 190.005 60.7847C189.738 60.7847 189.521 61.0016 189.521 61.2692C189.521 61.5367 189.738 61.7536 190.005 61.7536Z" fill="black"/>
<path d="M190.005 61.5598C190.273 61.5598 190.49 61.3429 190.49 61.0753C190.49 60.8077 190.273 60.5908 190.005 60.5908C189.738 60.5908 189.521 60.8077 189.521 61.0753C189.521 61.3429 189.738 61.5598 190.005 61.5598Z" fill="#444053"/>
<path opacity="0.1" d="M188.359 69.7961C188.626 69.7961 188.843 69.5792 188.843 69.3116C188.843 69.0441 188.626 68.8271 188.359 68.8271C188.091 68.8271 187.874 69.0441 187.874 69.3116C187.874 69.5792 188.091 69.7961 188.359 69.7961Z" fill="black"/>
<path d="M188.359 69.6023C188.626 69.6023 188.843 69.3854 188.843 69.1178C188.843 68.8502 188.626 68.6333 188.359 68.6333C188.091 68.6333 187.874 68.8502 187.874 69.1178C187.874 69.3854 188.091 69.6023 188.359 69.6023Z" fill="#444053"/>
<path opacity="0.1" d="M171.704 38.498C171.704 38.498 170.638 45.7357 171.704 46.9954C172.77 48.2551 171.704 38.498 171.704 38.498Z" fill="black"/>
<path opacity="0.1" d="M203.39 51.9375C203.39 51.9375 205.425 56.3212 203.39 60.5246C201.355 64.728 200.095 66.4346 200.774 69.1181C201.452 71.8015 203.39 51.9375 203.39 51.9375Z" fill="black"/>
<path opacity="0.1" d="M107.17 132.363C110.174 134.397 114.728 133.429 114.728 133.429C114.728 133.429 121.608 130.134 123.643 130.134C125.678 130.134 130.62 128.099 130.62 128.099L130.453 126.727C128.445 127.115 123.879 128.035 123.352 128.487C122.674 129.068 114.341 131.878 114.341 131.878C114.341 131.878 108.667 131.169 107.087 128.837C106.043 129.915 105.599 131.299 107.17 132.363Z" fill="black"/>
<g opacity="0.1">
<path opacity="0.1" d="M191.606 6.03113C191.601 5.92615 191.601 5.82078 191.602 5.71533C191.611 5.83572 191.613 5.95681 191.611 6.07827C191.61 6.06246 191.607 6.04698 191.606 6.03113Z" fill="black"/>
<path opacity="0.1" d="M171.791 14.2727C172.347 14.5291 173.048 14.6207 173.385 15.1146C173.713 15.5958 173.536 16.2311 173.619 16.7997C173.768 17.8156 175.135 18.5821 176.001 17.9732C176.297 17.73 176.532 17.421 176.688 17.0707C177.502 15.5573 178.636 13.8159 180.42 13.7859C181.179 13.7731 181.894 14.0932 182.628 14.2804C183.362 14.4676 184.235 14.4909 184.784 13.9906C185.205 13.6074 185.405 12.9489 185.969 12.8141C186.543 12.6768 187.054 13.1973 187.315 13.7044C187.575 14.2114 187.78 14.8091 188.305 15.0707C188.538 15.1869 188.81 15.2203 189.039 15.345C190.126 15.9389 189.579 18.0698 190.809 18.2989C190.968 16.7091 191.128 15.1192 191.287 13.5294C191.298 13.0808 191.414 12.641 191.626 12.2457C191.79 11.9907 192.03 11.7892 192.212 11.546C192.432 11.2448 192.57 10.8912 192.61 10.5205C192.714 11.1496 192.572 11.7945 192.212 12.3212C192.03 12.5644 191.79 12.7659 191.626 13.0208C191.414 13.4162 191.298 13.856 191.287 14.3046C191.128 15.8944 190.968 17.4842 190.809 19.0741C189.579 18.845 190.126 16.7141 189.039 16.1202C188.81 15.9955 188.538 15.9621 188.305 15.8458C187.78 15.5843 187.575 14.9866 187.315 14.4795C187.054 13.9725 186.543 13.4519 185.969 13.5892C185.405 13.7241 185.205 14.3826 184.784 14.7658C184.235 15.2661 183.362 15.2428 182.628 15.0555C181.894 14.8683 181.179 14.5482 180.42 14.561C178.636 14.5911 177.502 16.3325 176.688 17.8459C176.532 18.1961 176.297 18.5052 176.001 18.7484C175.135 19.3573 173.768 18.5908 173.619 17.5749C173.536 17.0063 173.713 16.371 173.385 15.8898C173.048 15.3959 172.347 15.3043 171.791 15.0479C170.496 14.4511 170.02 12.9218 170.128 11.5306C170.222 12.6777 170.735 13.7858 171.791 14.2727Z" fill="black"/>
<path opacity="0.1" d="M169.98 6.13671C170.091 6.49378 170.299 6.81764 170.419 7.17217C170.547 7.58388 170.585 8.01856 170.529 8.44619C170.509 8.27656 170.472 8.1094 170.419 7.94736C170.299 7.59282 170.091 7.26896 169.98 6.91189C169.881 6.58423 169.861 6.23756 169.923 5.90088C169.937 5.98055 169.956 6.0593 169.98 6.13671V6.13671Z" fill="black"/>
</g>
<path opacity="0.1" d="M198.448 49.2201C200.677 48.7317 205.91 47.1891 205.91 47.1891C205.91 47.1891 206.264 47.1174 206.846 47.0011C206.832 43.7473 206.671 40.5981 206.611 39.5303L206.588 39.5342C206.588 39.5342 202.131 40.9876 201.065 41.7628C199.999 42.538 196.704 42.3442 196.704 42.3442C196.704 42.3442 191.569 42.6349 187.305 47.3829C183.042 52.1309 196.22 49.7084 198.448 49.2201Z" fill="black"/>
<path d="M220.228 40.573C220.427 40.6636 220.601 40.8033 220.731 40.9793C220.862 41.1552 220.946 41.3614 220.975 41.5786C221.004 41.7959 220.977 42.0169 220.898 42.221C220.818 42.4251 220.687 42.6055 220.519 42.7454C219.338 43.7227 217.614 44.8923 215.97 45.0577C213.225 45.3338 206.619 46.6588 205.962 46.7912C205.927 46.7984 205.893 46.8066 205.858 46.8169C205.314 46.977 200.548 48.3726 198.448 48.8328C196.22 49.3212 183.042 51.7437 187.305 46.9957C189.697 44.2496 193.002 42.4625 196.61 41.9646C196.666 41.9594 196.723 41.9581 196.78 41.9608C197.278 41.984 200.095 42.0811 201.065 41.3756C201.572 41.0576 202.109 40.7901 202.668 40.5771C204.775 39.7069 206.972 39.0734 209.219 38.6882L213.777 37.8935C214.037 37.8482 214.304 37.8823 214.544 37.9915L220.228 40.573Z" fill="#BE6F72"/>
<path d="M210.657 27.9067L212.789 27.7129C212.789 27.7129 215.114 29.457 216.859 29.457C218.603 29.457 219.669 31.6857 219.669 31.6857C219.669 31.6857 222.576 33.0423 223.544 33.2361C224.513 33.4298 226.161 34.3988 225.676 34.7864C225.192 35.174 225.773 36.0461 226.645 36.7244C227.517 37.4027 228.874 40.891 227.711 41.3755C226.548 41.8599 223.351 42.8289 222.479 43.3134C222.173 43.448 221.843 43.5175 221.51 43.5175C221.176 43.5175 220.846 43.448 220.541 43.3134C220.541 43.3134 215.407 36.6275 212.79 37.8872C210.173 39.1469 206.587 39.1468 206.587 39.1468L203.777 33.2361L210.657 27.9067Z" fill="#67647E"/>
<path d="M213.651 61.3203C213.287 61.3207 212.938 61.4653 212.681 61.7224C212.424 61.9795 212.279 62.328 212.279 62.6916V85.6527C212.279 86.0163 212.424 86.3649 212.681 86.6221C212.938 86.8792 213.287 87.0238 213.651 87.0242H306.272C306.636 87.0238 306.985 86.8792 307.242 86.6221C307.499 86.3649 307.644 86.0163 307.644 85.6527V62.6916C307.644 62.328 307.499 61.9795 307.242 61.7224C306.985 61.4653 306.636 61.3207 306.272 61.3203H213.651Z" fill="#EB850E"/>
<path d="M225.597 81.4365C229.557 81.4365 232.768 78.1842 232.768 74.1724C232.768 70.1605 229.557 66.9082 225.597 66.9082C221.636 66.9082 218.426 70.1605 218.426 74.1724C218.426 78.1842 221.636 81.4365 225.597 81.4365Z" fill="#E6E6E6"/>
<path d="M242.347 69.3296C242.029 69.3296 241.724 69.4572 241.5 69.6842C241.275 69.9112 241.149 70.2192 241.149 70.5403C241.149 70.8614 241.275 71.1693 241.5 71.3964C241.724 71.6234 242.029 71.751 242.347 71.751H298.809C299.127 71.751 299.432 71.6234 299.656 71.3964C299.881 71.1693 300.007 70.8614 300.007 70.5403C300.007 70.2192 299.881 69.9112 299.656 69.6842C299.432 69.4572 299.127 69.3296 298.809 69.3296H242.347Z" fill="white"/>
<path d="M242.347 76.5938C242.029 76.5938 241.724 76.7213 241.5 76.9484C241.275 77.1754 241.149 77.4833 241.149 77.8044C241.149 78.1255 241.275 78.4335 241.5 78.6605C241.724 78.8876 242.029 79.0151 242.347 79.0151H298.809C299.127 79.0151 299.432 78.8876 299.656 78.6605C299.881 78.4335 300.007 78.1255 300.007 77.8044C300.007 77.4833 299.881 77.1754 299.656 76.9484C299.432 76.7213 299.127 76.5938 298.809 76.5938H242.347Z" fill="white"/>
<defs>
<linearGradient id="paint0_linear" x1="46.7423" y1="297.522" x2="46.7423" y2="183.916" gradientUnits="userSpaceOnUse">
<stop stop-color="#808080" stop-opacity="0.25"/>
<stop offset="0.53514" stop-color="#808080" stop-opacity="0.12"/>
<stop offset="1" stop-color="#808080" stop-opacity="0.1"/>
</linearGradient>
<linearGradient id="paint1_linear" x1="124302" y1="62962.1" x2="124302" y2="22477.2" gradientUnits="userSpaceOnUse">
<stop stop-color="#808080" stop-opacity="0.25"/>
<stop offset="0.53514" stop-color="#808080" stop-opacity="0.12"/>
<stop offset="1" stop-color="#808080" stop-opacity="0.1"/>
</linearGradient>
</defs>
</svg>
