<svg width="318" height="300" fill="none" xmlns="http://www.w3.org/2000/svg"><path fill="#E5E5E5" d="M0 0h318v300H0z"/><path fill="#fff" d="M-1113-225h2162v905h-2162z"/><path d="M268.552 87.583v167.822c0 4.991-4.814 9.049-10.758 9.049H30.097c-5.944 0-10.758-4.058-10.758-9.049V87.583c0-5 4.814-10.096 10.758-10.096h227.697c5.944 0 10.758 5.096 10.758 10.096z" fill="#fff"/><path d="M40.397 129.287a1.37 1.37 0 00-1.368 1.367v22.889a1.368 1.368 0 001.368 1.367h92.329a1.369 1.369 0 001.368-1.367v-22.889a1.369 1.369 0 00-1.368-1.367H40.397z" fill="#E6E6E6"/><path d="M52.305 149.34c3.948 0 7.149-3.242 7.149-7.241 0-4-3.2-7.242-7.149-7.242-3.948 0-7.148 3.242-7.148 7.242 0 3.999 3.2 7.241 7.148 7.241z" fill="#EB850E"/><path d="M69.003 137.271c-.317 0-.62.127-.844.353a1.216 1.216 0 000 1.707c.224.227.527.354.844.354h56.285c.317 0 .62-.127.844-.354a1.212 1.212 0 000-1.707 1.187 1.187 0 00-.844-.353H69.003zM69.003 144.512c-.317 0-.62.127-.844.354a1.212 1.212 0 000 1.706c.224.227.527.354.844.354h56.285c.317 0 .62-.127.844-.354a1.212 1.212 0 000-1.706 1.184 1.184 0 00-.844-.354H69.003z" fill="#fff"/><path d="M40.397 161.272a1.37 1.37 0 00-1.368 1.367v22.889a1.368 1.368 0 001.368 1.367h92.329a1.369 1.369 0 001.368-1.367v-22.889a1.369 1.369 0 00-1.368-1.367H40.397z" fill="#E6E6E6"/><path d="M52.305 181.325c3.948 0 7.149-3.242 7.149-7.241 0-4-3.2-7.242-7.149-7.242-3.948 0-7.148 3.242-7.148 7.242 0 3.999 3.2 7.241 7.148 7.241z" fill="#EB850E"/><path d="M69.003 169.256c-.317 0-.62.127-.844.353a1.216 1.216 0 000 1.707c.224.226.527.354.844.354h56.285c.317 0 .62-.128.844-.354a1.212 1.212 0 000-1.707 1.187 1.187 0 00-.844-.353H69.003zM69.003 176.497c-.317 0-.62.127-.844.354a1.212 1.212 0 000 1.706c.224.227.527.354.844.354h56.285c.317 0 .62-.127.844-.354a1.212 1.212 0 000-1.706 1.184 1.184 0 00-.844-.354H69.003z" fill="#fff"/><path d="M39.509 193.256a1.368 1.368 0 00-1.368 1.367v22.889a1.366 1.366 0 001.368 1.367h92.329a1.366 1.366 0 001.368-1.367v-22.889a1.368 1.368 0 00-1.368-1.367H39.509z" fill="#E6E6E6"/><path d="M51.417 213.309c3.948 0 7.148-3.242 7.148-7.241 0-3.999-3.2-7.241-7.148-7.241-3.948 0-7.148 3.242-7.148 7.241 0 3.999 3.2 7.241 7.148 7.241z" fill="#EB850E"/><path d="M68.114 201.24c-.316 0-.62.127-.844.354a1.212 1.212 0 000 1.707c.224.226.528.353.844.353H124.4c.317 0 .621-.127.845-.353a1.215 1.215 0 000-1.707 1.187 1.187 0 00-.845-.354H68.114zM68.114 208.481c-.316 0-.62.128-.844.354a1.212 1.212 0 000 1.707c.224.226.528.353.844.353H124.4c.317 0 .621-.127.845-.353a1.215 1.215 0 000-1.707 1.19 1.19 0 00-.845-.354H68.114z" fill="#fff"/><path d="M39.509 226.129a1.368 1.368 0 00-1.368 1.367v22.889a1.366 1.366 0 001.368 1.367h92.329a1.366 1.366 0 001.368-1.367v-22.889a1.368 1.368 0 00-1.368-1.367H39.509z" fill="#E6E6E6"/><path d="M51.417 246.182c3.948 0 7.148-3.242 7.148-7.241 0-3.999-3.2-7.241-7.148-7.241-3.948 0-7.148 3.242-7.148 7.241 0 3.999 3.2 7.241 7.148 7.241z" fill="#EB850E"/><path d="M68.114 234.113c-.316 0-.62.127-.844.354a1.212 1.212 0 000 1.707c.224.226.528.353.844.353H124.4c.317 0 .621-.127.845-.353a1.215 1.215 0 000-1.707 1.187 1.187 0 00-.845-.354H68.114zM68.114 241.354c-.316 0-.62.128-.844.354a1.212 1.212 0 000 1.707c.224.226.528.353.844.353H124.4c.317 0 .621-.127.845-.353a1.215 1.215 0 000-1.707 1.19 1.19 0 00-.845-.354H68.114z" fill="#fff"/><path d="M155.897 129.287a1.369 1.369 0 00-1.368 1.367v22.889a1.369 1.369 0 001.368 1.367h92.329a1.37 1.37 0 001.368-1.367v-22.889a1.372 1.372 0 00-1.368-1.367h-92.329z" fill="#E6E6E6"/><path d="M167.805 149.34c3.948 0 7.148-3.242 7.148-7.241 0-4-3.2-7.242-7.148-7.242-3.948 0-7.149 3.242-7.149 7.242 0 3.999 3.201 7.241 7.149 7.241z" fill="#EB850E"/><path d="M184.503 137.271a1.19 1.19 0 00-.845.353 1.215 1.215 0 000 1.707c.224.227.528.354.845.354h56.285c.316 0 .62-.127.844-.354a1.212 1.212 0 000-1.707 1.19 1.19 0 00-.844-.353h-56.285zM184.503 144.512c-.317 0-.621.127-.845.354a1.211 1.211 0 00-.349.853c0 .32.125.627.349.853.224.227.528.354.845.354h56.285c.316 0 .62-.127.844-.354a1.212 1.212 0 000-1.706 1.186 1.186 0 00-.844-.354h-56.285z" fill="#fff"/><path d="M155.897 161.272a1.369 1.369 0 00-1.368 1.367v22.889a1.369 1.369 0 001.368 1.367h92.329a1.37 1.37 0 001.368-1.367v-22.889a1.372 1.372 0 00-1.368-1.367h-92.329z" fill="#E6E6E6"/><path d="M167.805 181.325c3.948 0 7.148-3.242 7.148-7.241 0-4-3.2-7.242-7.148-7.242-3.948 0-7.149 3.242-7.149 7.242 0 3.999 3.201 7.241 7.149 7.241z" fill="#EB850E"/><path d="M184.503 169.256a1.19 1.19 0 00-.845.353 1.215 1.215 0 000 1.707c.224.226.528.354.845.354h56.285c.316 0 .62-.128.844-.354a1.212 1.212 0 000-1.707 1.19 1.19 0 00-.844-.353h-56.285zM184.503 176.497c-.317 0-.621.127-.845.354a1.211 1.211 0 00-.349.853c0 .32.125.627.349.853.224.227.528.354.845.354h56.285c.316 0 .62-.127.844-.354a1.212 1.212 0 000-1.706 1.186 1.186 0 00-.844-.354h-56.285z" fill="#fff"/><path d="M155.008 193.256a1.372 1.372 0 00-1.367 1.367v22.889c0 .363.144.71.401.966.256.257.604.401.966.401h92.33a1.368 1.368 0 001.368-1.367v-22.889a1.372 1.372 0 00-1.368-1.367h-92.33z" fill="#E6E6E6"/><path d="M166.917 213.309c3.947 0 7.148-3.242 7.148-7.241 0-3.999-3.201-7.241-7.148-7.241-3.948 0-7.149 3.242-7.149 7.241 0 3.999 3.201 7.241 7.149 7.241z" fill="#EB850E"/><path d="M183.614 201.24c-.317 0-.62.127-.844.354a1.212 1.212 0 000 1.707c.224.226.527.353.844.353h56.285c.317 0 .62-.127.844-.353a1.216 1.216 0 000-1.707 1.184 1.184 0 00-.844-.354h-56.285zM183.614 208.481c-.317 0-.62.128-.844.354a1.212 1.212 0 000 1.707c.224.226.527.353.844.353h56.285c.317 0 .62-.127.844-.353a1.216 1.216 0 000-1.707 1.188 1.188 0 00-.844-.354h-56.285z" fill="#fff"/><path d="M155.008 226.129a1.372 1.372 0 00-1.367 1.367v22.889c0 .363.144.71.401.966.256.257.604.401.966.401h92.33a1.368 1.368 0 001.368-1.367v-22.889a1.372 1.372 0 00-1.368-1.367h-92.33z" fill="#E6E6E6"/><path d="M166.917 246.182c3.947 0 7.148-3.242 7.148-7.241 0-3.999-3.201-7.241-7.148-7.241-3.948 0-7.149 3.242-7.149 7.241 0 3.999 3.201 7.241 7.149 7.241z" fill="#EB850E"/><path d="M183.614 234.113c-.317 0-.62.127-.844.354a1.212 1.212 0 000 1.707c.224.226.527.353.844.353h56.285c.317 0 .62-.127.844-.353a1.216 1.216 0 000-1.707 1.184 1.184 0 00-.844-.354h-56.285zM183.614 241.354c-.317 0-.62.128-.844.354a1.212 1.212 0 000 1.707c.224.226.527.353.844.353h56.285c.317 0 .62-.127.844-.353a1.216 1.216 0 000-1.707 1.188 1.188 0 00-.844-.354h-56.285z" fill="#fff"/><path opacity=".2" d="M268.552 88.245v26.382H19.339V88.245a10.753 10.753 0 0110.758-10.758h227.697a10.751 10.751 0 019.94 6.64c.54 1.306.818 2.705.818 4.118z" fill="#EB850E"/><path d="M33.006 103.251a7.193 7.193 0 100-14.387 7.194 7.194 0 100 14.387zM53.936 103.251a7.193 7.193 0 100-14.387 7.194 7.194 0 100 14.387zM74.866 103.251a7.193 7.193 0 100-14.387 7.194 7.194 0 100 14.387z" fill="#fff"/><path d="M79.802 264.147s-6.956 1.683-9.709 4.83a9.37 9.37 0 01-3.703 2.353v-4.759c1.59-2.672 3.196-5.644 3.196-5.644.072-.146.652-2.195.652-2.195 1.304-1.024-.073-4.61-.073-4.61s.798-2.268.363-2.708c-.435-.439-.073-1.609.29-2.122a2.65 2.65 0 00.29-1.61c0-.439-.58-1.097-1.522-1.463-.942-.366.072-.951.652-1.098.58-.146.725-1.536.073-2.268-.653-.732.072-1.171.434-1.976.362-.805-1.16-.659-1.16-.659v-7.389l.002-.001s-.435-2.415-.87-6.66c-.435-4.244-2.102-4.683-2.102-4.683a18.92 18.92 0 01-2.608-1.025 17.892 17.892 0 00-2.754-1.023 14.098 14.098 0 01-3.55-.492 10.922 10.922 0 00-2.424-.524c-.089-.042-.174-.086-.26-.13a9.489 9.489 0 01-4.524-4.957c.433-.475.82-.99 1.158-1.537l.008-.012c0 .075.003.149.003.224l-.001.094c0 .18-.002.361-.007.541v-.002.016c1.157-2.042 4.509-2.508 4.828-4.839.014-.106.021-.212.021-.319v-.015c0-.078-.003-.157-.009-.235-.043-.651-.266-1.299-.31-1.957a3.819 3.819 0 01.01-.564l.001.01c.15-1.81 1.515-3.384 2.14-5.142.167-.473.276-.965.327-1.464l.001-.013a6.74 6.74 0 00.03-.454l.003-.113a6.936 6.936 0 00-.002-.316 6.85 6.85 0 00-2.262-4.945c-1.155-1.004-2.682-1.635-3.481-2.945-.373-.612-.557-1.33-.963-1.919-.766-1.11-2.175-1.562-3.505-1.723-1.33-.16-2.7-.106-3.974-.525-.903-.296-1.722-.821-2.635-1.085a5.04 5.04 0 00-5.414 1.953c-.48.701-.796 1.541-1.443 2.088-1.328 1.122-3.58.635-4.744 1.93-.64.711-.712 1.679-.635 2.67l.003.035c.006.077.013.153.021.23l.011.108.013.114c.041.355.093.708.137 1.049l.018.156a15.51 15.51 0 01.077.837l.014.226a15.62 15.62 0 01-1.662 7.805c-1.096 2.152-2.727 4.133-3.01 6.536a6.943 6.943 0 00-.032 1.186c.003.046.003.093.007.139.005.072.012.143.02.214.007.081.014.163.024.245l.02.139c.014.108.03.216.048.324l.013.07c.288 1.638.94 3.254 1.287 4.897.129.611.215 1.229.26 1.851v.013a13.728 13.728 0 01.023 1.398c-.55.212-1.115.385-1.69.519-1.015.147-3.986 2.781-3.769 3.44.216.649-1.33 5.275-1.373 5.411l-.003.002.001.001-2.445 16.831s-1.29 1.244-.887 2.049c.403.805-.078 2.195-.078 2.195s-2.181.951-1.697 1.537c.484.585.263 1.683-.07 2.414-.334.732-.877 2.049 0 2.269.877.219.15 3.073.15 3.073s3.059-.351 2.834 1.464c-.072.579 2.139 2.168 3.062 2.804v8.743a26.883 26.883 0 01-3.623-1.229c-1.884-.878-12.463-2.561-14.781 2.488-2.319 5.049 3.188 11.781 4.565 12.513 0 0 1.304 1.024 1.594 1.537.29.512 1.956.658 1.956.658s1.739.805 2.174 1.244c.32.324 2.968 1.166 6.11 1.82 0 0-2.537 5.839 1.6 5.357 4.137-.482 6.153-2.518 9.07-2.518 1.166 0 3.331-.162 5.51-.357.548.096 1.088.223 1.62.382 1.229.384 2.49.654 3.769.805 0 0 3.26 1.756 4.999 1.317.144-.044.279-.116.395-.212l.04-.008a2.318 2.318 0 001.047-.898c2.176.223 4.654.54 5.587.9 1.803.696 14.692-.268 14.692-.268s8.328.164 10.715.885c2.386.722 1.538-7.367-2.865-8.277a17.86 17.86 0 00-3.582-.317c.306-.314.584-.652.833-1.012 1.586-.144 2.628-.233 2.628-.233s4.203-2.049 6.594-3.293a15.027 15.027 0 004.057-3.22s2.102-1.317 2.971-1.829c.87-.512 1.304-2.195 1.304-2.195 6.594-14.929-10.144-12.953-10.144-12.953zm-18.869-18.726l.003-.738c.231.167.197.429-.002.738zm.07 5.175c.175.231.345.442.468.599.468.6-.38.893-.318 1.9l.054.887c-.089-1.442-.162-2.639-.205-3.386z" fill="url(#prefix__paint0_linear)"/><path d="M23.286 273.691s-4.058-.942-5.942-1.812c-1.884-.869-12.463-2.536-14.781 2.464-2.319 5 3.188 11.666 4.565 12.39 1.376.725 14.78-9.202 14.78-9.202l10.58 4.456 2.029-6.919-11.231-1.377z" fill="#65617D"/><path d="M66.42 275.067H35.127a7.37 7.37 0 00-7.369 7.369v1.275c0 4.07 3.3 7.369 7.37 7.369h31.29a7.369 7.369 0 007.37-7.369v-1.275a7.37 7.37 0 00-7.37-7.369z" fill="#65617D"/><path opacity=".1" d="M73.788 283.073a8.008 8.008 0 01-8.005 8.008H35.766a8.005 8.005 0 01-8.007-8.007 8.005 8.005 0 018.007-8.007h30.017a8.008 8.008 0 018.006 8.006z" fill="#000"/><path d="M48.727 283.542s-4.615 1.185-8.38 1.132c-3.766-.053-21.386 7.266-21.386 7.266s-2.536 5.782 1.601 5.304c4.137-.477 6.153-2.492 9.07-2.492 2.918 0 12.094-1.008 12.094-1.008l8.83-6.524-1.829-3.678zM51.617 228.984l-8.28 1.633-.537.106s-6.545-1.739-6.762-1.884c-.218-.144-6.159-8.152-6.159-8.152s3.004.033 5.365-1.328c.085-.048.167-.1.25-.152a5.225 5.225 0 002.239-2.735c.041-.119.078-.243.113-.371a7.347 7.347 0 00-.07-3.565c-.8-3.378 1.055-4.308 3.526-4.228 3.57.117 8.43 2.345 8.43 2.345a9.895 9.895 0 00.763 3.304c.04.098.083.196.126.296a9.433 9.433 0 004.398 4.613c.086.043.171.087.26.128.263.126.542.246.83.354 6.304 2.391-4.492 9.636-4.492 9.636z" fill="#FBBEBE"/><path opacity=".1" d="M50.62 214.253a10.433 10.433 0 01-12.887 2.22 7.015 7.015 0 00.043-3.937c-1.956-8.26 11.956-1.882 11.956-1.882.07 1.244.371 2.465.889 3.599z" fill="#000"/><path d="M53.234 206.915a10.377 10.377 0 01-2.739 7.043 10.384 10.384 0 01-7.695 3.391 10.43 10.43 0 01-9.64-6.441 10.436 10.436 0 017.605-14.227 10.436 10.436 0 0112.469 10.234z" fill="#FBBEBE"/><path opacity=".1" d="M51.617 228.984l-8.28 1.633-.537.106s-6.545-1.739-6.762-1.884c-.218-.144-6.159-8.152-6.159-8.152s3.004.033 5.365-1.328c.085-.048.167-.1.25-.152a9.72 9.72 0 007.063 3.089 9.964 9.964 0 001.473-.118c1.165-.178 2.34-.293 3.51-.415 2.244-.234 5.677-.915 7.479-2.897.086.043.171.087.26.128.263.126.542.246.83.354 6.304 2.391-4.492 9.636-4.492 9.636z" fill="#000"/><path d="M60.964 250.141c.071 1.596 1.232 19.564 1.232 19.564H26.038l.246-11.312.198-9.049.065-2.97.29-10.288-1.046-.922-5.693-5.021.002-.002c.043-.135 1.589-4.715 1.374-5.358-.218-.652 2.754-3.261 3.769-3.406a12.764 12.764 0 001.7-.518c1.708-.6 3.988-1.482 4.24-1.345.355.191 3.911-.139 4.061-.155h.005a9.692 9.692 0 007.308 3.372 9.964 9.964 0 001.473-.118c1.165-.178 2.34-.293 3.51-.415 2.357-.245 6.022-.984 7.74-3.204a10.98 10.98 0 012.423.52c1.158.311 2.35.474 3.55.487.944.262 1.865.6 2.754 1.013.843.401 1.715.741 2.608 1.015 0 0 1.668.434 2.102 4.636.435 4.204.87 6.595.87 6.595l-8.623 7.463s-.072 7.825 0 9.418z" fill="#EB850E"/><path d="M20.097 262.677l1.267 2.029 4.747 1.673 3.26-5.948-3.005-2.029-4.82-1.883-2.753 1.593 1.304 4.565z" fill="#FBBEBE"/><path d="M60.602 272.676s6.738-.507 9.491-3.623c2.754-3.115 9.71-4.782 9.71-4.782s16.737-1.956 10.144 12.825c0 0-.435 1.667-1.305 2.174-.869.507-2.97 1.811-2.97 1.811l-25.718-2.246.648-6.159z" fill="#65617D"/><path opacity=".1" d="M73.789 283.073a7.98 7.98 0 01-1.333 4.426c-4.326.385-13.907 1.285-15.912 1.843-2.462.683-7.447-.506-7.992-.641-.033-.006-.05-.011-.05-.011s-.961-2.915-1.42-4.78c-.206-.847-.31-1.478-.176-1.523.435-.146 4.422-1.233 4.348-.618-.072.618 11.955-4.673 11.955-4.673l.37 4.638c1.226 1.406 10.21-.673 10.21 1.339z" fill="#000"/><path d="M86.179 279.197l-.507 1.884a14.997 14.997 0 01-4.058 3.188c-2.39 1.232-6.594 3.261-6.594 3.261s-15.433 1.304-18.041 2.029c-2.609.724-8.043-.652-8.043-.652s-2.029-6.159-1.594-6.304c.435-.145 4.42-1.232 4.347-.616-.072.616 11.956-4.674 11.956-4.674l22.534 1.884z" fill="#65617D"/><path d="M43.21 295.441s7.585.53 9.389 1.22c1.803.69 14.692-.265 14.692-.265s8.327.162 10.714.876c2.387.715 1.538-7.294-2.864-8.196-4.402-.901-10.608.425-10.608.425s-7.002-.902-7.85-1.008c-.849-.106-6.444.051-6.444.051l-7.029 6.897z" fill="#FBBEBE"/><path opacity=".1" d="M13.402 275.445s10.025.902 12.783 2.546l-12.783-2.546zM75.937 268.868s-7.85 1.909-10.926 4.72l10.926-4.72zM13.985 273.164c.16.053 4.615.637 4.509 1.061-.106.424-4.509-1.061-4.509-1.061zM6.983 284.342l.58 2.174a9.39 9.39 0 011.594 1.521c.29.508 1.956.652 1.956.652s1.739.798 2.174 1.232c.434.435 5.144 1.812 9.564 2.391 4.42.58 12.608 1.667 14.347 2.247 1.228.381 2.49.647 3.767.797 0 0 3.261 1.739 5 1.304 1.739-.435 4.71-8.333 4.71-8.333s-11.449-2.681-11.81-3.55c-.363-.87-11.377-4.925-11.377-4.925l-6.52.154-13.985 4.336z" fill="#000"/><path d="M6.548 284.559l.58 2.174c.589.443 1.124.954 1.594 1.522.29.507 1.956.652 1.956.652s1.739.797 2.174 1.232c.434.434 5.144 1.811 9.564 2.391 4.42.579 12.608 1.666 14.347 2.246 1.228.381 2.49.648 3.767.797 0 0 3.26 1.739 5 1.304 1.739-.435 4.71-8.333 4.71-8.333s-11.449-2.68-11.81-3.55c-.363-.869-16.521-7.463-16.521-7.463l-5.072-1.159-10.29 8.187z" fill="#65617D"/><path d="M21.364 229.419l-1.267.725-2.444 16.665s-1.29 1.232-.887 2.029c.403.797-.078 2.174-.078 2.174s-2.181.942-1.697 1.521c.484.58.263 1.667-.07 2.391-.334.725-.877 2.029 0 2.247.877.217.15 3.043.15 3.043s3.059-.348 2.834 1.449c-.09.725 3.46 3.043 3.46 3.043s-4.035-7.318 5.001-6.304l.777-4.126s.777-2.322 0-3.047c-.777-.724.174-4.166.174-4.166l.171-14.963-6.124-2.681z" fill="#EB850E"/><path opacity=".1" d="M19.395 250.94c.16.265 5.04.806 5.358 1.676.318.87-5.358-1.676-5.358-1.676zM17.857 255.077s.662-2.068 2.24-1.697c1.58.371-2.24 1.697-2.24 1.697zM17.009 258.101s1.167-2.759 2.758-2.546c1.591.212-2.758 2.546-2.758 2.546z" fill="#000"/><path d="M70.093 258.04l-.507 3.043s-5.217 9.564-6.159 9.709c-.942.145-6.086-6.376-6.086-6.376l-1.377-6.376 5.42-1.027 2.405-2.379s6.087.58 6.304 3.406z" fill="#FBBEBE"/><path d="M67.63 231.883l1.956 1.377v7.318s1.522-.145 1.16.652c-.363.797-1.087 1.232-.435 1.956.652.725.507 2.101-.073 2.246-.58.145-1.594.725-.652 1.087.942.363 1.522 1.015 1.522 1.449a2.6 2.6 0 01-.29 1.594c-.362.508-.725 1.667-.29 2.102.435.434-.362 2.681-.362 2.681s1.377 3.55.072 4.564c0 0-.58 2.029-.652 2.174 0 0 .913-7.054-8.202-4.07 0 0-.17-2.688-.231-3.685-.061-.998.786-1.287.318-1.882-.468-.594-1.64-1.956-1.087-2.318.554-.362.362-1.015.145-1.522-.217-.507-.985-.507-.29-1.123.694-.616 1.104-1.194.697-1.485-.407-.29-1.115-1.234-.552-1.667.563-.433.58-6.738.58-6.738s2.319-9.275 6.666-4.71z" fill="#EB850E"/><path opacity=".1" d="M66.708 244.35s2.786-.756 2.878 0c.092.756-2.878 0-2.878 0zM63.579 246.431s3.819-.954 4.296-.212c.477.743-4.296.212-4.296.212zM62.73 248.447s5.728-.796 6.1.371c.371 1.167-6.1-.371-6.1-.371zM63.579 250.94c.212.053 5.516.424 5.622 1.432.106 1.008-5.622-1.432-5.622-1.432z" fill="#000"/><path d="M61.74 254.206H25.617a4.65 4.65 0 00-4.65 4.65v16.501a4.65 4.65 0 004.65 4.649H61.74a4.65 4.65 0 004.65-4.649v-16.501a4.65 4.65 0 00-4.65-4.65z" fill="#3F3D56"/><path d="M43.679 268.781a1.675 1.675 0 100-3.35 1.675 1.675 0 000 3.35z" fill="#E7EFFD"/><path opacity=".1" d="M28.575 238.394s4.354 3.327 7.72.791c0 0-5.691.518-7.72-.791zM50.621 239.288s4.353 3.327 7.72.791c0 0-5.691.518-7.72-.791z" fill="#000"/><path opacity=".1" d="M53.234 206.915a10.379 10.379 0 01-1.58 5.521c-.088-2.906-.772-5.812-2.353-8.238-1.447-2.224-5.847-6.122-8.873-5.037a2.153 2.153 0 00-1.321 1.422c-.3 1.139.578 1.613 1.14 2.519a7.715 7.715 0 011.055 5.206 7.32 7.32 0 01-.152.722c-.476 1.787-1.567 3.832-.441 5.299.784 1.022 2.471 1.374 2.7 2.641.02.119.028.239.021.359-.052.852-.78 1.604-1.097 2.443-.374.987-.164 1.968.223 2.959.505 1.293 1.307 2.602 1.5 3.967.192 1.345-.224 2.632-.72 3.919a17.57 17.57 0 00-1.195 3.689c-.35 2.408.533 5.193-.982 7.097-.154.23-.392.391-.663.448-.972.102-.807-1.643-1.587-2.23.083 1.015.16 2.071-.207 3.021-.37.95-1.326 1.754-2.332 1.596l-.346-2.278a6.577 6.577 0 01-2.413 1.51 17.59 17.59 0 012.518-6.819c-2.552 1.228-4.04 3.889-5.367 6.389-.828 1.563-1.685 3.271-1.396 5.017.118.711.424 1.387.492 2.104.067.717-.194 1.552-.861 1.826a1.55 1.55 0 01-1.68-.522 2.22 2.22 0 01-.188-.25 2.536 2.536 0 01-.193-.343 6.663 6.663 0 01-.409-1.333l-.045-.195c-.674-2.963-1.283-6.017-.79-9.013.183-1.104.516-2.197.477-3.317a6.133 6.133 0 00-.378-1.849c-.592-1.657-1.73-3.181-2.38-4.85a.261.261 0 01-.016-.037c-.341-.885-.509-1.989.122-2.698a5.488 5.488 0 011.21-.819c1.261-.822 1.826-2.38 2.057-3.867.106-.673.159-1.353.159-2.035 1.708-.6 3.988-1.482 4.24-1.345.355.191 3.911-.139 4.061-.155a5.31 5.31 0 002.489-2.886c.041-.12.078-.244.113-.372a10.434 10.434 0 1115.388-9.186z" fill="#000"/><path d="M41.15 208.594c-.477 1.788-1.567 3.833-.44 5.3.784 1.023 2.47 1.374 2.697 2.643.18 1.004-.714 1.847-1.075 2.801-.86 2.276 1.383 4.515 1.724 6.924.37 2.614-1.535 4.997-1.915 7.61-.35 2.408.533 5.192-.983 7.095a1.055 1.055 0 01-.663.449c-.971.103-.806-1.642-1.587-2.229.084 1.015.162 2.071-.206 3.021-.368.95-1.326 1.754-2.332 1.595l-.346-2.279a6.588 6.588 0 01-2.413 1.512 17.596 17.596 0 012.518-6.819c-2.551 1.229-4.039 3.888-5.366 6.389-.83 1.562-1.685 3.27-1.396 5.015.118.712.424 1.387.491 2.105s-.194 1.552-.861 1.826a1.582 1.582 0 01-1.752-.608 4.583 4.583 0 01-.717-1.84c-.692-3.024-1.34-6.147-.834-9.208.182-1.104.514-2.198.474-3.317-.087-2.446-1.893-4.452-2.774-6.736-.341-.884-.507-1.988.122-2.698a5.541 5.541 0 011.212-.819c1.26-.822 1.826-2.38 2.057-3.866a13.4 13.4 0 00-.137-4.841c-.509-2.383-1.675-4.709-1.387-7.129.284-2.379 1.915-4.341 3.01-6.472a15.322 15.322 0 001.553-8.949c-.189-1.429-.518-3.084.45-4.151 1.164-1.282 3.417-.8 4.745-1.911.647-.542.962-1.373 1.443-2.068a5.063 5.063 0 012.407-1.808 5.063 5.063 0 013.008-.125c.912.262 1.731.781 2.633 1.074 1.274.415 2.646.361 3.975.52 1.33.159 2.739.607 3.505 1.706.406.583.59 1.295.963 1.9.8 1.298 2.326 1.922 3.481 2.916a6.76 6.76 0 011.903 7.219c-.69 1.921-2.286 3.618-2.15 5.655.056.836.411 1.656.296 2.487-.319 2.308-3.67 2.769-4.827 4.791.092-3.315-.544-6.732-2.354-9.511-1.449-2.225-5.848-6.122-8.873-5.037a2.142 2.142 0 00-1.322 1.422c-.3 1.139.578 1.612 1.14 2.52a7.66 7.66 0 01.903 5.926z" fill="#3F3D56"/><g opacity=".2" fill="#000"><path opacity=".2" d="M26.938 220.084a13.395 13.395 0 00-.289-3.103c-.433-2.026-1.337-4.011-1.422-6.047-.117 2.266.944 4.457 1.422 6.699.172.807.269 1.627.29 2.451zM35.573 236.534c.177-.323.36-.643.556-.955-2.55 1.229-4.038 3.888-5.365 6.389-.768 1.446-1.557 3.019-1.44 4.629.096-1.382.775-2.726 1.44-3.977 1.227-2.313 2.594-4.759 4.81-6.086zM29.846 249.642a1.538 1.538 0 01-.849 1.272 1.582 1.582 0 01-1.751-.608 4.583 4.583 0 01-.717-1.84 32.756 32.756 0 01-1.01-6.579c-.048 2.42.466 4.856 1.01 7.231.102.659.347 1.286.717 1.84a1.58 1.58 0 001.751.608c.668-.274.93-1.108.862-1.826-.003-.033-.01-.065-.013-.098zM41.385 206.416a7.263 7.263 0 01-.235 1.541c-.353 1.325-1.042 2.791-.917 4.059.096-1.103.623-2.304.917-3.407a7.349 7.349 0 00.235-2.193zM29.95 196.743a15.038 15.038 0 00-.125-2.312c-.075-.565-.17-1.164-.2-1.749-.007.804.06 1.608.2 2.401.072.55.114 1.105.125 1.66zM43.408 216.551c-.003-.018-.01-.034-.013-.051-.154.754-.776 1.442-1.062 2.2a3.11 3.11 0 00-.178 1.418c.025-.262.085-.519.178-.766.36-.954 1.254-1.797 1.075-2.801zM26.169 235.941c-.088-2.446-1.893-4.452-2.774-6.736a4.506 4.506 0 01-.283-1.114c-.05.603.048 1.209.283 1.766.867 2.246 2.623 4.224 2.764 6.615.01-.176.016-.353.01-.531zM49.302 203.125c-1.448-2.225-5.848-6.122-8.873-5.037a2.142 2.142 0 00-1.322 1.422 1.54 1.54 0 00-.022.762c.007-.037.012-.072.022-.11a2.145 2.145 0 011.322-1.422c3.025-1.085 7.425 2.812 8.873 5.037 1.64 2.517 2.313 5.557 2.358 8.571.048-3.225-.6-6.524-2.358-9.223zM56.484 207.845c-.318 2.303-3.656 2.768-4.82 4.778 0 .222-.002.444-.008.665 1.157-2.022 4.509-2.483 4.828-4.791.028-.227.03-.456.002-.683-.001.01 0 .021-.002.031zM58.338 199.703c-.69 1.921-2.286 3.619-2.15 5.655.002.03.007.06.01.089.15-1.792 1.514-3.351 2.14-5.092.28-.795.401-1.639.354-2.481a6.274 6.274 0 01-.354 1.829zM41.159 240.329a1.056 1.056 0 01-.663.449c-.971.103-.806-1.642-1.587-2.229.019.231.037.464.05.698.721.624.588 2.284 1.537 2.183.272-.056.51-.218.663-.449.865-1.085.949-2.458.926-3.884-.022 1.188-.194 2.313-.926 3.232zM38.703 241.57c-.369.95-1.326 1.754-2.332 1.595l-.346-2.279a6.604 6.604 0 01-2.292 1.465c-.044.232-.087.465-.121.699a6.588 6.588 0 002.413-1.512l.346 2.279c1.006.159 1.963-.645 2.331-1.595.23-.662.32-1.363.268-2.062a4.384 4.384 0 01-.267 1.41zM42.142 233.234c-.078.612-.108 1.23-.088 1.846a9.55 9.55 0 01.088-1.194c.362-2.49 2.107-4.772 1.95-7.243-.14 2.225-1.62 4.321-1.95 6.591z"/></g><path d="M317.115 44.814V88.43c0 2.302-2.22 4.173-4.962 4.173H207.135c-2.741 0-4.962-1.871-4.962-4.173V44.814c0-2.306 2.221-4.657 4.962-4.657h105.018c2.742 0 4.962 2.35 4.962 4.657z" fill="#fff"/><path opacity=".2" d="M317.115 45.119v12.168H202.173V45.119a4.951 4.951 0 011.453-3.509 4.964 4.964 0 013.509-1.453h105.018a4.958 4.958 0 014.962 4.962z" fill="#EB850E"/><path d="M208.477 52.04a3.318 3.318 0 100-6.637 3.318 3.318 0 000 6.637zM218.13 52.04a3.318 3.318 0 100-6.637 3.318 3.318 0 000 6.637zM227.783 52.04a3.318 3.318 0 100-6.636 3.318 3.318 0 000 6.636z" fill="#fff"/><path d="M105.989 132.8c3.06 2.051 7.7 1.074 7.7 1.074s7.01-3.319 9.083-3.319c2.073 0 7.108-2.051 7.108-2.051l-.17-1.382-.514-4.166c3.191 2.487 6.736 1.629 8.484 1.447 1.875-.195 11.894-6.151 12.858-6.542a2.55 2.55 0 00.878-.886h.002a22.493 22.493 0 001.696-3.099h-.001c.628-.552 1.086-.996 1.054-1.092.134-.57.34-1.121.613-1.639a8.049 8.049 0 003.04-1.095c.155-.126.296-.269.42-.425a2.704 2.704 0 00.567-1.723s9.774-9.861 8.49-13.962c-1.283-4.101 3.159-4.199 3.159-4.199s6.812-2.929 7.76-4.686c.585-1.082 5.693-3.455 9.539-5.123l.473-.204c1.495 3.271 9.07.755 10.563-.63 1.579-1.464 6.219-2.148 6.219-2.148s.198-19.137 1.679-21.578c.703-1.158.872-4.937.855-8.586l-.003-.389c2.074-.404 7.007-1.342 9.299-1.57 1.452-.145 2.965-1.05 4.126-1.93.089.11.137.172.137.172.399.165.831.236 1.263.208.381.041.766-.031 1.106-.208.888-.488 4.146-1.464 5.331-1.952 1.185-.488-.197-4.003-1.086-4.687-.888-.684-1.481-1.562-.987-1.953.494-.39-1.185-1.367-2.172-1.562-.987-.195-3.949-1.562-3.949-1.562s-1.086-2.246-2.863-2.246-4.147-1.758-4.147-1.758c-.098-.78-1.974-.878-1.974-.878s-7.108-5.468-8.293-4.785c-1.185.684-4.443-1.074-4.443-1.074s-3.995.448-4.936-.288v-.005a1.123 1.123 0 00-.237-.662c-.213-.66-1.245-1.566-2.247-2.32a8.888 8.888 0 00.093-2.022c-.002-.034-.007-.068-.009-.101l.139-1.375c.011-.453.129-.896.345-1.294.167-.257.412-.46.598-.705.043-.059.084-.12.121-.183l.029-.051c.027-.049.051-.098.074-.148l.022-.05c.057-.134.099-.274.128-.416l.006-.034c.013-.064.023-.13.03-.195l.003-.027a4.207 4.207 0 00-.222-1.677c-.296-.922-.759-1.814-.809-2.776a8.553 8.553 0 00-.05-1.431c-.238-1.066-1.336-1.747-2.392-2.19-1.459-.611-2.195-1.28-3.368-2.19-.996-.772-2.64-.384-3.895-.303-2.864.183-5.692 1.045-8.385 1.938a8.339 8.339 0 00-2.93 1.454 3.227 3.227 0 00-1.072 1.81c-.029.164-.04.329-.033.494l.003.044a2.01 2.01 0 00.086.474l.001.006c.114.36.325.686.447 1.043.027.08.05.16.067.241l.006.027c.016.078.03.156.04.235.108.888-.219 1.815-.364 2.72a4.534 4.534 0 00-.044.389h-.001v.004c-.043.524.004 1.05.137 1.559l.004.017c.017.063.037.124.057.186l.026.08.06.154.042.102a3.182 3.182 0 00.121.246 4.447 4.447 0 00.14.233 2.473 2.473 0 00.161.22l.078.094c.034.038.069.074.104.11l.082.082c.04.036.082.07.123.105.028.022.055.046.084.068.049.037.101.07.153.104.025.016.048.033.074.049.081.048.164.091.249.13.567.259 1.281.351 1.624.849.08.118.136.25.166.389l-.002.1v.087c.004.289.019.574.049.855-.002.155.006.31.026.463.017.116.05.228.096.336a8.862 8.862 0 002.995 5.028l.101.525a9.87 9.87 0 01-2.873 1.506c-2.369.693-5.726 3.894-5.726 3.894s-1.668 12.01-2.067 13.474c-.401 1.465-.697 7.128-.697 7.128s-.395 2.343-.987 3.515c-.419.826-.344 4.374.827 6.53a5.547 5.547 0 01-.728 1.183c-2.37 2.734-9.478 2.637-11.848 2.637-2.182 0-2.855 1.323-2.948 1.531-4.337 1.232-18.388 5.243-20.055 5.971-1.974.863-3.06 9.39-3.06 9.39s-4.147 14.157-3.949 16.02c.197 1.863-1.382 7.022-1.382 7.022s0 5.841-.672 6.237a.039.039 0 01-.019.012c-.691.293-.593 3.125-.593 3.125s.508.147 1.302.347c-.211 1.432-.988 3.434-1.6 4.855-.307-.389-.607-.552-.788-.098-.493 1.242-7.898 10.03-9.773 10.03-.895 0-2.372.732-3.343 1.72-1.065 1.086-1.517 2.48.085 3.552zm33.961-50.87c8.392.781 17.376-.596 17.376-.596s-.691 2.451-1.284 3.428c-.592.976-2.27 6.541-2.27 7.713 0 1.172-2.666 11.229-3.456 11.717-.39.331-.686.76-.859 1.242-.208.485-.382.983-.523 1.492.012.255.036.495.068.723a318.42 318.42 0 01-1.77 1.609v-.001s-3.53 1.965-4.715 3.039-6.713 2.39-6.713 2.39a34.358 34.358 0 00-3.973 2.027c-1.713 1.034-3.428 2.345-3.875 3.641.194-2.182.51-4.811.72-6.483.108-.002.213-.007.316-.013 2.766-.172 2.353-2.812 2.207-3.466a2.347 2.347 0 00-.035-.146c1.974-2.149 6.417-18.161 5.824-19.919-.592-1.757.494-3.32.729-3.32s.555-1.953.061-3.026c-.493-1.075 2.172-2.051 2.172-2.051zm67.861-43.075c-.175.042-.349.084-.523.13l-.007-.114s.197 0 .53-.016zm-28.686-14.733a5.875 5.875 0 01-.243.285l-.101.105a19.618 19.618 0 01-.001-.542c.114.053.229.104.345.152zm-9.89 18.943l.037.55s-.054.334-.154.909l.117-1.46zm45.371-5.457l-1.722.297c.244-.092.484-.193.717-.303.172-.082.358-.132.549-.15.218.023.434.069.642.138a1.331 1.331 0 00-.186.018z" fill="url(#prefix__paint1_linear)"/><path d="M156.344 108.102s-1.984 4.106-1.887 4.396c.097.291-4.264 3.779-4.264 3.779l-4.748-3.391.485-2.326s5.329-4.802 5.717-5.356c.387-.554 4.697 2.898 4.697 2.898z" fill="#BE6F72"/><path d="M129.263 121.994c3.295 3.198 7.171 2.229 9.012 2.035 1.841-.193 11.674-6.104 12.62-6.492.356-.217.652-.519.862-.88h.002c.634-.98 1.19-2.008 1.665-3.075-.066.017-3.289.938-4.103-.002 0 0-1.357-1.663-1.647-1.663-.291 0-.024-2.918-.024-2.918s-3.465 1.949-4.627 3.015c-1.163 1.066-6.589 2.372-6.589 2.372a33.57 33.57 0 00-3.9 2.012c-2.569 1.567-5.145 3.779-3.271 5.596z" fill="#3F3D56"/><path opacity=".1" d="M129.263 121.994c3.295 3.198 7.171 2.229 9.012 2.035 1.841-.194 11.674-6.104 12.62-6.492.356-.217.652-.52.862-.88-1.147-.684-8.638 4.078-10.734 4.95-2.095.872-7.4.387-10.403-.872-1.5-.628.019-2.56 1.914-4.338-2.569 1.568-5.145 3.779-3.271 5.597z" fill="#000"/><path d="M129.651 111.917s-1.38 10.368-1.029 11.725c.35 1.356-8.661-4.651-8.661-4.651s3.153-6.497 2.229-7.99c-.925-1.493 7.461.916 7.461.916z" fill="#BE6F72"/><path d="M121.027 112.111s5.62 1.647 8.721 1.453c2.715-.17 2.31-2.791 2.166-3.44-.019-.093-.035-.145-.035-.145 1.938-2.132 6.299-18.023 5.717-19.767-.581-1.744.485-3.295.715-3.295.231 0 .545-1.938.06-3.004-.484-1.066 2.132-2.034 2.132-2.034 8.237.775 17.054-.592 17.054-.592s-.678 2.433-1.259 3.402c-.582.969-2.229 6.492-2.229 7.655 0 1.162-2.616 11.143-3.392 11.627-.383.33-.674.755-.843 1.233-.204.481-.375.976-.513 1.48.291 6.493 7.655 3.973 8.721 3.101a2.644 2.644 0 00.969-2.132s9.593-9.786 8.333-13.856c-1.26-4.07 3.101-4.167 3.101-4.167s6.686-2.907 7.616-4.65c.573-1.074 5.587-3.429 9.362-5.084a177.22 177.22 0 014.242-1.796l-1.571-5.636-1.239-4.442-2.331-.876-7.455-2.806-13.386-1.841-1.227.159-13.003 1.682s-18.992 5.426-20.93 6.283c-1.938.856-3.004 9.318-3.004 9.318s-4.07 14.05-3.876 15.899c.194 1.848-1.357 6.969-1.357 6.969s0 5.796-.658 6.189a.047.047 0 01-.02.012c-.678.291-.581 3.101-.581 3.101z" fill="#3F3D56"/><path opacity=".1" d="M140.503 81.879c8.237.775 17.054-.591 17.054-.591.582-1.832 8.727-6.87 8.727-6.87-6.682-1.648-25.781 7.46-25.781 7.46z" fill="#000"/><path d="M149.321 106.685c.291 6.492 7.655 3.973 8.721 3.1.153-.125.291-.267.413-.422-2.574.948-7.136 1.68-8.62-4.159-.204.482-.376.976-.514 1.481zM121.027 112.111s5.62 1.647 8.721 1.453c2.715-.17 2.31-2.79 2.166-3.44-2.845-.089-7.744-.356-10.286-1.125a.056.056 0 01-.02.011c-.678.291-.581 3.101-.581 3.101z" fill="#444053"/><path opacity=".1" d="M149.321 106.685c.291 6.492 7.655 3.973 8.721 3.1.153-.125.291-.267.413-.422-2.574.948-7.136 1.68-8.62-4.159-.204.482-.376.976-.514 1.481zM121.027 112.111s5.62 1.647 8.721 1.453c2.715-.17 2.31-2.79 2.166-3.44-2.845-.089-7.744-.356-10.286-1.125a.056.056 0 01-.02.011c-.678.291-.581 3.101-.581 3.101z" fill="#000"/><path d="M107.17 132.362c3.004 2.035 7.558 1.066 7.558 1.066s6.88-3.294 8.915-3.294c2.035 0 6.977-2.035 6.977-2.035l-.167-1.372-.802-6.574s-7.547-.194-7.849-.872c0 0-1.357-3.337-1.841-2.104-.485 1.232-7.752 9.953-9.593 9.953-.878 0-2.327.727-3.281 1.707-1.044 1.078-1.488 2.461.083 3.525z" fill="#3F3D56"/><path opacity=".1" d="M133.236 75.096s6.299 3.972 4.555 4.845c-1.745.872-4.555-4.845-4.555-4.845zM130.62 82.751s5.426 5.151 3.391 5.289c-2.035.137-3.391-5.289-3.391-5.289zM124.806 99.126s2.754 5.179 1.716 6.078-1.716-6.078-1.716-6.078zM155.135 104.359c-.969.969 9.205-3.198 6.88-3.391-2.326-.194-6.88 3.391-6.88 3.391z" fill="#000"/><path d="M175.483 31.685l.324-.048c1.205-.184 5.574-.87 9.492-1.721a65.84 65.84 0 002.731-.647c3.002-.787 5.015-1.636 3.732-2.332-1.699-.922-2.595-2.598-3.068-4.04-.044-.142-.087-.28-.126-.415a10.685 10.685 0 01-.391-2.23s-10.949-3.877-8.818 0c1.047 1.9.343 3.453-.645 4.54a8.496 8.496 0 01-2.359 1.758l-.872 5.135z" fill="#BE6F72"/><path opacity=".1" d="M187.208 28.682s-3.916 2.81-7.917.484c-4.001-2.325-9.234 20.543-9.234 20.543l-5.426 13.371s-3.515 2.907.858 4.167c4.374 1.26 14.08-1.26 16.543 2.422 2.463 3.683 7.13 4.264 7.606 4.264.477 0 2.324-13.857 2.324-13.857l.479-20.057-5.233-11.337z" fill="#000"/><path d="M165.683 66.472c4.374 1.26 14.079-1.26 16.542 2.422a9.466 9.466 0 004.169 3.355c1.089.489 2.25.796 3.438.909.064 0 .155-.254.262-.694.682-2.804 2.062-13.162 2.062-13.162l.478-20.058-4.604-9.975-.628-1.362a8.352 8.352 0 01-1.996.97 7.026 7.026 0 01-5.923-.486c-1.174-.682-2.453.805-3.676 3.246-2.944 5.88-5.556 17.297-5.556 17.297l-5.426 13.372c-.129.11-.252.228-.369.352-.771.812-2.215 2.824 1.227 3.814z" fill="#F3F5F9"/><path opacity=".1" d="M186.524 67.147a25.229 25.229 0 00-.13 5.102c.157 2.419.461 4.826.911 7.207.027.15.067.297.118.44 2.364-1.037 4.242-1.796 4.242-1.796l-1.571-5.636c.682-2.804 2.062-13.162 2.062-13.162l.478-20.058-4.604-9.975c3.002-.787 5.015-1.635 3.732-2.331-1.864-1.012-2.761-2.932-3.194-4.456a16.234 16.234 0 01-2.753 2.964l-.061.05-.348 3.382-.107 1.038-.223 2.157s1.066 25.484 1.841 26.938c.775 1.453.388 4.264-.29 7.558-.039.186-.072.378-.103.578z" fill="#000"/><path d="M187.014 66.181c-.678 3.294-.097 8.72.678 12.887.776 4.167 9.012 1.454 10.562 0 1.551-1.453 6.105-2.131 6.105-2.131s.194-18.992 1.647-21.415c.69-1.149.857-4.899.839-8.521a153.634 153.634 0 00-.234-7.47c-.016-.249-.023-.384-.023-.384s6.298-10.66 6.201-11.434c-.097-.776-1.938-.873-1.938-.873s-6.977-5.426-8.139-4.747c-1.163.678-4.361-1.066-4.361-1.066s-4.052.459-4.889-.322a.43.43 0 01-.149-.357c.095-1.24-4.13-3.89-4.26-3.97 3.56 3.203-2.198 8.139-2.851 8.68a9.9 9.9 0 01-.06.05l-.678 6.577s1.066 25.485 1.841 26.938c.775 1.453.387 4.264-.291 7.558z" fill="#67647E"/><path d="M187.389 38.983a.485.485 0 100-.97.485.485 0 000 .97z" fill="#444053"/><path opacity=".1" d="M186.396 25.445l2.944 2.849 4.316-7.201a.42.42 0 01-.15-.357c.095-1.24-4.129-3.89-4.259-3.97 3.56 3.203-2.198 8.139-2.851 8.68zM188.359 54.486a.484.484 0 100-.969.484.484 0 000 .97z" fill="#000"/><path d="M188.359 54.293a.484.484 0 100-.97.484.484 0 000 .97z" fill="#444053"/><path d="M186.202 25.058l2.944 2.848 4.316-7.201a.42.42 0 01-.149-.357c.094-1.24-4.13-3.89-4.26-3.97 3.56 3.203-2.198 8.139-2.851 8.68z" fill="#67647E"/><path d="M183.9 52.208l5.231.12c.417.009.763-.321.772-.738l.291-12.736a.756.756 0 00-.738-.772l-5.232-.119a.755.755 0 00-.772.737l-.29 12.736a.755.755 0 00.738.772z" fill="#3F3D56"/><path opacity=".1" d="M183.9 52.208l5.231.12c.417.009.763-.321.772-.738l.291-12.736a.756.756 0 00-.738-.772l-5.232-.119a.755.755 0 00-.772.737l-.29 12.736a.755.755 0 00.738.772z" fill="#000"/><path d="M183.935 52.524l5.232.12c.417.009.763-.321.772-.738l.29-12.736a.754.754 0 00-.737-.772l-5.232-.12a.755.755 0 00-.772.739l-.29 12.735c-.01.417.32.763.737.772z" fill="#3F3D56"/><path d="M186.894 43.563a1.06 1.06 0 100-2.12 1.06 1.06 0 000 2.12z" fill="#67647E"/><path opacity=".1" d="M150.387 65.31c2.423 1.065 18.314-1.745 20.639-2.423 2.326-.678 5.717-5.911 4.07-9.69-1.647-3.779.582-7.461.582-7.461s3.488-7.461 4.263-8.915c.775-1.453 2.391-5.686 2.616-6.395a.573.573 0 00-.137-.444c-.63-.959-3.06-2.657-3.06-2.657-.684.248-.77-1.71-.743-3.15.016-.807.064-1.45.064-1.45s-.321.327-.846.773c-.192.16-.411.339-.654.523a10.024 10.024 0 01-3.054 1.669c-2.325.688-5.62 3.864-5.62 3.864l.969 14.881s-2.229 13.994-4.554 16.708c-2.326 2.713-9.302 2.616-11.628 2.616-2.325 0-2.907 1.55-2.907 1.55z" fill="#000"/><path d="M150.193 64.728c2.422 1.066 18.314-1.744 20.639-2.423 2.326-.678 5.717-5.91 4.07-9.69-1.647-3.779.581-7.46.581-7.46s3.489-7.462 4.264-8.915c.775-1.454 2.391-5.686 2.616-6.396a.573.573 0 00-.138-.443c-.629-.96-3.06-2.657-3.06-2.657-.684.248-.769-1.711-.742-3.151.016-.806.064-1.45.064-1.45s-.322.328-.847.773a17.8 17.8 0 01-.653.524 10.038 10.038 0 01-3.054 1.668c-2.326.688-5.62 3.864-5.62 3.864l.969 14.882s-2.229 13.994-4.554 16.707c-2.326 2.713-9.303 2.616-11.628 2.616-2.326 0-2.907 1.55-2.907 1.55z" fill="#67647E"/><path opacity=".1" d="M176.549 22.53s.091.512.245 1.297c.521 2.661 1.765 8.471 2.662 8.246.644-.16 1.731-1.3 2.576-2.285-.63-.959-3.06-2.657-3.06-2.657-.684.248-.77-1.71-.742-3.15l-.783-.677-.898-.773z" fill="#000"/><path d="M176.743 22.143s.091.512.244 1.297c.522 2.66 1.766 8.47 2.663 8.246.643-.161 1.731-1.3 2.576-2.285-.63-.96-3.06-2.657-3.06-2.657-.685.248-.77-1.712-.743-3.151l-.783-.677-.897-.773z" fill="#67647E"/><path d="M170.541 50.677s4.845-.969 6.202-3.1c1.357-2.132 10.585-3.973 9.459-1.744-1.126 2.228-9.459 9.52-9.459 9.52l-3.61 5.171-4.82-1.223-2.03-3.948 4.258-4.676z" fill="#BE6F72"/><path opacity=".1" d="M182.004 56.206s-4.691 1.744-5.398 4.07c-.706 2.325 5.398-4.07 5.398-4.07zM184.882 58.914s.427 2.421-5.455 2.228l5.455-2.228zM210.269 27.907l2.132-.194s2.326 1.744 4.07 1.744c1.744 0 2.81 2.229 2.81 2.229s2.907 1.356 3.876 1.55c.969.194 2.616 1.163 2.132 1.55-.485.388.096 1.26.969 1.938.872.679 2.228 4.167 1.065 4.652-1.162.484-4.36 1.453-5.232 1.937a2.4 2.4 0 01-1.938 0s-5.133-6.686-7.751-5.426c-2.617 1.26-6.202 1.26-6.202 1.26l-2.81-5.91 6.879-5.33z" fill="#000"/><path d="M165.683 59.79a2.597 2.597 0 001.806 1.256c1.897.221 3.82.044 5.644-.521 0 0-9.762-3.101-.363-10.642h-2.519l-.839-.318.384-2.008.552-18.1-2.035-.484s-1.638 11.918-2.029 13.372c-.393 1.453-.684 7.073-.684 7.073s-.388 2.326-.969 3.488c-.438.875-.326 4.816 1.052 6.884z" fill="#67647E"/><path opacity=".1" d="M166.071 59.79a2.586 2.586 0 001.806 1.256 13.69 13.69 0 005.643-.521s-9.761-3.101-.362-10.642h-2.519l-.84-.318c-1.379 2.444-3.552 6.793-3.728 10.225z" fill="#000"/><path d="M165.683 59.79a2.598 2.598 0 001.806 1.256c1.897.222 3.819.044 5.644-.521 0 0-9.762-3.101-.363-10.642h-2.519l-.839-.318c-1.38 2.444-3.553 6.793-3.729 10.225z" fill="#67647E"/><path opacity=".1" d="M178.714 24.792a8.817 8.817 0 009.98-1.895c-.044-.142-.087-.28-.126-.415a10.685 10.685 0 01-.391-2.23s-10.95-3.877-8.818 0c1.047 1.9.343 3.453-.645 4.54z" fill="#000"/><path d="M173.545 16.376v.085c.004.287.02.57.049.849a8.819 8.819 0 0013.649 6.41 8.82 8.82 0 003.62-4.995 8.753 8.753 0 00.297-2.956 8.82 8.82 0 00-17.615.607z" fill="#BE6F72"/><path opacity=".1" d="M173.545 16.461c.048.28.064.565.049.849-.002.153.006.307.025.46.017.114.049.226.095.332.357.838 1.519 1.378 2.287.84.296-.244.531-.552.688-.901.814-1.514 1.947-3.256 3.73-3.285.76-.014 1.475.306 2.21.494.732.186 1.606.21 2.155-.29.42-.385.62-1.042 1.186-1.177.573-.138 1.085.383 1.345.891.259.506.465 1.105.99 1.367.232.116.506.149.734.273 1.055.577.57 2.6 1.665 2.928.034.01.069.02.105.025l.054-.542.297-2.956a8.82 8.82 0 00-17.615.607v.085z" fill="#000"/><path d="M189.209 3.213c1.036.439 2.115 1.115 2.348 2.173.056.47.072.946.049 1.42.049.954.503 1.84.794 2.755.291.915.394 1.982-.188 2.76-.182.243-.423.445-.586.7a2.84 2.84 0 00-.339 1.283l-.479 4.77c-1.23-.23-.682-2.36-1.77-2.954-.228-.125-.5-.158-.733-.275-.525-.261-.73-.859-.991-1.366-.26-.507-.771-1.027-1.345-.89-.565.135-.764.793-1.185 1.176-.549.5-1.423.477-2.156.29-.734-.187-1.449-.507-2.209-.494-1.783.03-2.917 1.771-3.731 3.285-.156.35-.391.659-.688.902-.865.609-2.233-.158-2.381-1.173-.084-.569.094-1.204-.234-1.686-.337-.493-1.038-.585-1.594-.841-1.416-.653-1.855-2.421-1.62-3.904.17-1.068.595-2.169.247-3.197-.12-.355-.327-.679-.439-1.036-.311-.997.197-2.098.996-2.806a8.15 8.15 0 012.876-1.443c2.643-.886 5.419-1.741 8.23-1.924 1.232-.08 2.845-.465 3.823.302 1.151.903 1.873 1.566 3.305 2.173z" fill="#3F3D56"/><path opacity=".1" d="M186.905 31.328a.484.484 0 100-.969.484.484 0 000 .969z" fill="#000"/><path d="M186.905 31.134a.484.484 0 100-.969.484.484 0 000 .969z" fill="#444053"/><path opacity=".1" d="M190.005 61.754a.485.485 0 100-.97.485.485 0 000 .97z" fill="#000"/><path d="M190.005 61.56a.485.485 0 100-.97.485.485 0 000 .97z" fill="#444053"/><path opacity=".1" d="M188.359 69.796a.484.484 0 100-.969.484.484 0 000 .97z" fill="#000"/><path d="M188.359 69.602a.484.484 0 100-.969.484.484 0 000 .97z" fill="#444053"/><path opacity=".1" d="M171.704 38.498s-1.066 7.238 0 8.497c1.066 1.26 0-8.497 0-8.497zM203.39 51.938s2.035 4.383 0 8.587c-2.035 4.203-3.295 5.91-2.616 8.593.678 2.684 2.616-17.18 2.616-17.18zM107.17 132.363c3.004 2.034 7.558 1.066 7.558 1.066s6.88-3.295 8.915-3.295c2.035 0 6.977-2.035 6.977-2.035l-.167-1.372c-2.008.388-6.574 1.308-7.101 1.76-.678.581-9.011 3.391-9.011 3.391s-5.674-.709-7.254-3.041c-1.044 1.078-1.488 2.462.083 3.526z" fill="#000"/><g opacity=".1" fill="#000"><path opacity=".1" d="M191.606 6.031a5.537 5.537 0 01-.004-.316c.009.12.011.242.009.363l-.005-.047zM171.791 14.273c.556.256 1.257.348 1.594.842.328.48.151 1.116.234 1.685.149 1.016 1.516 1.782 2.382 1.173.296-.243.531-.552.687-.902.814-1.514 1.948-3.255 3.732-3.285.759-.013 1.474.307 2.208.494.734.188 1.607.21 2.156-.29.421-.383.621-1.041 1.185-1.176.574-.137 1.085.383 1.346.89.26.507.465 1.105.99 1.367.233.116.505.15.734.274 1.087.594.54 2.725 1.77 2.954l.478-4.77c.011-.448.127-.888.339-1.283.164-.255.404-.457.586-.7.22-.301.358-.655.398-1.025a2.475 2.475 0 01-.398 1.8c-.182.243-.422.445-.586.7a2.865 2.865 0 00-.339 1.284l-.478 4.77c-1.23-.23-.683-2.36-1.77-2.955-.229-.125-.501-.158-.734-.274-.525-.262-.73-.86-.99-1.367-.261-.506-.772-1.027-1.346-.89-.564.135-.764.794-1.185 1.177-.549.5-1.422.477-2.156.29-.734-.188-1.449-.508-2.208-.495-1.784.03-2.918 1.771-3.732 3.285-.156.35-.391.66-.687.902-.866.61-2.233-.157-2.382-1.173-.083-.569.094-1.204-.234-1.685-.337-.494-1.038-.586-1.594-.842-1.295-.597-1.771-2.126-1.663-3.517.094 1.147.607 2.255 1.663 2.742zM169.98 6.137c.111.357.319.68.439 1.035.128.412.166.847.11 1.274a2.575 2.575 0 00-.11-.499c-.12-.354-.328-.678-.439-1.035a2.15 2.15 0 01-.057-1.011c.014.08.033.158.057.236z"/></g><path opacity=".1" d="M198.448 49.22c2.229-.488 7.462-2.03 7.462-2.03s.354-.073.936-.189a154.583 154.583 0 00-.235-7.47l-.023.003s-4.457 1.454-5.523 2.229c-1.066.775-4.361.581-4.361.581s-5.135.29-9.399 5.039c-4.263 4.748 8.915 2.325 11.143 1.837z" fill="#000"/><path d="M220.228 40.573a1.29 1.29 0 01.747 1.006c.029.217.002.438-.077.642-.08.204-.211.385-.379.524-1.181.978-2.905 2.147-4.549 2.313-2.745.276-9.351 1.6-10.008 1.733a1.272 1.272 0 00-.104.026c-.544.16-5.31 1.556-7.41 2.016-2.228.488-15.406 2.91-11.143-1.837a15.072 15.072 0 019.305-5.031c.056-.006.113-.007.17-.004.498.023 3.315.12 4.285-.585a9.146 9.146 0 011.603-.799 30.789 30.789 0 016.551-1.889l4.558-.794c.26-.046.527-.012.767.098l5.684 2.581z" fill="#BE6F72"/><path d="M210.657 27.907l2.132-.194s2.325 1.744 4.07 1.744c1.744 0 2.81 2.229 2.81 2.229s2.907 1.356 3.875 1.55c.969.194 2.617 1.163 2.132 1.55-.484.388.097 1.26.969 1.938.872.679 2.229 4.167 1.066 4.652-1.163.484-4.36 1.453-5.232 1.937a2.407 2.407 0 01-1.938 0s-5.134-6.686-7.751-5.426c-2.617 1.26-6.203 1.26-6.203 1.26l-2.81-5.91 6.88-5.33z" fill="#67647E"/><path d="M213.651 61.32a1.374 1.374 0 00-1.372 1.372v22.96a1.372 1.372 0 001.372 1.372h92.621a1.374 1.374 0 001.372-1.371V62.692a1.371 1.371 0 00-1.372-1.372h-92.621z" fill="#EB850E"/><path d="M225.597 81.436c3.96 0 7.171-3.252 7.171-7.264 0-4.011-3.211-7.264-7.171-7.264-3.961 0-7.171 3.252-7.171 7.264 0 4.012 3.21 7.264 7.171 7.264z" fill="#E6E6E6"/><path d="M242.347 69.33a1.19 1.19 0 00-.847.354 1.216 1.216 0 000 1.712c.224.227.529.355.847.355h56.462c.318 0 .623-.128.847-.355a1.216 1.216 0 000-1.712 1.19 1.19 0 00-.847-.354h-56.462zM242.347 76.594a1.19 1.19 0 00-.847.354 1.216 1.216 0 000 1.713c.224.227.529.354.847.354h56.462c.318 0 .623-.127.847-.355a1.216 1.216 0 000-1.712 1.19 1.19 0 00-.847-.354h-56.462z" fill="#fff"/><defs><linearGradient id="prefix__paint0_linear" x1="46.742" y1="297.522" x2="46.742" y2="183.916" gradientUnits="userSpaceOnUse"><stop stop-color="gray" stop-opacity=".25"/><stop offset=".535" stop-color="gray" stop-opacity=".12"/><stop offset="1" stop-color="gray" stop-opacity=".1"/></linearGradient><linearGradient id="prefix__paint1_linear" x1="124302" y1="62962.1" x2="124302" y2="22477.2" gradientUnits="userSpaceOnUse"><stop stop-color="gray" stop-opacity=".25"/><stop offset=".535" stop-color="gray" stop-opacity=".12"/><stop offset="1" stop-color="gray" stop-opacity=".1"/></linearGradient></defs></svg>